G04 #@! TF.GenerationSoftware,KiCad,Pcbnew,(5.1.4)-1*
G04 #@! TF.CreationDate,2019-10-14T12:16:32+11:00*
G04 #@! TF.ProjectId,FoxCam,466f7843-616d-42e6-9b69-6361645f7063,rev?*
G04 #@! TF.SameCoordinates,Original*
G04 #@! TF.FileFunction,Copper,L2,Bot*
G04 #@! TF.FilePolarity,Positive*
%FSLAX46Y46*%
G04 Gerber Fmt 4.6, Leading zero omitted, Abs format (unit mm)*
G04 Created by KiCad (PCBNEW (5.1.4)-1) date 2019-10-14 12:16:32*
%MOMM*%
%LPD*%
G04 APERTURE LIST*
%ADD10C,0.300000*%
%ADD11C,2.000000*%
%ADD12R,1.700000X1.700000*%
%ADD13O,1.700000X1.700000*%
%ADD14R,0.508000X1.143000*%
%ADD15R,0.900000X1.200000*%
%ADD16R,1.200000X1.700000*%
%ADD17O,1.200000X1.700000*%
%ADD18R,1.200000X0.750000*%
%ADD19R,0.750000X1.200000*%
%ADD20R,1.550000X0.600000*%
%ADD21C,1.600000*%
%ADD22O,1.600000X1.600000*%
%ADD23C,1.524000*%
%ADD24C,1.400000*%
%ADD25O,1.400000X1.400000*%
%ADD26R,1.800000X1.800000*%
%ADD27C,1.800000*%
%ADD28R,2.400000X2.400000*%
%ADD29O,2.400000X2.400000*%
%ADD30R,3.000000X3.000000*%
%ADD31C,3.000000*%
%ADD32C,1.440000*%
%ADD33O,1.800000X1.800000*%
%ADD34R,1.600000X1.600000*%
%ADD35R,0.800000X0.900000*%
%ADD36O,0.900000X1.500000*%
%ADD37R,0.900000X1.500000*%
%ADD38R,1.200000X1.200000*%
%ADD39C,1.200000*%
%ADD40O,2.032000X2.540000*%
%ADD41C,0.800000*%
%ADD42C,0.500000*%
G04 APERTURE END LIST*
D10*
X114756428Y-50880714D02*
X114756428Y-50047380D01*
X116065952Y-50047380D02*
X113565952Y-50047380D01*
X113565952Y-51237857D01*
X116065952Y-52547380D02*
X115946904Y-52309285D01*
X115827857Y-52190238D01*
X115589761Y-52071190D01*
X114875476Y-52071190D01*
X114637380Y-52190238D01*
X114518333Y-52309285D01*
X114399285Y-52547380D01*
X114399285Y-52904523D01*
X114518333Y-53142619D01*
X114637380Y-53261666D01*
X114875476Y-53380714D01*
X115589761Y-53380714D01*
X115827857Y-53261666D01*
X115946904Y-53142619D01*
X116065952Y-52904523D01*
X116065952Y-52547380D01*
X116065952Y-54214047D02*
X114399285Y-55523571D01*
X114399285Y-54214047D02*
X116065952Y-55523571D01*
X115827857Y-57904523D02*
X115946904Y-57785476D01*
X116065952Y-57428333D01*
X116065952Y-57190238D01*
X115946904Y-56833095D01*
X115708809Y-56594999D01*
X115470714Y-56475952D01*
X114994523Y-56356904D01*
X114637380Y-56356904D01*
X114161190Y-56475952D01*
X113923095Y-56594999D01*
X113685000Y-56833095D01*
X113565952Y-57190238D01*
X113565952Y-57428333D01*
X113685000Y-57785476D01*
X113804047Y-57904523D01*
X116065952Y-60047380D02*
X114756428Y-60047380D01*
X114518333Y-59928333D01*
X114399285Y-59690238D01*
X114399285Y-59214047D01*
X114518333Y-58975952D01*
X115946904Y-60047380D02*
X116065952Y-59809285D01*
X116065952Y-59214047D01*
X115946904Y-58975952D01*
X115708809Y-58856904D01*
X115470714Y-58856904D01*
X115232619Y-58975952D01*
X115113571Y-59214047D01*
X115113571Y-59809285D01*
X114994523Y-60047380D01*
X116065952Y-61237857D02*
X114399285Y-61237857D01*
X114637380Y-61237857D02*
X114518333Y-61356904D01*
X114399285Y-61594999D01*
X114399285Y-61952142D01*
X114518333Y-62190238D01*
X114756428Y-62309285D01*
X116065952Y-62309285D01*
X114756428Y-62309285D02*
X114518333Y-62428333D01*
X114399285Y-62666428D01*
X114399285Y-63023571D01*
X114518333Y-63261666D01*
X114756428Y-63380714D01*
X116065952Y-63380714D01*
X114399285Y-66237857D02*
X116065952Y-66833095D01*
X114399285Y-67428333D01*
X116065952Y-69690238D02*
X116065952Y-68261666D01*
X116065952Y-68975952D02*
X113565952Y-68975952D01*
X113923095Y-68737857D01*
X114161190Y-68499761D01*
X114280238Y-68261666D01*
X115827857Y-70761666D02*
X115946904Y-70880714D01*
X116065952Y-70761666D01*
X115946904Y-70642619D01*
X115827857Y-70761666D01*
X116065952Y-70761666D01*
X113565952Y-72428333D02*
X113565952Y-72666428D01*
X113685000Y-72904523D01*
X113804047Y-73023571D01*
X114042142Y-73142619D01*
X114518333Y-73261666D01*
X115113571Y-73261666D01*
X115589761Y-73142619D01*
X115827857Y-73023571D01*
X115946904Y-72904523D01*
X116065952Y-72666428D01*
X116065952Y-72428333D01*
X115946904Y-72190238D01*
X115827857Y-72071190D01*
X115589761Y-71952142D01*
X115113571Y-71833095D01*
X114518333Y-71833095D01*
X114042142Y-71952142D01*
X113804047Y-72071190D01*
X113685000Y-72190238D01*
X113565952Y-72428333D01*
D11*
X180340000Y-54610000D03*
X185420000Y-54600000D03*
D12*
X184150000Y-114300000D03*
D13*
X181610000Y-114300000D03*
X179070000Y-114300000D03*
X176530000Y-114300000D03*
X173990000Y-114300000D03*
D14*
X179070000Y-109220000D03*
X180340000Y-109220000D03*
X181610000Y-109220000D03*
X182880000Y-109220000D03*
X182880000Y-102870000D03*
X181610000Y-102870000D03*
X180340000Y-102870000D03*
X179070000Y-102870000D03*
D15*
X175895000Y-108755000D03*
X175895000Y-110955000D03*
X185420000Y-107485000D03*
X185420000Y-109685000D03*
X173990000Y-108755000D03*
X173990000Y-110955000D03*
X185420000Y-105240000D03*
X185420000Y-103040000D03*
X185420000Y-100625000D03*
X185420000Y-98425000D03*
D16*
X158115000Y-111125000D03*
D17*
X160115000Y-111125000D03*
D18*
X161610000Y-106680000D03*
X163510000Y-106680000D03*
D19*
X178435000Y-97475000D03*
X178435000Y-99375000D03*
D15*
X154305000Y-108415000D03*
X154305000Y-106215000D03*
X154305000Y-103970000D03*
X154305000Y-101770000D03*
D20*
X162720000Y-100965000D03*
X162720000Y-102235000D03*
X162720000Y-103505000D03*
X162720000Y-104775000D03*
X157320000Y-104775000D03*
X157320000Y-103505000D03*
X157320000Y-102235000D03*
X157320000Y-100965000D03*
D21*
X192405000Y-102235000D03*
D22*
X192405000Y-92075000D03*
D21*
X188595000Y-107315000D03*
D22*
X188595000Y-117475000D03*
D21*
X147320000Y-106680000D03*
D22*
X137160000Y-106680000D03*
D21*
X137160000Y-111760000D03*
D22*
X147320000Y-111760000D03*
D21*
X164465000Y-76200000D03*
D22*
X154305000Y-76200000D03*
D21*
X154305000Y-83185000D03*
D22*
X164465000Y-83185000D03*
D21*
X175895000Y-83185000D03*
D22*
X186055000Y-83185000D03*
D21*
X129540000Y-90805000D03*
D22*
X119380000Y-90805000D03*
D21*
X119380000Y-102870000D03*
D22*
X129540000Y-102870000D03*
D21*
X118745000Y-75565000D03*
D22*
X128905000Y-75565000D03*
D21*
X119380000Y-96520000D03*
D22*
X129540000Y-96520000D03*
D21*
X118745000Y-53340000D03*
D22*
X128905000Y-53340000D03*
D21*
X118745000Y-60325000D03*
D22*
X128905000Y-60325000D03*
D21*
X118745000Y-46355000D03*
D22*
X128905000Y-46355000D03*
D21*
X175895000Y-89535000D03*
D22*
X165735000Y-89535000D03*
D21*
X118745000Y-39370000D03*
D22*
X128905000Y-39370000D03*
D21*
X150495000Y-102870000D03*
D22*
X150495000Y-113030000D03*
D12*
X134620000Y-89535000D03*
D13*
X137160000Y-89535000D03*
X139700000Y-89535000D03*
X142240000Y-89535000D03*
X144780000Y-89535000D03*
X147320000Y-89535000D03*
X149860000Y-89535000D03*
X152400000Y-89535000D03*
X154940000Y-89535000D03*
X157480000Y-89535000D03*
X160020000Y-89535000D03*
X162560000Y-89535000D03*
D23*
X134620000Y-94615000D03*
X137160000Y-94615000D03*
X139700000Y-94615000D03*
X142240000Y-94615000D03*
X144780000Y-94615000D03*
X147320000Y-94615000D03*
X149860000Y-94615000D03*
X152400000Y-94615000D03*
X154940000Y-94615000D03*
X162560000Y-94615000D03*
X165100000Y-94615000D03*
X167640000Y-94615000D03*
X170180000Y-94615000D03*
X172720000Y-94615000D03*
X175260000Y-94615000D03*
X177800000Y-94615000D03*
X180340000Y-94615000D03*
X182880000Y-94615000D03*
X182880000Y-117475000D03*
X180340000Y-117475000D03*
X177800000Y-117475000D03*
X175260000Y-117475000D03*
X172720000Y-117475000D03*
X170180000Y-117475000D03*
X167640000Y-117475000D03*
X165100000Y-117475000D03*
X162560000Y-117475000D03*
X154940000Y-117475000D03*
X152400000Y-117475000D03*
X149860000Y-117475000D03*
X147320000Y-117475000D03*
X144780000Y-117475000D03*
X142240000Y-117475000D03*
X139700000Y-117475000D03*
X137160000Y-117475000D03*
X134620000Y-117475000D03*
D24*
X188595000Y-98425000D03*
D25*
X188595000Y-100965000D03*
D12*
X173355000Y-98425000D03*
D13*
X170815000Y-98425000D03*
D12*
X150495000Y-99060000D03*
D13*
X153035000Y-99060000D03*
D12*
X204470000Y-106680000D03*
D13*
X204470000Y-109220000D03*
D26*
X184150000Y-31750000D03*
D27*
X181610000Y-31750000D03*
D26*
X175260000Y-31750000D03*
D27*
X172720000Y-31750000D03*
D26*
X156845000Y-31750000D03*
D27*
X154305000Y-31750000D03*
D26*
X165735000Y-31750000D03*
D27*
X163195000Y-31750000D03*
D26*
X147320000Y-31750000D03*
D27*
X144780000Y-31750000D03*
D26*
X137160000Y-31750000D03*
D27*
X134620000Y-31750000D03*
D26*
X184150000Y-41275000D03*
D27*
X181610000Y-41275000D03*
D26*
X175260000Y-41275000D03*
D27*
X172720000Y-41275000D03*
D26*
X165735000Y-41275000D03*
D27*
X163195000Y-41275000D03*
D26*
X156845000Y-41275000D03*
D27*
X154305000Y-41275000D03*
D26*
X147320000Y-41275000D03*
D27*
X144780000Y-41275000D03*
D26*
X137160000Y-41275000D03*
D27*
X134620000Y-41275000D03*
D26*
X184150000Y-60325000D03*
D27*
X181610000Y-60325000D03*
D26*
X175260000Y-60325000D03*
D27*
X172720000Y-60325000D03*
D26*
X165735000Y-60325000D03*
D27*
X163195000Y-60325000D03*
D26*
X156210000Y-60325000D03*
D27*
X153670000Y-60325000D03*
D26*
X147320000Y-60325000D03*
D27*
X144780000Y-60325000D03*
D26*
X137160000Y-60325000D03*
D27*
X134620000Y-60325000D03*
D26*
X184150000Y-50800000D03*
D27*
X181610000Y-50800000D03*
D26*
X175260000Y-50800000D03*
D27*
X172720000Y-50800000D03*
D26*
X165735000Y-50800000D03*
D27*
X163195000Y-50800000D03*
D26*
X156210000Y-50800000D03*
D27*
X153670000Y-50800000D03*
D26*
X147320000Y-50800000D03*
D27*
X144780000Y-50800000D03*
D26*
X137160000Y-50800000D03*
D27*
X134620000Y-50800000D03*
D28*
X153035000Y-69215000D03*
D29*
X165735000Y-69215000D03*
D30*
X195580000Y-63500000D03*
D31*
X195580000Y-68580000D03*
D30*
X195580000Y-50800000D03*
D31*
X195580000Y-55880000D03*
D30*
X195580000Y-38100000D03*
D31*
X195580000Y-43180000D03*
D32*
X193040000Y-75565000D03*
X195580000Y-75565000D03*
X198120000Y-75565000D03*
D28*
X130810000Y-83185000D03*
D29*
X118110000Y-83185000D03*
D26*
X192405000Y-110490000D03*
D33*
X200025000Y-110490000D03*
D26*
X192405000Y-105410000D03*
D33*
X200025000Y-105410000D03*
D28*
X172085000Y-69215000D03*
D29*
X184785000Y-69215000D03*
D26*
X196850000Y-91440000D03*
D27*
X196850000Y-88900000D03*
D34*
X171450000Y-83185000D03*
D21*
X168950000Y-83185000D03*
D34*
X121285000Y-79375000D03*
D21*
X123785000Y-79375000D03*
D34*
X199390000Y-82550000D03*
D21*
X196890000Y-82550000D03*
D26*
X135255000Y-81280000D03*
D27*
X137795000Y-81280000D03*
D26*
X126365000Y-67310000D03*
D33*
X123825000Y-67310000D03*
X121285000Y-67310000D03*
D26*
X142875000Y-76200000D03*
D33*
X145415000Y-76200000D03*
X147955000Y-76200000D03*
D35*
X141290000Y-99330000D03*
X143190000Y-99330000D03*
X142240000Y-101330000D03*
D36*
X197485000Y-99695000D03*
X198755000Y-99695000D03*
D37*
X196215000Y-99695000D03*
D23*
X168275000Y-102235000D03*
X168275000Y-104775000D03*
X168275000Y-109855000D03*
X168275000Y-107315000D03*
D12*
X202565000Y-89535000D03*
D13*
X202565000Y-92075000D03*
X202565000Y-94615000D03*
D38*
X187325000Y-90805000D03*
D39*
X187325000Y-89305000D03*
D40*
X180975000Y-78105000D03*
X183515000Y-78105000D03*
X178435000Y-78105000D03*
D38*
X190500000Y-82550000D03*
D39*
X192000000Y-82550000D03*
D28*
X147320000Y-69215000D03*
D29*
X134620000Y-69215000D03*
D41*
X184150000Y-81915000D03*
X180975000Y-88900000D03*
X129540000Y-107950000D03*
X175580000Y-97475000D03*
X190500000Y-102870000D03*
X131080000Y-76565000D03*
X128270000Y-79375000D03*
X147050000Y-101330000D03*
X177165000Y-103505000D03*
X185420000Y-95885000D03*
X154305000Y-113030000D03*
X152400000Y-106680000D03*
X168275000Y-112395000D03*
X155575000Y-106680000D03*
X159385000Y-107315000D03*
X158750000Y-102235000D03*
X175895000Y-106045000D03*
X183515000Y-106045000D03*
X178117500Y-108267500D03*
D42*
X189400000Y-82550000D02*
X188130000Y-81280000D01*
X190500000Y-82550000D02*
X189400000Y-82550000D01*
X188130000Y-81280000D02*
X184785000Y-81280000D01*
X184785000Y-81280000D02*
X184150000Y-81915000D01*
X184150000Y-81915000D02*
X184150000Y-81915000D01*
X180975000Y-90805000D02*
X180975000Y-88900000D01*
X182880000Y-92710000D02*
X180975000Y-90805000D01*
X185420000Y-105090000D02*
X187640000Y-102870000D01*
X185420000Y-105240000D02*
X185420000Y-105090000D01*
X187640000Y-102870000D02*
X189230000Y-102870000D01*
X189230000Y-102870000D02*
X191135000Y-100965000D01*
X191135000Y-100965000D02*
X191135000Y-93980000D01*
X189865000Y-92710000D02*
X182880000Y-92710000D01*
X191135000Y-93980000D02*
X189865000Y-92710000D01*
X165735000Y-74930000D02*
X164465000Y-76200000D01*
X165735000Y-69215000D02*
X165735000Y-74930000D01*
X164465000Y-76200000D02*
X172085000Y-76200000D01*
X172085000Y-76200000D02*
X177165000Y-81280000D01*
X177165000Y-81280000D02*
X179705000Y-81280000D01*
X180975000Y-80010000D02*
X180975000Y-78105000D01*
X179705000Y-81280000D02*
X180975000Y-80010000D01*
X180975000Y-78105000D02*
X180975000Y-81280000D01*
X180975000Y-81280000D02*
X186055000Y-86360000D01*
X186055000Y-86360000D02*
X198120000Y-86360000D01*
X198120000Y-86360000D02*
X199390000Y-85090000D01*
X199390000Y-85090000D02*
X199390000Y-82550000D01*
X118745000Y-82550000D02*
X118110000Y-83185000D01*
X147955000Y-76200000D02*
X151765000Y-80010000D01*
X165775000Y-80010000D02*
X168950000Y-83185000D01*
X151765000Y-80010000D02*
X165775000Y-80010000D01*
X194945000Y-56515000D02*
X195695000Y-56515000D01*
X172720000Y-94615000D02*
X175260000Y-92075000D01*
X175260000Y-92075000D02*
X177165000Y-92075000D01*
X177165000Y-92075000D02*
X178435000Y-90805000D01*
X170180000Y-86995000D02*
X178435000Y-86995000D01*
X196215000Y-91440000D02*
X197615000Y-91440000D01*
X178435000Y-90805000D02*
X178435000Y-88900000D01*
X178435000Y-88900000D02*
X178435000Y-86995000D01*
X168950000Y-83185000D02*
X168950000Y-85765000D01*
X168950000Y-85765000D02*
X170180000Y-86995000D01*
X175580000Y-97475000D02*
X175580000Y-97475000D01*
X172720000Y-94615000D02*
X175580000Y-97475000D01*
X178435000Y-97475000D02*
X181930000Y-97475000D01*
X181930000Y-97475000D02*
X182245000Y-97790000D01*
X182245000Y-97790000D02*
X182880000Y-98425000D01*
X185420000Y-98425000D02*
X182880000Y-98425000D01*
X143190000Y-98740000D02*
X143190000Y-99330000D01*
X131445000Y-107950000D02*
X138430000Y-100965000D01*
X129540000Y-107950000D02*
X131445000Y-107950000D01*
X138430000Y-100965000D02*
X138430000Y-98425000D01*
X138430000Y-98425000D02*
X139065000Y-97790000D01*
X139065000Y-97790000D02*
X142240000Y-97790000D01*
X142240000Y-97790000D02*
X143190000Y-98740000D01*
X157320000Y-110330000D02*
X158115000Y-111125000D01*
X157320000Y-104775000D02*
X157320000Y-110330000D01*
X152400000Y-111125000D02*
X150495000Y-113030000D01*
X158115000Y-111125000D02*
X152400000Y-111125000D01*
X173990000Y-110955000D02*
X173990000Y-111105000D01*
X158115000Y-113030000D02*
X158115000Y-111125000D01*
X158750000Y-113665000D02*
X158115000Y-113030000D01*
X163510000Y-113350000D02*
X163195000Y-113665000D01*
X163195000Y-113665000D02*
X158750000Y-113665000D01*
X197485000Y-99695000D02*
X197485000Y-98425000D01*
X197485000Y-98425000D02*
X201295000Y-94615000D01*
X201295000Y-94615000D02*
X202565000Y-94615000D01*
X173990000Y-110955000D02*
X175895000Y-110955000D01*
X182880000Y-98425000D02*
X182880000Y-102870000D01*
X171430000Y-113665000D02*
X163195000Y-113665000D01*
X163510000Y-110810000D02*
X163510000Y-113350000D01*
X163510000Y-106680000D02*
X163510000Y-110810000D01*
X172085000Y-96520000D02*
X172720000Y-95885000D01*
X169545000Y-96520000D02*
X172085000Y-96520000D01*
X172720000Y-95885000D02*
X172720000Y-94615000D01*
X163510000Y-110810000D02*
X163825000Y-111125000D01*
X169545000Y-111125000D02*
X170815000Y-109855000D01*
X170815000Y-109855000D02*
X170815000Y-100965000D01*
X163825000Y-111125000D02*
X169545000Y-111125000D01*
X170815000Y-100965000D02*
X168275000Y-98425000D01*
X168275000Y-97790000D02*
X169545000Y-96520000D01*
X168275000Y-98425000D02*
X168275000Y-97790000D01*
X173140001Y-112815001D02*
X172710000Y-112385000D01*
X173140001Y-113450001D02*
X173140001Y-112815001D01*
X173990000Y-114300000D02*
X173140001Y-113450001D01*
X173990000Y-111105000D02*
X172710000Y-112385000D01*
X172710000Y-112385000D02*
X171430000Y-113665000D01*
X198250000Y-91440000D02*
X196850000Y-91440000D01*
X198689990Y-91000010D02*
X198250000Y-91440000D01*
X198689990Y-90235010D02*
X198689990Y-91000010D01*
X200660000Y-63500000D02*
X203835000Y-66675000D01*
X203835000Y-66675000D02*
X203835000Y-85855000D01*
X195580000Y-63500000D02*
X200660000Y-63500000D01*
X203835000Y-85855000D02*
X202060000Y-87630000D01*
X202060000Y-87630000D02*
X201295000Y-87630000D01*
X201295000Y-87630000D02*
X198689990Y-90235010D01*
X194945000Y-91440000D02*
X196850000Y-91440000D01*
X192810000Y-89305000D02*
X194945000Y-91440000D01*
X185190000Y-89305000D02*
X192810000Y-89305000D01*
X178435000Y-86995000D02*
X182880000Y-86995000D01*
X182880000Y-86995000D02*
X185190000Y-89305000D01*
X175580000Y-97475000D02*
X178435000Y-97475000D01*
X134909954Y-68514992D02*
X134620000Y-68514992D01*
X135320008Y-68925046D02*
X134909954Y-68514992D01*
X137160000Y-69215000D02*
X134620000Y-69215000D01*
X138430000Y-70485000D02*
X137160000Y-69215000D01*
X140970000Y-79375000D02*
X138430000Y-76835000D01*
X153505001Y-82385001D02*
X151880039Y-82385001D01*
X138430000Y-76835000D02*
X138430000Y-70485000D01*
X154305000Y-83185000D02*
X153505001Y-82385001D01*
X151880039Y-82385001D02*
X151715040Y-82550000D01*
X151715040Y-82550000D02*
X151715040Y-82500040D01*
X151715040Y-82500040D02*
X148590000Y-79375000D01*
X148590000Y-79375000D02*
X140970000Y-79375000D01*
X142240000Y-111760000D02*
X147320000Y-106680000D01*
X137160000Y-111760000D02*
X142240000Y-111760000D01*
X140390000Y-99330000D02*
X139700000Y-100020000D01*
X141290000Y-99330000D02*
X140390000Y-99330000D01*
X139700000Y-100020000D02*
X139700000Y-103505000D01*
X144145000Y-103505000D02*
X147320000Y-106680000D01*
X139700000Y-103505000D02*
X144145000Y-103505000D01*
X162560000Y-81280000D02*
X164465000Y-83185000D01*
X151765000Y-81280000D02*
X162560000Y-81280000D01*
X148590000Y-78105000D02*
X151765000Y-81280000D01*
X142875000Y-76200000D02*
X142875000Y-78105000D01*
X142875000Y-78105000D02*
X148590000Y-78105000D01*
X147320000Y-69215000D02*
X153035000Y-69215000D01*
X131099954Y-83885008D02*
X131304981Y-83679981D01*
X130520046Y-83885008D02*
X131099954Y-83885008D01*
X126365000Y-67310000D02*
X126365000Y-79729962D01*
X126365000Y-79729962D02*
X130520046Y-83885008D01*
X126365000Y-67310000D02*
X129540000Y-67310000D01*
X129540000Y-67310000D02*
X130810000Y-66040000D01*
X145620000Y-69215000D02*
X147320000Y-69215000D01*
X142445000Y-66040000D02*
X145620000Y-69215000D01*
X130810000Y-66040000D02*
X142445000Y-66040000D01*
X153035000Y-70915000D02*
X160860000Y-78740000D01*
X153035000Y-69215000D02*
X153035000Y-70915000D01*
X171450000Y-81885000D02*
X171450000Y-83185000D01*
X168305000Y-78740000D02*
X171450000Y-81885000D01*
X160860000Y-78740000D02*
X168305000Y-78740000D01*
X171450000Y-83185000D02*
X175895000Y-83185000D01*
X204470000Y-104460000D02*
X204470000Y-106680000D01*
X199705000Y-99695000D02*
X204470000Y-104460000D01*
X198755000Y-99695000D02*
X199705000Y-99695000D01*
X185420000Y-107485000D02*
X186370000Y-107485000D01*
X190500000Y-102870000D02*
X190500000Y-102870000D01*
X186370000Y-107000000D02*
X190500000Y-102870000D01*
X186370000Y-107485000D02*
X186370000Y-107000000D01*
X188605000Y-69225000D02*
X188605000Y-55255000D01*
X201864990Y-74229990D02*
X199390000Y-71755000D01*
X201864990Y-84995008D02*
X201864990Y-74229990D01*
X180975000Y-83185000D02*
X185420000Y-87630000D01*
X175895000Y-83185000D02*
X180975000Y-83185000D01*
X191135000Y-71755000D02*
X188605000Y-69225000D01*
X199390000Y-71755000D02*
X191135000Y-71755000D01*
X185420000Y-87630000D02*
X193040000Y-87630000D01*
X188605000Y-55255000D02*
X187950000Y-54600000D01*
X193040000Y-87630000D02*
X193120001Y-87549999D01*
X187950000Y-54600000D02*
X185420000Y-54600000D01*
X193120001Y-87549999D02*
X199309999Y-87549999D01*
X199309999Y-87549999D02*
X201864990Y-84995008D01*
X131080000Y-76565000D02*
X128270000Y-79375000D01*
X192405000Y-113665000D02*
X188595000Y-117475000D01*
X192405000Y-110490000D02*
X192405000Y-113665000D01*
X192405000Y-105410000D02*
X192405000Y-110490000D01*
X165735000Y-88265000D02*
X165735000Y-89535000D01*
X164465000Y-86995000D02*
X165735000Y-88265000D01*
X154305000Y-86995000D02*
X164465000Y-86995000D01*
X137795000Y-81280000D02*
X148590000Y-81280000D01*
X148590000Y-81280000D02*
X154305000Y-86995000D01*
X201215000Y-89535000D02*
X199390000Y-91360000D01*
X202565000Y-89535000D02*
X201215000Y-89535000D01*
X199390000Y-91360000D02*
X199390000Y-93980000D01*
X196215000Y-97155000D02*
X196215000Y-99695000D01*
X199390000Y-93980000D02*
X196215000Y-97155000D01*
X142240000Y-101330000D02*
X147050000Y-101330000D01*
X168275000Y-100965000D02*
X168275000Y-102235000D01*
X166370000Y-99060000D02*
X168275000Y-100965000D01*
X153035000Y-99060000D02*
X166370000Y-99060000D01*
X177165000Y-104775000D02*
X177165000Y-104140000D01*
X177165000Y-104140000D02*
X177165000Y-103505000D01*
X177165000Y-103505000D02*
X177165000Y-103505000D01*
X179070000Y-109220000D02*
X177165000Y-109220000D01*
X177165000Y-109220000D02*
X177165000Y-104775000D01*
X177379999Y-109434999D02*
X177165000Y-109220000D01*
X177379999Y-113450001D02*
X177379999Y-109434999D01*
X176530000Y-114300000D02*
X177379999Y-113450001D01*
X186055000Y-95885000D02*
X188595000Y-98425000D01*
X185420000Y-95885000D02*
X186055000Y-95885000D01*
X154940000Y-117475000D02*
X154940000Y-113665000D01*
X154940000Y-113665000D02*
X154305000Y-113030000D01*
X158595000Y-103505000D02*
X158750000Y-103660000D01*
X157320000Y-103505000D02*
X158595000Y-103505000D01*
X158750000Y-103660000D02*
X158750000Y-105979990D01*
X158115000Y-106614990D02*
X158115000Y-108585000D01*
X158750000Y-105979990D02*
X158115000Y-106614990D01*
X160115000Y-110875000D02*
X160020000Y-110780000D01*
X160115000Y-111125000D02*
X160115000Y-110875000D01*
X160020000Y-110490000D02*
X158115000Y-108585000D01*
X160020000Y-110780000D02*
X160020000Y-110490000D01*
X152865000Y-106215000D02*
X152400000Y-106680000D01*
X154305000Y-106215000D02*
X152865000Y-106215000D01*
X152865000Y-101135000D02*
X152865000Y-106215000D01*
X153670000Y-100330000D02*
X152865000Y-101135000D01*
X155410000Y-100330000D02*
X153670000Y-100330000D01*
X157320000Y-100965000D02*
X156045000Y-100965000D01*
X156045000Y-100965000D02*
X155410000Y-100330000D01*
X172720000Y-117475000D02*
X173990000Y-116205000D01*
X177165000Y-116205000D02*
X179070000Y-114300000D01*
X173990000Y-116205000D02*
X177165000Y-116205000D01*
X180340000Y-113030000D02*
X179070000Y-114300000D01*
X180340000Y-109220000D02*
X180340000Y-113030000D01*
X173355000Y-97790000D02*
X173355000Y-98425000D01*
X173355000Y-99775000D02*
X172720000Y-100410000D01*
X173355000Y-98425000D02*
X173355000Y-99775000D01*
X172720000Y-100410000D02*
X172720000Y-111125000D01*
X172720000Y-111125000D02*
X171450000Y-112395000D01*
X171450000Y-112395000D02*
X168275000Y-112395000D01*
X155255000Y-108415000D02*
X155575000Y-108095000D01*
X154305000Y-108415000D02*
X155255000Y-108415000D01*
X155405000Y-103970000D02*
X154305000Y-103970000D01*
X155575000Y-104140000D02*
X155405000Y-103970000D01*
X155575000Y-108095000D02*
X155575000Y-106680000D01*
X155575000Y-106680000D02*
X155575000Y-104140000D01*
X174305000Y-99375000D02*
X173355000Y-98425000D01*
X178435000Y-99375000D02*
X174305000Y-99375000D01*
X161385000Y-106680000D02*
X161610000Y-106680000D01*
X160510000Y-105805000D02*
X161385000Y-106680000D01*
X160510000Y-103650000D02*
X160510000Y-105805000D01*
X161925000Y-102235000D02*
X160510000Y-103650000D01*
X162720000Y-102235000D02*
X161925000Y-102235000D01*
X160510000Y-106680000D02*
X159875000Y-107315000D01*
X161610000Y-106680000D02*
X160510000Y-106680000D01*
X159875000Y-107315000D02*
X159385000Y-107315000D01*
X121285000Y-67310000D02*
X121285000Y-79375000D01*
X134620000Y-89535000D02*
X134620000Y-94615000D01*
X137160000Y-89535000D02*
X137160000Y-94615000D01*
X139700000Y-89535000D02*
X139700000Y-94615000D01*
X142240000Y-89535000D02*
X142240000Y-94615000D01*
X144780000Y-89535000D02*
X144780000Y-94615000D01*
X147320000Y-89535000D02*
X147320000Y-94615000D01*
X149860000Y-89535000D02*
X149860000Y-94615000D01*
X152400000Y-89535000D02*
X152400000Y-94615000D01*
X154940000Y-89535000D02*
X154940000Y-94615000D01*
X161357919Y-94615000D02*
X162560000Y-94615000D01*
X157480000Y-90737081D02*
X161357919Y-94615000D01*
X157480000Y-89535000D02*
X157480000Y-90737081D01*
X167640000Y-94615000D02*
X167640000Y-95250000D01*
X160020000Y-90737081D02*
X161357919Y-92075000D01*
X160020000Y-89535000D02*
X160020000Y-90737081D01*
X161357919Y-92075000D02*
X167005000Y-92075000D01*
X167640000Y-92710000D02*
X167640000Y-94615000D01*
X167005000Y-92075000D02*
X167640000Y-92710000D01*
X191135000Y-73660000D02*
X193040000Y-75565000D01*
X180975000Y-73660000D02*
X191135000Y-73660000D01*
X178435000Y-78105000D02*
X178435000Y-76200000D01*
X178435000Y-76200000D02*
X180975000Y-73660000D01*
X136028630Y-106680000D02*
X134620000Y-108088630D01*
X137160000Y-106680000D02*
X136028630Y-106680000D01*
X134620000Y-108088630D02*
X134620000Y-113030000D01*
X134620000Y-113030000D02*
X136525000Y-114935000D01*
X136525000Y-114935000D02*
X151765000Y-114935000D01*
X151765000Y-114935000D02*
X152400000Y-115570000D01*
X152400000Y-115570000D02*
X152400000Y-117475000D01*
X155720000Y-102235000D02*
X157320000Y-102235000D01*
X154305000Y-101770000D02*
X155255000Y-101770000D01*
X155255000Y-101770000D02*
X155720000Y-102235000D01*
X157320000Y-102235000D02*
X158750000Y-102235000D01*
X181610000Y-113030000D02*
X181610000Y-114300000D01*
X182880000Y-109220000D02*
X182880000Y-111760000D01*
X182880000Y-111760000D02*
X181610000Y-113030000D01*
X181610000Y-103941500D02*
X181610000Y-102870000D01*
X185420000Y-100775000D02*
X184150000Y-102045000D01*
X184150000Y-102045000D02*
X184150000Y-103470038D01*
X184150000Y-103470038D02*
X183545048Y-104074990D01*
X185420000Y-100625000D02*
X185420000Y-100775000D01*
X183545048Y-104074990D02*
X181743490Y-104074990D01*
X181743490Y-104074990D02*
X181610000Y-103941500D01*
X188255000Y-100625000D02*
X188595000Y-100965000D01*
X185420000Y-100625000D02*
X188255000Y-100625000D01*
X173990000Y-108755000D02*
X173990000Y-102235000D01*
X173990000Y-102235000D02*
X175260000Y-100965000D01*
X175260000Y-100965000D02*
X179705000Y-100965000D01*
X179705000Y-100965000D02*
X180340000Y-101600000D01*
X180340000Y-101600000D02*
X180340000Y-102870000D01*
X185420000Y-103190000D02*
X183835000Y-104775000D01*
X185420000Y-103040000D02*
X185420000Y-103190000D01*
X183835000Y-104775000D02*
X180975000Y-104775000D01*
X180975000Y-104775000D02*
X180340000Y-104140000D01*
X180340000Y-104140000D02*
X180340000Y-102870000D01*
X185420000Y-109685000D02*
X184955000Y-109685000D01*
X175895000Y-108755000D02*
X175895000Y-106045000D01*
X175895000Y-106045000D02*
X175895000Y-106045000D01*
X183515000Y-107780000D02*
X185420000Y-109685000D01*
X181610000Y-108902500D02*
X181610000Y-109220000D01*
X183197500Y-107315000D02*
X181610000Y-108902500D01*
X183515000Y-107315000D02*
X183197500Y-107315000D01*
X183515000Y-107315000D02*
X183515000Y-107780000D01*
X183515000Y-106045000D02*
X183515000Y-107315000D01*
X179070000Y-102870000D02*
X179070000Y-107315000D01*
X179070000Y-107315000D02*
X178117500Y-108267500D01*
X178117500Y-108267500D02*
X177865010Y-108519990D01*
X182245000Y-52705000D02*
X180340000Y-54610000D01*
X185420000Y-52705000D02*
X182245000Y-52705000D01*
X186690000Y-51435000D02*
X185420000Y-52705000D01*
X195580000Y-50800000D02*
X194945000Y-51435000D01*
X194945000Y-51435000D02*
X186690000Y-51435000D01*
M02*
