M48
; DRILL file {KiCad (5.1.4)-1} date 14/10/2019 12:15:32 PM
; FORMAT={-:-/ absolute / inch / decimal}
; #@! TF.CreationDate,2019-10-14T12:15:32+11:00
; #@! TF.GenerationSoftware,Kicad,Pcbnew,(5.1.4)-1
FMAT,2
INCH
T1C0.0157
T2C0.0236
T3C0.0276
T4C0.0295
T5C0.0300
T6C0.0315
T7C0.0354
T8C0.0394
T9C0.0450
T10C0.0472
T11C0.0598
T12C0.1260
%
G90
G05
T1
X5.05Y-3.125
X5.1Y-4.25
X5.1606Y-3.0144
X5.7894Y-3.9894
X6.0Y-4.2
X6.075Y-4.45
X6.125Y-4.2
X6.25Y-4.025
X6.275Y-4.225
X6.625Y-4.425
X6.9126Y-3.8376
X6.925Y-4.175
X6.975Y-4.075
X7.0125Y-4.2625
X7.125Y-3.5
X7.225Y-4.175
X7.25Y-3.225
X7.3Y-3.775
X7.5Y-4.05
T2
X7.5Y-3.25
X7.5591Y-3.25
X7.725Y-3.925
X7.775Y-3.925
X7.825Y-3.925
X7.375Y-3.5159
X7.375Y-3.575
T3
X7.425Y-3.875
X7.425Y-3.975
T4
X6.225Y-4.375
X6.3037Y-4.375
T5
X6.625Y-4.025
X6.625Y-4.125
X6.625Y-4.225
X6.625Y-4.325
X5.3Y-3.725
X5.3Y-4.625
X5.4Y-3.725
X5.4Y-4.625
X5.5Y-3.725
X5.5Y-4.625
X5.6Y-3.725
X5.6Y-4.625
X5.7Y-3.725
X5.7Y-4.625
X5.8Y-3.725
X5.8Y-4.625
X5.9Y-3.725
X5.9Y-4.625
X6.0Y-3.725
X6.0Y-4.625
X6.1Y-3.725
X6.1Y-4.625
X6.4Y-3.725
X6.4Y-4.625
X6.5Y-3.725
X6.5Y-4.625
X6.6Y-3.725
X6.6Y-4.625
X6.7Y-3.725
X6.7Y-4.625
X6.8Y-3.725
X6.8Y-4.625
X6.9Y-3.725
X6.9Y-4.625
X7.0Y-3.725
X7.0Y-4.625
X7.1Y-3.725
X7.1Y-4.625
X7.2Y-3.725
X7.2Y-4.625
T6
X4.7Y-4.05
X5.1Y-4.05
X6.6516Y-3.275
X6.75Y-3.275
X4.675Y-1.55
X5.075Y-1.55
X6.075Y-3.275
X6.475Y-3.275
X6.075Y-3.0
X6.475Y-3.0
X5.4Y-4.4
X5.8Y-4.4
X7.6Y-2.975
X7.7Y-2.975
X7.8Y-2.975
X5.925Y-4.05
X5.925Y-4.45
X4.675Y-2.975
X5.075Y-2.975
X4.7Y-3.8
X5.1Y-3.8
X4.775Y-3.125
X4.8734Y-3.125
X5.4Y-4.2
X5.8Y-4.2
X4.675Y-1.825
X5.075Y-1.825
X4.675Y-2.375
X5.075Y-2.375
X6.925Y-3.275
X7.325Y-3.275
X4.7Y-3.575
X5.1Y-3.575
X6.525Y-3.525
X6.925Y-3.525
X7.425Y-4.225
X7.425Y-4.625
X4.675Y-2.1
X5.075Y-2.1
X7.575Y-3.625
X7.575Y-4.025
X7.7516Y-3.25
X7.85Y-3.25
T7
X5.7Y-2.375
X5.8Y-2.375
X6.075Y-1.625
X6.175Y-1.625
X6.8Y-2.375
X6.9Y-2.375
X6.8Y-1.625
X6.9Y-1.625
X7.15Y-1.625
X7.25Y-1.625
X7.575Y-4.15
X7.875Y-4.15
X5.3Y-2.375
X5.4Y-2.375
X5.7Y-2.0
X5.8Y-2.0
X6.425Y-1.625
X6.525Y-1.625
X7.15Y-2.0
X7.25Y-2.0
X7.15Y-2.375
X7.25Y-2.375
X7.575Y-4.35
X7.875Y-4.35
X6.425Y-2.375
X6.525Y-2.375
X5.7Y-1.25
X5.8Y-1.25
X6.075Y-1.25
X6.175Y-1.25
X7.75Y-3.5
X7.75Y-3.6
X6.425Y-1.25
X6.525Y-1.25
X6.425Y-2.0
X6.525Y-2.0
X5.3Y-2.0
X5.4Y-2.0
X5.3Y-1.625
X5.4Y-1.625
X6.8Y-2.0
X6.9Y-2.0
X5.7Y-1.625
X5.8Y-1.625
X6.05Y-2.375
X6.15Y-2.375
X6.8Y-1.25
X6.9Y-1.25
X5.3Y-1.25
X5.4Y-1.25
X7.15Y-1.25
X7.25Y-1.25
X5.325Y-3.2
X5.425Y-3.2
X6.05Y-2.0
X6.15Y-2.0
T8
X5.925Y-3.9
X6.025Y-3.9
X8.05Y-4.2
X8.05Y-4.3
X4.775Y-2.65
X4.875Y-2.65
X4.975Y-2.65
X5.3Y-3.525
X5.4Y-3.525
X5.5Y-3.525
X5.6Y-3.525
X5.7Y-3.525
X5.8Y-3.525
X5.9Y-3.525
X6.0Y-3.525
X6.1Y-3.525
X6.2Y-3.525
X6.3Y-3.525
X6.4Y-3.525
X6.85Y-4.5
X6.95Y-4.5
X7.05Y-4.5
X7.15Y-4.5
X7.25Y-4.5
X5.625Y-3.0
X5.725Y-3.0
X5.825Y-3.0
X7.975Y-3.525
X7.975Y-3.625
X7.975Y-3.725
X6.725Y-3.875
X6.825Y-3.875
X7.1Y-2.15
X7.3Y-2.1496
T9
X7.025Y-3.075
X7.125Y-3.075
X7.225Y-3.075
T10
X4.65Y-3.275
X5.15Y-3.275
X5.3Y-2.725
X5.8Y-2.725
X6.775Y-2.725
X7.275Y-2.725
X6.025Y-2.725
X6.525Y-2.725
T11
X7.7Y-2.0
X7.7Y-2.2
X7.7Y-2.5
X7.7Y-2.7
X7.7Y-1.5
X7.7Y-1.7
T12
X8.0Y-4.575
X4.6Y-1.175
X8.0Y-1.175
X4.6Y-4.575
T0
M30
