G04 #@! TF.GenerationSoftware,KiCad,Pcbnew,(5.1.4)-1*
G04 #@! TF.CreationDate,2019-10-14T12:16:32+11:00*
G04 #@! TF.ProjectId,FoxCam,466f7843-616d-42e6-9b69-6361645f7063,rev?*
G04 #@! TF.SameCoordinates,Original*
G04 #@! TF.FileFunction,Legend,Bot*
G04 #@! TF.FilePolarity,Positive*
%FSLAX46Y46*%
G04 Gerber Fmt 4.6, Leading zero omitted, Abs format (unit mm)*
G04 Created by KiCad (PCBNEW (5.1.4)-1) date 2019-10-14 12:16:32*
%MOMM*%
%LPD*%
G04 APERTURE LIST*
%ADD10C,0.300000*%
%ADD11C,0.150000*%
%ADD12C,0.120000*%
G04 APERTURE END LIST*
D10*
X189273571Y-52895714D02*
X187773571Y-52895714D01*
X187773571Y-53467142D01*
X187845000Y-53610000D01*
X187916428Y-53681428D01*
X188059285Y-53752857D01*
X188273571Y-53752857D01*
X188416428Y-53681428D01*
X188487857Y-53610000D01*
X188559285Y-53467142D01*
X188559285Y-52895714D01*
X187773571Y-54181428D02*
X187773571Y-55038571D01*
X189273571Y-54610000D02*
X187773571Y-54610000D01*
X189130714Y-56395714D02*
X189202142Y-56324285D01*
X189273571Y-56110000D01*
X189273571Y-55967142D01*
X189202142Y-55752857D01*
X189059285Y-55610000D01*
X188916428Y-55538571D01*
X188630714Y-55467142D01*
X188416428Y-55467142D01*
X188130714Y-55538571D01*
X187987857Y-55610000D01*
X187845000Y-55752857D01*
X187773571Y-55967142D01*
X187773571Y-56110000D01*
X187845000Y-56324285D01*
X187916428Y-56395714D01*
D11*
X201907142Y-74104761D02*
X201954761Y-74057142D01*
X202002380Y-73914285D01*
X202002380Y-73819047D01*
X201954761Y-73676190D01*
X201859523Y-73580952D01*
X201764285Y-73533333D01*
X201573809Y-73485714D01*
X201430952Y-73485714D01*
X201240476Y-73533333D01*
X201145238Y-73580952D01*
X201050000Y-73676190D01*
X201002380Y-73819047D01*
X201002380Y-73914285D01*
X201050000Y-74057142D01*
X201097619Y-74104761D01*
X202002380Y-74533333D02*
X201002380Y-74533333D01*
X202002380Y-74961904D02*
X201478571Y-74961904D01*
X201383333Y-74914285D01*
X201335714Y-74819047D01*
X201335714Y-74676190D01*
X201383333Y-74580952D01*
X201430952Y-74533333D01*
X202002380Y-75866666D02*
X201478571Y-75866666D01*
X201383333Y-75819047D01*
X201335714Y-75723809D01*
X201335714Y-75533333D01*
X201383333Y-75438095D01*
X201954761Y-75866666D02*
X202002380Y-75771428D01*
X202002380Y-75533333D01*
X201954761Y-75438095D01*
X201859523Y-75390476D01*
X201764285Y-75390476D01*
X201669047Y-75438095D01*
X201621428Y-75533333D01*
X201621428Y-75771428D01*
X201573809Y-75866666D01*
X202002380Y-76342857D02*
X201335714Y-76342857D01*
X201526190Y-76342857D02*
X201430952Y-76390476D01*
X201383333Y-76438095D01*
X201335714Y-76533333D01*
X201335714Y-76628571D01*
X201335714Y-77390476D02*
X202145238Y-77390476D01*
X202240476Y-77342857D01*
X202288095Y-77295238D01*
X202335714Y-77200000D01*
X202335714Y-77057142D01*
X202288095Y-76961904D01*
X201954761Y-77390476D02*
X202002380Y-77295238D01*
X202002380Y-77104761D01*
X201954761Y-77009523D01*
X201907142Y-76961904D01*
X201811904Y-76914285D01*
X201526190Y-76914285D01*
X201430952Y-76961904D01*
X201383333Y-77009523D01*
X201335714Y-77104761D01*
X201335714Y-77295238D01*
X201383333Y-77390476D01*
X201954761Y-78247619D02*
X202002380Y-78152380D01*
X202002380Y-77961904D01*
X201954761Y-77866666D01*
X201859523Y-77819047D01*
X201478571Y-77819047D01*
X201383333Y-77866666D01*
X201335714Y-77961904D01*
X201335714Y-78152380D01*
X201383333Y-78247619D01*
X201478571Y-78295238D01*
X201573809Y-78295238D01*
X201669047Y-77819047D01*
X202002380Y-78723809D02*
X201335714Y-78723809D01*
X201526190Y-78723809D02*
X201430952Y-78771428D01*
X201383333Y-78819047D01*
X201335714Y-78914285D01*
X201335714Y-79009523D01*
X202652380Y-73533333D02*
X203652380Y-73866666D01*
X202652380Y-74200000D01*
X203652380Y-74676190D02*
X203604761Y-74580952D01*
X203557142Y-74533333D01*
X203461904Y-74485714D01*
X203176190Y-74485714D01*
X203080952Y-74533333D01*
X203033333Y-74580952D01*
X202985714Y-74676190D01*
X202985714Y-74819047D01*
X203033333Y-74914285D01*
X203080952Y-74961904D01*
X203176190Y-75009523D01*
X203461904Y-75009523D01*
X203557142Y-74961904D01*
X203604761Y-74914285D01*
X203652380Y-74819047D01*
X203652380Y-74676190D01*
X203652380Y-75580952D02*
X203604761Y-75485714D01*
X203509523Y-75438095D01*
X202652380Y-75438095D01*
X202985714Y-75819047D02*
X202985714Y-76200000D01*
X202652380Y-75961904D02*
X203509523Y-75961904D01*
X203604761Y-76009523D01*
X203652380Y-76104761D01*
X203652380Y-76200000D01*
X203652380Y-76961904D02*
X203128571Y-76961904D01*
X203033333Y-76914285D01*
X202985714Y-76819047D01*
X202985714Y-76628571D01*
X203033333Y-76533333D01*
X203604761Y-76961904D02*
X203652380Y-76866666D01*
X203652380Y-76628571D01*
X203604761Y-76533333D01*
X203509523Y-76485714D01*
X203414285Y-76485714D01*
X203319047Y-76533333D01*
X203271428Y-76628571D01*
X203271428Y-76866666D01*
X203223809Y-76961904D01*
X202985714Y-77866666D02*
X203795238Y-77866666D01*
X203890476Y-77819047D01*
X203938095Y-77771428D01*
X203985714Y-77676190D01*
X203985714Y-77533333D01*
X203938095Y-77438095D01*
X203604761Y-77866666D02*
X203652380Y-77771428D01*
X203652380Y-77580952D01*
X203604761Y-77485714D01*
X203557142Y-77438095D01*
X203461904Y-77390476D01*
X203176190Y-77390476D01*
X203080952Y-77438095D01*
X203033333Y-77485714D01*
X202985714Y-77580952D01*
X202985714Y-77771428D01*
X203033333Y-77866666D01*
X203604761Y-78723809D02*
X203652380Y-78628571D01*
X203652380Y-78438095D01*
X203604761Y-78342857D01*
X203509523Y-78295238D01*
X203128571Y-78295238D01*
X203033333Y-78342857D01*
X202985714Y-78438095D01*
X202985714Y-78628571D01*
X203033333Y-78723809D01*
X203128571Y-78771428D01*
X203223809Y-78771428D01*
X203319047Y-78295238D01*
X205016666Y-72295238D02*
X205016666Y-72771428D01*
X205302380Y-72200000D02*
X204302380Y-72533333D01*
X205302380Y-72866666D01*
X205302380Y-73628571D02*
X204302380Y-73628571D01*
X205254761Y-73628571D02*
X205302380Y-73533333D01*
X205302380Y-73342857D01*
X205254761Y-73247619D01*
X205207142Y-73200000D01*
X205111904Y-73152380D01*
X204826190Y-73152380D01*
X204730952Y-73200000D01*
X204683333Y-73247619D01*
X204635714Y-73342857D01*
X204635714Y-73533333D01*
X204683333Y-73628571D01*
X204635714Y-74104761D02*
X205492857Y-74104761D01*
X205588095Y-74057142D01*
X205635714Y-73961904D01*
X205635714Y-73914285D01*
X204302380Y-74104761D02*
X204350000Y-74057142D01*
X204397619Y-74104761D01*
X204350000Y-74152380D01*
X204302380Y-74104761D01*
X204397619Y-74104761D01*
X204635714Y-75009523D02*
X205302380Y-75009523D01*
X204635714Y-74580952D02*
X205159523Y-74580952D01*
X205254761Y-74628571D01*
X205302380Y-74723809D01*
X205302380Y-74866666D01*
X205254761Y-74961904D01*
X205207142Y-75009523D01*
X205254761Y-75438095D02*
X205302380Y-75533333D01*
X205302380Y-75723809D01*
X205254761Y-75819047D01*
X205159523Y-75866666D01*
X205111904Y-75866666D01*
X205016666Y-75819047D01*
X204969047Y-75723809D01*
X204969047Y-75580952D01*
X204921428Y-75485714D01*
X204826190Y-75438095D01*
X204778571Y-75438095D01*
X204683333Y-75485714D01*
X204635714Y-75580952D01*
X204635714Y-75723809D01*
X204683333Y-75819047D01*
X204635714Y-76152380D02*
X204635714Y-76533333D01*
X204302380Y-76295238D02*
X205159523Y-76295238D01*
X205254761Y-76342857D01*
X205302380Y-76438095D01*
X205302380Y-76533333D01*
X205302380Y-76866666D02*
X204635714Y-76866666D01*
X204730952Y-76866666D02*
X204683333Y-76914285D01*
X204635714Y-77009523D01*
X204635714Y-77152380D01*
X204683333Y-77247619D01*
X204778571Y-77295238D01*
X205302380Y-77295238D01*
X204778571Y-77295238D02*
X204683333Y-77342857D01*
X204635714Y-77438095D01*
X204635714Y-77580952D01*
X204683333Y-77676190D01*
X204778571Y-77723809D01*
X205302380Y-77723809D01*
X205254761Y-78580952D02*
X205302380Y-78485714D01*
X205302380Y-78295238D01*
X205254761Y-78200000D01*
X205159523Y-78152380D01*
X204778571Y-78152380D01*
X204683333Y-78200000D01*
X204635714Y-78295238D01*
X204635714Y-78485714D01*
X204683333Y-78580952D01*
X204778571Y-78628571D01*
X204873809Y-78628571D01*
X204969047Y-78152380D01*
X204635714Y-79057142D02*
X205302380Y-79057142D01*
X204730952Y-79057142D02*
X204683333Y-79104761D01*
X204635714Y-79200000D01*
X204635714Y-79342857D01*
X204683333Y-79438095D01*
X204778571Y-79485714D01*
X205302380Y-79485714D01*
X204635714Y-79819047D02*
X204635714Y-80200000D01*
X204302380Y-79961904D02*
X205159523Y-79961904D01*
X205254761Y-80009523D01*
X205302380Y-80104761D01*
X205302380Y-80200000D01*
X154701190Y-92527380D02*
X154701190Y-91527380D01*
X154367857Y-92241666D01*
X154034523Y-91527380D01*
X154034523Y-92527380D01*
X153605952Y-92241666D02*
X153129761Y-92241666D01*
X153701190Y-92527380D02*
X153367857Y-91527380D01*
X153034523Y-92527380D01*
X152701190Y-92527380D02*
X152701190Y-91527380D01*
X152320238Y-91527380D02*
X151653571Y-92527380D01*
X151653571Y-91527380D02*
X152320238Y-92527380D01*
X150939285Y-92003571D02*
X150796428Y-92051190D01*
X150748809Y-92098809D01*
X150701190Y-92194047D01*
X150701190Y-92336904D01*
X150748809Y-92432142D01*
X150796428Y-92479761D01*
X150891666Y-92527380D01*
X151272619Y-92527380D01*
X151272619Y-91527380D01*
X150939285Y-91527380D01*
X150844047Y-91575000D01*
X150796428Y-91622619D01*
X150748809Y-91717857D01*
X150748809Y-91813095D01*
X150796428Y-91908333D01*
X150844047Y-91955952D01*
X150939285Y-92003571D01*
X151272619Y-92003571D01*
X150272619Y-92527380D02*
X150272619Y-91860714D01*
X150272619Y-91527380D02*
X150320238Y-91575000D01*
X150272619Y-91622619D01*
X150225000Y-91575000D01*
X150272619Y-91527380D01*
X150272619Y-91622619D01*
X149939285Y-91860714D02*
X149558333Y-91860714D01*
X149796428Y-91527380D02*
X149796428Y-92384523D01*
X149748809Y-92479761D01*
X149653571Y-92527380D01*
X149558333Y-92527380D01*
X148463095Y-92527380D02*
X148463095Y-91527380D01*
X148463095Y-92003571D02*
X147891666Y-92003571D01*
X147891666Y-92527380D02*
X147891666Y-91527380D01*
X147034523Y-92479761D02*
X147129761Y-92527380D01*
X147320238Y-92527380D01*
X147415476Y-92479761D01*
X147463095Y-92384523D01*
X147463095Y-92003571D01*
X147415476Y-91908333D01*
X147320238Y-91860714D01*
X147129761Y-91860714D01*
X147034523Y-91908333D01*
X146986904Y-92003571D01*
X146986904Y-92098809D01*
X147463095Y-92194047D01*
X146129761Y-92527380D02*
X146129761Y-92003571D01*
X146177380Y-91908333D01*
X146272619Y-91860714D01*
X146463095Y-91860714D01*
X146558333Y-91908333D01*
X146129761Y-92479761D02*
X146225000Y-92527380D01*
X146463095Y-92527380D01*
X146558333Y-92479761D01*
X146605952Y-92384523D01*
X146605952Y-92289285D01*
X146558333Y-92194047D01*
X146463095Y-92146428D01*
X146225000Y-92146428D01*
X146129761Y-92098809D01*
X145225000Y-92527380D02*
X145225000Y-91527380D01*
X145225000Y-92479761D02*
X145320238Y-92527380D01*
X145510714Y-92527380D01*
X145605952Y-92479761D01*
X145653571Y-92432142D01*
X145701190Y-92336904D01*
X145701190Y-92051190D01*
X145653571Y-91955952D01*
X145605952Y-91908333D01*
X145510714Y-91860714D01*
X145320238Y-91860714D01*
X145225000Y-91908333D01*
X144367857Y-92479761D02*
X144463095Y-92527380D01*
X144653571Y-92527380D01*
X144748809Y-92479761D01*
X144796428Y-92384523D01*
X144796428Y-92003571D01*
X144748809Y-91908333D01*
X144653571Y-91860714D01*
X144463095Y-91860714D01*
X144367857Y-91908333D01*
X144320238Y-92003571D01*
X144320238Y-92098809D01*
X144796428Y-92194047D01*
X143891666Y-92527380D02*
X143891666Y-91860714D01*
X143891666Y-92051190D02*
X143844047Y-91955952D01*
X143796428Y-91908333D01*
X143701190Y-91860714D01*
X143605952Y-91860714D01*
X160821428Y-115308571D02*
X160678571Y-115356190D01*
X160630952Y-115403809D01*
X160583333Y-115499047D01*
X160583333Y-115641904D01*
X160630952Y-115737142D01*
X160678571Y-115784761D01*
X160773809Y-115832380D01*
X161154761Y-115832380D01*
X161154761Y-114832380D01*
X160821428Y-114832380D01*
X160726190Y-114880000D01*
X160678571Y-114927619D01*
X160630952Y-115022857D01*
X160630952Y-115118095D01*
X160678571Y-115213333D01*
X160726190Y-115260952D01*
X160821428Y-115308571D01*
X161154761Y-115308571D01*
X159726190Y-115832380D02*
X159726190Y-115308571D01*
X159773809Y-115213333D01*
X159869047Y-115165714D01*
X160059523Y-115165714D01*
X160154761Y-115213333D01*
X159726190Y-115784761D02*
X159821428Y-115832380D01*
X160059523Y-115832380D01*
X160154761Y-115784761D01*
X160202380Y-115689523D01*
X160202380Y-115594285D01*
X160154761Y-115499047D01*
X160059523Y-115451428D01*
X159821428Y-115451428D01*
X159726190Y-115403809D01*
X159392857Y-115165714D02*
X159011904Y-115165714D01*
X159250000Y-114832380D02*
X159250000Y-115689523D01*
X159202380Y-115784761D01*
X159107142Y-115832380D01*
X159011904Y-115832380D01*
X158821428Y-115165714D02*
X158440476Y-115165714D01*
X158678571Y-114832380D02*
X158678571Y-115689523D01*
X158630952Y-115784761D01*
X158535714Y-115832380D01*
X158440476Y-115832380D01*
X157726190Y-115784761D02*
X157821428Y-115832380D01*
X158011904Y-115832380D01*
X158107142Y-115784761D01*
X158154761Y-115689523D01*
X158154761Y-115308571D01*
X158107142Y-115213333D01*
X158011904Y-115165714D01*
X157821428Y-115165714D01*
X157726190Y-115213333D01*
X157678571Y-115308571D01*
X157678571Y-115403809D01*
X158154761Y-115499047D01*
X157250000Y-115832380D02*
X157250000Y-115165714D01*
X157250000Y-115356190D02*
X157202380Y-115260952D01*
X157154761Y-115213333D01*
X157059523Y-115165714D01*
X156964285Y-115165714D01*
X156726190Y-115165714D02*
X156488095Y-115832380D01*
X156250000Y-115165714D02*
X156488095Y-115832380D01*
X156583333Y-116070476D01*
X156630952Y-116118095D01*
X156726190Y-116165714D01*
X160869047Y-116958571D02*
X160726190Y-117006190D01*
X160678571Y-117053809D01*
X160630952Y-117149047D01*
X160630952Y-117291904D01*
X160678571Y-117387142D01*
X160726190Y-117434761D01*
X160821428Y-117482380D01*
X161202380Y-117482380D01*
X161202380Y-116482380D01*
X160869047Y-116482380D01*
X160773809Y-116530000D01*
X160726190Y-116577619D01*
X160678571Y-116672857D01*
X160678571Y-116768095D01*
X160726190Y-116863333D01*
X160773809Y-116910952D01*
X160869047Y-116958571D01*
X161202380Y-116958571D01*
X159773809Y-117482380D02*
X159773809Y-116958571D01*
X159821428Y-116863333D01*
X159916666Y-116815714D01*
X160107142Y-116815714D01*
X160202380Y-116863333D01*
X159773809Y-117434761D02*
X159869047Y-117482380D01*
X160107142Y-117482380D01*
X160202380Y-117434761D01*
X160250000Y-117339523D01*
X160250000Y-117244285D01*
X160202380Y-117149047D01*
X160107142Y-117101428D01*
X159869047Y-117101428D01*
X159773809Y-117053809D01*
X158869047Y-117434761D02*
X158964285Y-117482380D01*
X159154761Y-117482380D01*
X159250000Y-117434761D01*
X159297619Y-117387142D01*
X159345238Y-117291904D01*
X159345238Y-117006190D01*
X159297619Y-116910952D01*
X159250000Y-116863333D01*
X159154761Y-116815714D01*
X158964285Y-116815714D01*
X158869047Y-116863333D01*
X158440476Y-117482380D02*
X158440476Y-116482380D01*
X158345238Y-117101428D02*
X158059523Y-117482380D01*
X158059523Y-116815714D02*
X158440476Y-117196666D01*
X157202380Y-116815714D02*
X157202380Y-117482380D01*
X157630952Y-116815714D02*
X157630952Y-117339523D01*
X157583333Y-117434761D01*
X157488095Y-117482380D01*
X157345238Y-117482380D01*
X157250000Y-117434761D01*
X157202380Y-117387142D01*
X156726190Y-116815714D02*
X156726190Y-117815714D01*
X156726190Y-116863333D02*
X156630952Y-116815714D01*
X156440476Y-116815714D01*
X156345238Y-116863333D01*
X156297619Y-116910952D01*
X156250000Y-117006190D01*
X156250000Y-117291904D01*
X156297619Y-117387142D01*
X156345238Y-117434761D01*
X156440476Y-117482380D01*
X156630952Y-117482380D01*
X156726190Y-117434761D01*
X203580952Y-48966428D02*
X202819047Y-48966428D01*
X203200000Y-49347380D02*
X203200000Y-48585476D01*
X175194523Y-46529523D02*
X174908809Y-46624761D01*
X174432619Y-46624761D01*
X174242142Y-46529523D01*
X174146904Y-46434285D01*
X174051666Y-46243809D01*
X174051666Y-46053333D01*
X174146904Y-45862857D01*
X174242142Y-45767619D01*
X174432619Y-45672380D01*
X174813571Y-45577142D01*
X175004047Y-45481904D01*
X175099285Y-45386666D01*
X175194523Y-45196190D01*
X175194523Y-45005714D01*
X175099285Y-44815238D01*
X175004047Y-44720000D01*
X174813571Y-44624761D01*
X174337380Y-44624761D01*
X174051666Y-44720000D01*
X173194523Y-46624761D02*
X173194523Y-44624761D01*
X172337380Y-46624761D02*
X172337380Y-45577142D01*
X172432619Y-45386666D01*
X172623095Y-45291428D01*
X172908809Y-45291428D01*
X173099285Y-45386666D01*
X173194523Y-45481904D01*
X170527857Y-46624761D02*
X170527857Y-45577142D01*
X170623095Y-45386666D01*
X170813571Y-45291428D01*
X171194523Y-45291428D01*
X171385000Y-45386666D01*
X170527857Y-46529523D02*
X170718333Y-46624761D01*
X171194523Y-46624761D01*
X171385000Y-46529523D01*
X171480238Y-46339047D01*
X171480238Y-46148571D01*
X171385000Y-45958095D01*
X171194523Y-45862857D01*
X170718333Y-45862857D01*
X170527857Y-45767619D01*
X168718333Y-45291428D02*
X168718333Y-46624761D01*
X169575476Y-45291428D02*
X169575476Y-46339047D01*
X169480238Y-46529523D01*
X169289761Y-46624761D01*
X169004047Y-46624761D01*
X168813571Y-46529523D01*
X168718333Y-46434285D01*
X167765952Y-45291428D02*
X167765952Y-46624761D01*
X167765952Y-45481904D02*
X167670714Y-45386666D01*
X167480238Y-45291428D01*
X167194523Y-45291428D01*
X167004047Y-45386666D01*
X166908809Y-45577142D01*
X166908809Y-46624761D01*
X164432619Y-46624761D02*
X164432619Y-44624761D01*
X163670714Y-44624761D01*
X163480238Y-44720000D01*
X163385000Y-44815238D01*
X163289761Y-45005714D01*
X163289761Y-45291428D01*
X163385000Y-45481904D01*
X163480238Y-45577142D01*
X163670714Y-45672380D01*
X164432619Y-45672380D01*
X162432619Y-46624761D02*
X162432619Y-45291428D01*
X162432619Y-45672380D02*
X162337380Y-45481904D01*
X162242142Y-45386666D01*
X162051666Y-45291428D01*
X161861190Y-45291428D01*
X161194523Y-46624761D02*
X161194523Y-45291428D01*
X161194523Y-44624761D02*
X161289761Y-44720000D01*
X161194523Y-44815238D01*
X161099285Y-44720000D01*
X161194523Y-44624761D01*
X161194523Y-44815238D01*
X159385000Y-46529523D02*
X159575476Y-46624761D01*
X159956428Y-46624761D01*
X160146904Y-46529523D01*
X160242142Y-46434285D01*
X160337380Y-46243809D01*
X160337380Y-45672380D01*
X160242142Y-45481904D01*
X160146904Y-45386666D01*
X159956428Y-45291428D01*
X159575476Y-45291428D01*
X159385000Y-45386666D01*
X157765952Y-46529523D02*
X157956428Y-46624761D01*
X158337380Y-46624761D01*
X158527857Y-46529523D01*
X158623095Y-46339047D01*
X158623095Y-45577142D01*
X158527857Y-45386666D01*
X158337380Y-45291428D01*
X157956428Y-45291428D01*
X157765952Y-45386666D01*
X157670714Y-45577142D01*
X157670714Y-45767619D01*
X158623095Y-45958095D01*
X153670714Y-45100952D02*
X153861190Y-45005714D01*
X154242142Y-45005714D01*
X154432619Y-45100952D01*
X154623095Y-45291428D01*
X154718333Y-45481904D01*
X154718333Y-45862857D01*
X154623095Y-46053333D01*
X154432619Y-46243809D01*
X154242142Y-46339047D01*
X153861190Y-46339047D01*
X153670714Y-46243809D01*
X154051666Y-44339047D02*
X154527857Y-44434285D01*
X155004047Y-44720000D01*
X155289761Y-45196190D01*
X155385000Y-45672380D01*
X155289761Y-46148571D01*
X155004047Y-46624761D01*
X154527857Y-46910476D01*
X154051666Y-47005714D01*
X153575476Y-46910476D01*
X153099285Y-46624761D01*
X152813571Y-46148571D01*
X152718333Y-45672380D01*
X152813571Y-45196190D01*
X153099285Y-44720000D01*
X153575476Y-44434285D01*
X154051666Y-44339047D01*
X150432619Y-44815238D02*
X150337380Y-44720000D01*
X150146904Y-44624761D01*
X149670714Y-44624761D01*
X149480238Y-44720000D01*
X149385000Y-44815238D01*
X149289761Y-45005714D01*
X149289761Y-45196190D01*
X149385000Y-45481904D01*
X150527857Y-46624761D01*
X149289761Y-46624761D01*
X148051666Y-44624761D02*
X147861190Y-44624761D01*
X147670714Y-44720000D01*
X147575476Y-44815238D01*
X147480238Y-45005714D01*
X147385000Y-45386666D01*
X147385000Y-45862857D01*
X147480238Y-46243809D01*
X147575476Y-46434285D01*
X147670714Y-46529523D01*
X147861190Y-46624761D01*
X148051666Y-46624761D01*
X148242142Y-46529523D01*
X148337380Y-46434285D01*
X148432619Y-46243809D01*
X148527857Y-45862857D01*
X148527857Y-45386666D01*
X148432619Y-45005714D01*
X148337380Y-44815238D01*
X148242142Y-44720000D01*
X148051666Y-44624761D01*
X145480238Y-46624761D02*
X146623095Y-46624761D01*
X146051666Y-46624761D02*
X146051666Y-44624761D01*
X146242142Y-44910476D01*
X146432619Y-45100952D01*
X146623095Y-45196190D01*
X144527857Y-46624761D02*
X144146904Y-46624761D01*
X143956428Y-46529523D01*
X143861190Y-46434285D01*
X143670714Y-46148571D01*
X143575476Y-45767619D01*
X143575476Y-45005714D01*
X143670714Y-44815238D01*
X143765952Y-44720000D01*
X143956428Y-44624761D01*
X144337380Y-44624761D01*
X144527857Y-44720000D01*
X144623095Y-44815238D01*
X144718333Y-45005714D01*
X144718333Y-45481904D01*
X144623095Y-45672380D01*
X144527857Y-45767619D01*
X144337380Y-45862857D01*
X143956428Y-45862857D01*
X143765952Y-45767619D01*
X143670714Y-45672380D01*
X143575476Y-45481904D01*
D10*
X168591428Y-36687142D02*
X169258095Y-36687142D01*
X169258095Y-37734761D02*
X169258095Y-35734761D01*
X168305714Y-35734761D01*
X167258095Y-37734761D02*
X167448571Y-37639523D01*
X167543809Y-37544285D01*
X167639047Y-37353809D01*
X167639047Y-36782380D01*
X167543809Y-36591904D01*
X167448571Y-36496666D01*
X167258095Y-36401428D01*
X166972380Y-36401428D01*
X166781904Y-36496666D01*
X166686666Y-36591904D01*
X166591428Y-36782380D01*
X166591428Y-37353809D01*
X166686666Y-37544285D01*
X166781904Y-37639523D01*
X166972380Y-37734761D01*
X167258095Y-37734761D01*
X165924761Y-37734761D02*
X164877142Y-36401428D01*
X165924761Y-36401428D02*
X164877142Y-37734761D01*
X162972380Y-37544285D02*
X163067619Y-37639523D01*
X163353333Y-37734761D01*
X163543809Y-37734761D01*
X163829523Y-37639523D01*
X164020000Y-37449047D01*
X164115238Y-37258571D01*
X164210476Y-36877619D01*
X164210476Y-36591904D01*
X164115238Y-36210952D01*
X164020000Y-36020476D01*
X163829523Y-35830000D01*
X163543809Y-35734761D01*
X163353333Y-35734761D01*
X163067619Y-35830000D01*
X162972380Y-35925238D01*
X161258095Y-37734761D02*
X161258095Y-36687142D01*
X161353333Y-36496666D01*
X161543809Y-36401428D01*
X161924761Y-36401428D01*
X162115238Y-36496666D01*
X161258095Y-37639523D02*
X161448571Y-37734761D01*
X161924761Y-37734761D01*
X162115238Y-37639523D01*
X162210476Y-37449047D01*
X162210476Y-37258571D01*
X162115238Y-37068095D01*
X161924761Y-36972857D01*
X161448571Y-36972857D01*
X161258095Y-36877619D01*
X160305714Y-37734761D02*
X160305714Y-36401428D01*
X160305714Y-36591904D02*
X160210476Y-36496666D01*
X160020000Y-36401428D01*
X159734285Y-36401428D01*
X159543809Y-36496666D01*
X159448571Y-36687142D01*
X159448571Y-37734761D01*
X159448571Y-36687142D02*
X159353333Y-36496666D01*
X159162857Y-36401428D01*
X158877142Y-36401428D01*
X158686666Y-36496666D01*
X158591428Y-36687142D01*
X158591428Y-37734761D01*
X156305714Y-36401428D02*
X155829523Y-37734761D01*
X155353333Y-36401428D01*
X153543809Y-37734761D02*
X154686666Y-37734761D01*
X154115238Y-37734761D02*
X154115238Y-35734761D01*
X154305714Y-36020476D01*
X154496190Y-36210952D01*
X154686666Y-36306190D01*
X152686666Y-37544285D02*
X152591428Y-37639523D01*
X152686666Y-37734761D01*
X152781904Y-37639523D01*
X152686666Y-37544285D01*
X152686666Y-37734761D01*
X151353333Y-35734761D02*
X151162857Y-35734761D01*
X150972380Y-35830000D01*
X150877142Y-35925238D01*
X150781904Y-36115714D01*
X150686666Y-36496666D01*
X150686666Y-36972857D01*
X150781904Y-37353809D01*
X150877142Y-37544285D01*
X150972380Y-37639523D01*
X151162857Y-37734761D01*
X151353333Y-37734761D01*
X151543809Y-37639523D01*
X151639047Y-37544285D01*
X151734285Y-37353809D01*
X151829523Y-36972857D01*
X151829523Y-36496666D01*
X151734285Y-36115714D01*
X151639047Y-35925238D01*
X151543809Y-35830000D01*
X151353333Y-35734761D01*
D11*
X139572619Y-85177380D02*
X138953571Y-85177380D01*
X139286904Y-85558333D01*
X139144047Y-85558333D01*
X139048809Y-85605952D01*
X139001190Y-85653571D01*
X138953571Y-85748809D01*
X138953571Y-85986904D01*
X139001190Y-86082142D01*
X139048809Y-86129761D01*
X139144047Y-86177380D01*
X139429761Y-86177380D01*
X139525000Y-86129761D01*
X139572619Y-86082142D01*
X138620238Y-85177380D02*
X138382142Y-86177380D01*
X138191666Y-85463095D01*
X138001190Y-86177380D01*
X137763095Y-85177380D01*
X136144047Y-86177380D02*
X136620238Y-86177380D01*
X136620238Y-85177380D01*
X135810714Y-85653571D02*
X135477380Y-85653571D01*
X135334523Y-86177380D02*
X135810714Y-86177380D01*
X135810714Y-85177380D01*
X135334523Y-85177380D01*
X134905952Y-86177380D02*
X134905952Y-85177380D01*
X134667857Y-85177380D01*
X134525000Y-85225000D01*
X134429761Y-85320238D01*
X134382142Y-85415476D01*
X134334523Y-85605952D01*
X134334523Y-85748809D01*
X134382142Y-85939285D01*
X134429761Y-86034523D01*
X134525000Y-86129761D01*
X134667857Y-86177380D01*
X134905952Y-86177380D01*
X133953571Y-86129761D02*
X133858333Y-86177380D01*
X133667857Y-86177380D01*
X133572619Y-86129761D01*
X133525000Y-86034523D01*
X133525000Y-85986904D01*
X133572619Y-85891666D01*
X133667857Y-85844047D01*
X133810714Y-85844047D01*
X133905952Y-85796428D01*
X133953571Y-85701190D01*
X133953571Y-85653571D01*
X133905952Y-85558333D01*
X133810714Y-85510714D01*
X133667857Y-85510714D01*
X133572619Y-85558333D01*
X177934047Y-95972380D02*
X177934047Y-96781904D01*
X177886428Y-96877142D01*
X177838809Y-96924761D01*
X177743571Y-96972380D01*
X177553095Y-96972380D01*
X177457857Y-96924761D01*
X177410238Y-96877142D01*
X177362619Y-96781904D01*
X177362619Y-95972380D01*
X176934047Y-96924761D02*
X176791190Y-96972380D01*
X176553095Y-96972380D01*
X176457857Y-96924761D01*
X176410238Y-96877142D01*
X176362619Y-96781904D01*
X176362619Y-96686666D01*
X176410238Y-96591428D01*
X176457857Y-96543809D01*
X176553095Y-96496190D01*
X176743571Y-96448571D01*
X176838809Y-96400952D01*
X176886428Y-96353333D01*
X176934047Y-96258095D01*
X176934047Y-96162857D01*
X176886428Y-96067619D01*
X176838809Y-96020000D01*
X176743571Y-95972380D01*
X176505476Y-95972380D01*
X176362619Y-96020000D01*
X175600714Y-96448571D02*
X175457857Y-96496190D01*
X175410238Y-96543809D01*
X175362619Y-96639047D01*
X175362619Y-96781904D01*
X175410238Y-96877142D01*
X175457857Y-96924761D01*
X175553095Y-96972380D01*
X175934047Y-96972380D01*
X175934047Y-95972380D01*
X175600714Y-95972380D01*
X175505476Y-96020000D01*
X175457857Y-96067619D01*
X175410238Y-96162857D01*
X175410238Y-96258095D01*
X175457857Y-96353333D01*
X175505476Y-96400952D01*
X175600714Y-96448571D01*
X175934047Y-96448571D01*
X174172142Y-96972380D02*
X174172142Y-95972380D01*
X173791190Y-95972380D01*
X173695952Y-96020000D01*
X173648333Y-96067619D01*
X173600714Y-96162857D01*
X173600714Y-96305714D01*
X173648333Y-96400952D01*
X173695952Y-96448571D01*
X173791190Y-96496190D01*
X174172142Y-96496190D01*
X173267380Y-95972380D02*
X173029285Y-96972380D01*
X172838809Y-96258095D01*
X172648333Y-96972380D01*
X172410238Y-95972380D01*
X171457857Y-96972380D02*
X171791190Y-96496190D01*
X172029285Y-96972380D02*
X172029285Y-95972380D01*
X171648333Y-95972380D01*
X171553095Y-96020000D01*
X171505476Y-96067619D01*
X171457857Y-96162857D01*
X171457857Y-96305714D01*
X171505476Y-96400952D01*
X171553095Y-96448571D01*
X171648333Y-96496190D01*
X172029285Y-96496190D01*
X169981666Y-97353333D02*
X170029285Y-97305714D01*
X170124523Y-97162857D01*
X170172142Y-97067619D01*
X170219761Y-96924761D01*
X170267380Y-96686666D01*
X170267380Y-96496190D01*
X170219761Y-96258095D01*
X170172142Y-96115238D01*
X170124523Y-96020000D01*
X170029285Y-95877142D01*
X169981666Y-95829523D01*
X169029285Y-96972380D02*
X169362619Y-96496190D01*
X169600714Y-96972380D02*
X169600714Y-95972380D01*
X169219761Y-95972380D01*
X169124523Y-96020000D01*
X169076904Y-96067619D01*
X169029285Y-96162857D01*
X169029285Y-96305714D01*
X169076904Y-96400952D01*
X169124523Y-96448571D01*
X169219761Y-96496190D01*
X169600714Y-96496190D01*
X168219761Y-96924761D02*
X168315000Y-96972380D01*
X168505476Y-96972380D01*
X168600714Y-96924761D01*
X168648333Y-96829523D01*
X168648333Y-96448571D01*
X168600714Y-96353333D01*
X168505476Y-96305714D01*
X168315000Y-96305714D01*
X168219761Y-96353333D01*
X168172142Y-96448571D01*
X168172142Y-96543809D01*
X168648333Y-96639047D01*
X167743571Y-96972380D02*
X167743571Y-96305714D01*
X167743571Y-96400952D02*
X167695952Y-96353333D01*
X167600714Y-96305714D01*
X167457857Y-96305714D01*
X167362619Y-96353333D01*
X167315000Y-96448571D01*
X167315000Y-96972380D01*
X167315000Y-96448571D02*
X167267380Y-96353333D01*
X167172142Y-96305714D01*
X167029285Y-96305714D01*
X166934047Y-96353333D01*
X166886428Y-96448571D01*
X166886428Y-96972380D01*
X166267380Y-96972380D02*
X166362619Y-96924761D01*
X166410238Y-96877142D01*
X166457857Y-96781904D01*
X166457857Y-96496190D01*
X166410238Y-96400952D01*
X166362619Y-96353333D01*
X166267380Y-96305714D01*
X166124523Y-96305714D01*
X166029285Y-96353333D01*
X165981666Y-96400952D01*
X165934047Y-96496190D01*
X165934047Y-96781904D01*
X165981666Y-96877142D01*
X166029285Y-96924761D01*
X166124523Y-96972380D01*
X166267380Y-96972380D01*
X165600714Y-96305714D02*
X165362619Y-96972380D01*
X165124523Y-96305714D01*
X164362619Y-96924761D02*
X164457857Y-96972380D01*
X164648333Y-96972380D01*
X164743571Y-96924761D01*
X164791190Y-96829523D01*
X164791190Y-96448571D01*
X164743571Y-96353333D01*
X164648333Y-96305714D01*
X164457857Y-96305714D01*
X164362619Y-96353333D01*
X164315000Y-96448571D01*
X164315000Y-96543809D01*
X164791190Y-96639047D01*
X163981666Y-97353333D02*
X163934047Y-97305714D01*
X163838809Y-97162857D01*
X163791190Y-97067619D01*
X163743571Y-96924761D01*
X163695952Y-96686666D01*
X163695952Y-96496190D01*
X163743571Y-96258095D01*
X163791190Y-96115238D01*
X163838809Y-96020000D01*
X163934047Y-95877142D01*
X163981666Y-95829523D01*
X154407857Y-96972380D02*
X154884047Y-96972380D01*
X154884047Y-95972380D01*
X153503095Y-96877142D02*
X153550714Y-96924761D01*
X153693571Y-96972380D01*
X153788809Y-96972380D01*
X153931666Y-96924761D01*
X154026904Y-96829523D01*
X154074523Y-96734285D01*
X154122142Y-96543809D01*
X154122142Y-96400952D01*
X154074523Y-96210476D01*
X154026904Y-96115238D01*
X153931666Y-96020000D01*
X153788809Y-95972380D01*
X153693571Y-95972380D01*
X153550714Y-96020000D01*
X153503095Y-96067619D01*
X153074523Y-96972380D02*
X153074523Y-95972380D01*
X152836428Y-95972380D01*
X152693571Y-96020000D01*
X152598333Y-96115238D01*
X152550714Y-96210476D01*
X152503095Y-96400952D01*
X152503095Y-96543809D01*
X152550714Y-96734285D01*
X152598333Y-96829523D01*
X152693571Y-96924761D01*
X152836428Y-96972380D01*
X153074523Y-96972380D01*
X151312619Y-96972380D02*
X151312619Y-95972380D01*
X150931666Y-95972380D01*
X150836428Y-96020000D01*
X150788809Y-96067619D01*
X150741190Y-96162857D01*
X150741190Y-96305714D01*
X150788809Y-96400952D01*
X150836428Y-96448571D01*
X150931666Y-96496190D01*
X151312619Y-96496190D01*
X150407857Y-95972380D02*
X150169761Y-96972380D01*
X149979285Y-96258095D01*
X149788809Y-96972380D01*
X149550714Y-95972380D01*
X148598333Y-96972380D02*
X148931666Y-96496190D01*
X149169761Y-96972380D02*
X149169761Y-95972380D01*
X148788809Y-95972380D01*
X148693571Y-96020000D01*
X148645952Y-96067619D01*
X148598333Y-96162857D01*
X148598333Y-96305714D01*
X148645952Y-96400952D01*
X148693571Y-96448571D01*
X148788809Y-96496190D01*
X149169761Y-96496190D01*
X189285476Y-96972380D02*
X189761666Y-96972380D01*
X189761666Y-95972380D01*
X188952142Y-96972380D02*
X188952142Y-95972380D01*
X188714047Y-95972380D01*
X188571190Y-96020000D01*
X188475952Y-96115238D01*
X188428333Y-96210476D01*
X188380714Y-96400952D01*
X188380714Y-96543809D01*
X188428333Y-96734285D01*
X188475952Y-96829523D01*
X188571190Y-96924761D01*
X188714047Y-96972380D01*
X188952142Y-96972380D01*
X187380714Y-96972380D02*
X187714047Y-96496190D01*
X187952142Y-96972380D02*
X187952142Y-95972380D01*
X187571190Y-95972380D01*
X187475952Y-96020000D01*
X187428333Y-96067619D01*
X187380714Y-96162857D01*
X187380714Y-96305714D01*
X187428333Y-96400952D01*
X187475952Y-96448571D01*
X187571190Y-96496190D01*
X187952142Y-96496190D01*
X204541428Y-94234047D02*
X204541428Y-94995952D01*
X204755714Y-92479761D02*
X204612857Y-92527380D01*
X204374761Y-92527380D01*
X204279523Y-92479761D01*
X204231904Y-92432142D01*
X204184285Y-92336904D01*
X204184285Y-92241666D01*
X204231904Y-92146428D01*
X204279523Y-92098809D01*
X204374761Y-92051190D01*
X204565238Y-92003571D01*
X204660476Y-91955952D01*
X204708095Y-91908333D01*
X204755714Y-91813095D01*
X204755714Y-91717857D01*
X204708095Y-91622619D01*
X204660476Y-91575000D01*
X204565238Y-91527380D01*
X204327142Y-91527380D01*
X204184285Y-91575000D01*
X204850952Y-89606428D02*
X204089047Y-89606428D01*
X204470000Y-89987380D02*
X204470000Y-89225476D01*
X200477380Y-88670238D02*
X199477380Y-88670238D01*
X200477380Y-89717857D02*
X200001190Y-89384523D01*
X200477380Y-89146428D02*
X199477380Y-89146428D01*
X199477380Y-89527380D01*
X199525000Y-89622619D01*
X199572619Y-89670238D01*
X199667857Y-89717857D01*
X199810714Y-89717857D01*
X199905952Y-89670238D01*
X199953571Y-89622619D01*
X200001190Y-89527380D01*
X200001190Y-89146428D01*
X200429761Y-90860714D02*
X200477380Y-91003571D01*
X200477380Y-91241666D01*
X200429761Y-91336904D01*
X200382142Y-91384523D01*
X200286904Y-91432142D01*
X200191666Y-91432142D01*
X200096428Y-91384523D01*
X200048809Y-91336904D01*
X200001190Y-91241666D01*
X199953571Y-91051190D01*
X199905952Y-90955952D01*
X199858333Y-90908333D01*
X199763095Y-90860714D01*
X199667857Y-90860714D01*
X199572619Y-90908333D01*
X199525000Y-90955952D01*
X199477380Y-91051190D01*
X199477380Y-91289285D01*
X199525000Y-91432142D01*
X200429761Y-92241666D02*
X200477380Y-92146428D01*
X200477380Y-91955952D01*
X200429761Y-91860714D01*
X200334523Y-91813095D01*
X199953571Y-91813095D01*
X199858333Y-91860714D01*
X199810714Y-91955952D01*
X199810714Y-92146428D01*
X199858333Y-92241666D01*
X199953571Y-92289285D01*
X200048809Y-92289285D01*
X200144047Y-91813095D01*
X199810714Y-92717857D02*
X200477380Y-92717857D01*
X199905952Y-92717857D02*
X199858333Y-92765476D01*
X199810714Y-92860714D01*
X199810714Y-93003571D01*
X199858333Y-93098809D01*
X199953571Y-93146428D01*
X200477380Y-93146428D01*
X200429761Y-93575000D02*
X200477380Y-93670238D01*
X200477380Y-93860714D01*
X200429761Y-93955952D01*
X200334523Y-94003571D01*
X200286904Y-94003571D01*
X200191666Y-93955952D01*
X200144047Y-93860714D01*
X200144047Y-93717857D01*
X200096428Y-93622619D01*
X200001190Y-93575000D01*
X199953571Y-93575000D01*
X199858333Y-93622619D01*
X199810714Y-93717857D01*
X199810714Y-93860714D01*
X199858333Y-93955952D01*
X200477380Y-94575000D02*
X200429761Y-94479761D01*
X200382142Y-94432142D01*
X200286904Y-94384523D01*
X200001190Y-94384523D01*
X199905952Y-94432142D01*
X199858333Y-94479761D01*
X199810714Y-94575000D01*
X199810714Y-94717857D01*
X199858333Y-94813095D01*
X199905952Y-94860714D01*
X200001190Y-94908333D01*
X200286904Y-94908333D01*
X200382142Y-94860714D01*
X200429761Y-94813095D01*
X200477380Y-94717857D01*
X200477380Y-94575000D01*
X200477380Y-95336904D02*
X199810714Y-95336904D01*
X200001190Y-95336904D02*
X199905952Y-95384523D01*
X199858333Y-95432142D01*
X199810714Y-95527380D01*
X199810714Y-95622619D01*
X202382380Y-105188095D02*
X201382380Y-105188095D01*
X201382380Y-105569047D01*
X201430000Y-105664285D01*
X201477619Y-105711904D01*
X201572857Y-105759523D01*
X201715714Y-105759523D01*
X201810952Y-105711904D01*
X201858571Y-105664285D01*
X201906190Y-105569047D01*
X201906190Y-105188095D01*
X201382380Y-106092857D02*
X202382380Y-106330952D01*
X201668095Y-106521428D01*
X202382380Y-106711904D01*
X201382380Y-106950000D01*
X202382380Y-107902380D02*
X201906190Y-107569047D01*
X202382380Y-107330952D02*
X201382380Y-107330952D01*
X201382380Y-107711904D01*
X201430000Y-107807142D01*
X201477619Y-107854761D01*
X201572857Y-107902380D01*
X201715714Y-107902380D01*
X201810952Y-107854761D01*
X201858571Y-107807142D01*
X201906190Y-107711904D01*
X201906190Y-107330952D01*
X201382380Y-109283333D02*
X201382380Y-109473809D01*
X201430000Y-109569047D01*
X201525238Y-109664285D01*
X201715714Y-109711904D01*
X202049047Y-109711904D01*
X202239523Y-109664285D01*
X202334761Y-109569047D01*
X202382380Y-109473809D01*
X202382380Y-109283333D01*
X202334761Y-109188095D01*
X202239523Y-109092857D01*
X202049047Y-109045238D01*
X201715714Y-109045238D01*
X201525238Y-109092857D01*
X201430000Y-109188095D01*
X201382380Y-109283333D01*
X202382380Y-110140476D02*
X201382380Y-110140476D01*
X202382380Y-110711904D01*
X201382380Y-110711904D01*
X203580952Y-69921428D02*
X202819047Y-69921428D01*
X203200000Y-70302380D02*
X203200000Y-69540476D01*
X203271428Y-61849047D02*
X203271428Y-62610952D01*
X203604761Y-63897142D02*
X203652380Y-64040000D01*
X203652380Y-64278095D01*
X203604761Y-64373333D01*
X203557142Y-64420952D01*
X203461904Y-64468571D01*
X203366666Y-64468571D01*
X203271428Y-64420952D01*
X203223809Y-64373333D01*
X203176190Y-64278095D01*
X203128571Y-64087619D01*
X203080952Y-63992380D01*
X203033333Y-63944761D01*
X202938095Y-63897142D01*
X202842857Y-63897142D01*
X202747619Y-63944761D01*
X202700000Y-63992380D01*
X202652380Y-64087619D01*
X202652380Y-64325714D01*
X202700000Y-64468571D01*
X202652380Y-65087619D02*
X202652380Y-65278095D01*
X202700000Y-65373333D01*
X202795238Y-65468571D01*
X202985714Y-65516190D01*
X203319047Y-65516190D01*
X203509523Y-65468571D01*
X203604761Y-65373333D01*
X203652380Y-65278095D01*
X203652380Y-65087619D01*
X203604761Y-64992380D01*
X203509523Y-64897142D01*
X203319047Y-64849523D01*
X202985714Y-64849523D01*
X202795238Y-64897142D01*
X202700000Y-64992380D01*
X202652380Y-65087619D01*
X203652380Y-66420952D02*
X203652380Y-65944761D01*
X202652380Y-65944761D01*
X203366666Y-66706666D02*
X203366666Y-67182857D01*
X203652380Y-66611428D02*
X202652380Y-66944761D01*
X203652380Y-67278095D01*
X203652380Y-68182857D02*
X203176190Y-67849523D01*
X203652380Y-67611428D02*
X202652380Y-67611428D01*
X202652380Y-67992380D01*
X202700000Y-68087619D01*
X202747619Y-68135238D01*
X202842857Y-68182857D01*
X202985714Y-68182857D01*
X203080952Y-68135238D01*
X203128571Y-68087619D01*
X203176190Y-67992380D01*
X203176190Y-67611428D01*
X164210952Y22788571D02*
X163449047Y22788571D01*
X163830000Y22407619D02*
X163830000Y23169523D01*
X203128571Y-50840000D02*
X203176190Y-50982857D01*
X203223809Y-51030476D01*
X203319047Y-51078095D01*
X203461904Y-51078095D01*
X203557142Y-51030476D01*
X203604761Y-50982857D01*
X203652380Y-50887619D01*
X203652380Y-50506666D01*
X202652380Y-50506666D01*
X202652380Y-50840000D01*
X202700000Y-50935238D01*
X202747619Y-50982857D01*
X202842857Y-51030476D01*
X202938095Y-51030476D01*
X203033333Y-50982857D01*
X203080952Y-50935238D01*
X203128571Y-50840000D01*
X203128571Y-50506666D01*
X203366666Y-51459047D02*
X203366666Y-51935238D01*
X203652380Y-51363809D02*
X202652380Y-51697142D01*
X203652380Y-52030476D01*
X202652380Y-52220952D02*
X202652380Y-52792380D01*
X203652380Y-52506666D02*
X202652380Y-52506666D01*
X202652380Y-52982857D02*
X202652380Y-53554285D01*
X203652380Y-53268571D02*
X202652380Y-53268571D01*
X203128571Y-53887619D02*
X203128571Y-54220952D01*
X203652380Y-54363809D02*
X203652380Y-53887619D01*
X202652380Y-53887619D01*
X202652380Y-54363809D01*
X203652380Y-55363809D02*
X203176190Y-55030476D01*
X203652380Y-54792380D02*
X202652380Y-54792380D01*
X202652380Y-55173333D01*
X202700000Y-55268571D01*
X202747619Y-55316190D01*
X202842857Y-55363809D01*
X202985714Y-55363809D01*
X203080952Y-55316190D01*
X203128571Y-55268571D01*
X203176190Y-55173333D01*
X203176190Y-54792380D01*
X203176190Y-55982857D02*
X203652380Y-55982857D01*
X202652380Y-55649523D02*
X203176190Y-55982857D01*
X202652380Y-56316190D01*
X203271428Y-57404047D02*
X203271428Y-58165952D01*
X203271428Y-44704047D02*
X203271428Y-45465952D01*
X203580952Y-37536428D02*
X202819047Y-37536428D01*
X203200000Y-37917380D02*
X203200000Y-37155476D01*
X203604761Y-39275000D02*
X203652380Y-39417857D01*
X203652380Y-39655952D01*
X203604761Y-39751190D01*
X203557142Y-39798809D01*
X203461904Y-39846428D01*
X203366666Y-39846428D01*
X203271428Y-39798809D01*
X203223809Y-39751190D01*
X203176190Y-39655952D01*
X203128571Y-39465476D01*
X203080952Y-39370238D01*
X203033333Y-39322619D01*
X202938095Y-39275000D01*
X202842857Y-39275000D01*
X202747619Y-39322619D01*
X202700000Y-39370238D01*
X202652380Y-39465476D01*
X202652380Y-39703571D01*
X202700000Y-39846428D01*
X203652380Y-40275000D02*
X202652380Y-40275000D01*
X203652380Y-41322619D02*
X203176190Y-40989285D01*
X203652380Y-40751190D02*
X202652380Y-40751190D01*
X202652380Y-41132142D01*
X202700000Y-41227380D01*
X202747619Y-41275000D01*
X202842857Y-41322619D01*
X202985714Y-41322619D01*
X203080952Y-41275000D01*
X203128571Y-41227380D01*
X203176190Y-41132142D01*
X203176190Y-40751190D01*
X203128571Y-41751190D02*
X203128571Y-42084523D01*
X203652380Y-42227380D02*
X203652380Y-41751190D01*
X202652380Y-41751190D01*
X202652380Y-42227380D01*
X203652380Y-42655952D02*
X202652380Y-42655952D01*
X203652380Y-43227380D01*
X202652380Y-43227380D01*
X182601666Y-112561666D02*
X182125476Y-112561666D01*
X182696904Y-112847380D02*
X182363571Y-111847380D01*
X182030238Y-112847380D01*
X181839761Y-111847380D02*
X181268333Y-111847380D01*
X181554047Y-112847380D02*
X181554047Y-111847380D01*
X181077857Y-111847380D02*
X180506428Y-111847380D01*
X180792142Y-112847380D02*
X180792142Y-111847380D01*
X180173095Y-112847380D02*
X180173095Y-112180714D01*
X180173095Y-111847380D02*
X180220714Y-111895000D01*
X180173095Y-111942619D01*
X180125476Y-111895000D01*
X180173095Y-111847380D01*
X180173095Y-111942619D01*
X179696904Y-112180714D02*
X179696904Y-112847380D01*
X179696904Y-112275952D02*
X179649285Y-112228333D01*
X179554047Y-112180714D01*
X179411190Y-112180714D01*
X179315952Y-112228333D01*
X179268333Y-112323571D01*
X179268333Y-112847380D01*
X178887380Y-112180714D02*
X178649285Y-112847380D01*
X178411190Y-112180714D02*
X178649285Y-112847380D01*
X178744523Y-113085476D01*
X178792142Y-113133095D01*
X178887380Y-113180714D01*
X177268333Y-112847380D02*
X177268333Y-111847380D01*
X176887380Y-111847380D01*
X176792142Y-111895000D01*
X176744523Y-111942619D01*
X176696904Y-112037857D01*
X176696904Y-112180714D01*
X176744523Y-112275952D01*
X176792142Y-112323571D01*
X176887380Y-112371190D01*
X177268333Y-112371190D01*
X176268333Y-112847380D02*
X176268333Y-112180714D01*
X176268333Y-112371190D02*
X176220714Y-112275952D01*
X176173095Y-112228333D01*
X176077857Y-112180714D01*
X175982619Y-112180714D01*
X175506428Y-112847380D02*
X175601666Y-112799761D01*
X175649285Y-112752142D01*
X175696904Y-112656904D01*
X175696904Y-112371190D01*
X175649285Y-112275952D01*
X175601666Y-112228333D01*
X175506428Y-112180714D01*
X175363571Y-112180714D01*
X175268333Y-112228333D01*
X175220714Y-112275952D01*
X175173095Y-112371190D01*
X175173095Y-112656904D01*
X175220714Y-112752142D01*
X175268333Y-112799761D01*
X175363571Y-112847380D01*
X175506428Y-112847380D01*
X174315952Y-112180714D02*
X174315952Y-112990238D01*
X174363571Y-113085476D01*
X174411190Y-113133095D01*
X174506428Y-113180714D01*
X174649285Y-113180714D01*
X174744523Y-113133095D01*
X174315952Y-112799761D02*
X174411190Y-112847380D01*
X174601666Y-112847380D01*
X174696904Y-112799761D01*
X174744523Y-112752142D01*
X174792142Y-112656904D01*
X174792142Y-112371190D01*
X174744523Y-112275952D01*
X174696904Y-112228333D01*
X174601666Y-112180714D01*
X174411190Y-112180714D01*
X174315952Y-112228333D01*
D12*
X178510000Y-56730000D02*
X187250000Y-56730000D01*
X178510000Y-56730000D02*
X178510000Y-52490000D01*
X187250000Y-52490000D02*
X187250000Y-56730000D01*
X187250000Y-52490000D02*
X178510000Y-52490000D01*
X172660000Y-115630000D02*
X172660000Y-112970000D01*
X182880000Y-115630000D02*
X172660000Y-115630000D01*
X182880000Y-112970000D02*
X172660000Y-112970000D01*
X182880000Y-115630000D02*
X182880000Y-112970000D01*
X184150000Y-115630000D02*
X185480000Y-115630000D01*
X185480000Y-115630000D02*
X185480000Y-114300000D01*
D11*
X178435000Y-108331000D02*
X183515000Y-108331000D01*
X183515000Y-108331000D02*
X183515000Y-103759000D01*
X183515000Y-103759000D02*
X178435000Y-103759000D01*
X178435000Y-103759000D02*
X178435000Y-108331000D01*
X178435000Y-106807000D02*
X178943000Y-106807000D01*
X178943000Y-106807000D02*
X178943000Y-105537000D01*
X178943000Y-105537000D02*
X178435000Y-105537000D01*
D12*
X176575000Y-110355000D02*
X176575000Y-109355000D01*
X175215000Y-109355000D02*
X175215000Y-110355000D01*
X186100000Y-109085000D02*
X186100000Y-108085000D01*
X184740000Y-108085000D02*
X184740000Y-109085000D01*
X174670000Y-110355000D02*
X174670000Y-109355000D01*
X173310000Y-109355000D02*
X173310000Y-110355000D01*
X184740000Y-103640000D02*
X184740000Y-104640000D01*
X186100000Y-104640000D02*
X186100000Y-103640000D01*
X184740000Y-99025000D02*
X184740000Y-100025000D01*
X186100000Y-100025000D02*
X186100000Y-99025000D01*
X156065000Y-112925000D02*
X156065000Y-108225000D01*
X156065000Y-108225000D02*
X162165000Y-108225000D01*
X162165000Y-108225000D02*
X162165000Y-112925000D01*
X162165000Y-112925000D02*
X156065000Y-112925000D01*
X158615000Y-112925000D02*
X158615000Y-112325000D01*
X158615000Y-112325000D02*
X156665000Y-112325000D01*
X156665000Y-112325000D02*
X156665000Y-108825000D01*
X156665000Y-108825000D02*
X161565000Y-108825000D01*
X161565000Y-108825000D02*
X161565000Y-112325000D01*
X161565000Y-112325000D02*
X159615000Y-112325000D01*
X159615000Y-112325000D02*
X159615000Y-112925000D01*
X156065000Y-111625000D02*
X156665000Y-111625000D01*
X156065000Y-110325000D02*
X156665000Y-110325000D01*
X162165000Y-111625000D02*
X161565000Y-111625000D01*
X162165000Y-110325000D02*
X161565000Y-110325000D01*
X157815000Y-112925000D02*
X157815000Y-113125000D01*
X157815000Y-113125000D02*
X157515000Y-113125000D01*
X157515000Y-113125000D02*
X157515000Y-112925000D01*
X157815000Y-113025000D02*
X157515000Y-113025000D01*
X159015000Y-108825000D02*
X159015000Y-109325000D01*
X159015000Y-109325000D02*
X159215000Y-109325000D01*
X159215000Y-109325000D02*
X159215000Y-108825000D01*
X159115000Y-108825000D02*
X159115000Y-109325000D01*
X157015000Y-113225000D02*
X155765000Y-113225000D01*
X155765000Y-113225000D02*
X155765000Y-111975000D01*
X162210000Y-107280000D02*
X162910000Y-107280000D01*
X162910000Y-106080000D02*
X162210000Y-106080000D01*
X177835000Y-98075000D02*
X177835000Y-98775000D01*
X179035000Y-98775000D02*
X179035000Y-98075000D01*
X153625000Y-106815000D02*
X153625000Y-107815000D01*
X154985000Y-107815000D02*
X154985000Y-106815000D01*
X153625000Y-102370000D02*
X153625000Y-103370000D01*
X154985000Y-103370000D02*
X154985000Y-102370000D01*
D11*
X162095000Y-100295000D02*
X162095000Y-100345000D01*
X157945000Y-100295000D02*
X157945000Y-100440000D01*
X157945000Y-105445000D02*
X157945000Y-105300000D01*
X162095000Y-105445000D02*
X162095000Y-105300000D01*
X162095000Y-100295000D02*
X157945000Y-100295000D01*
X162095000Y-105445000D02*
X157945000Y-105445000D01*
X162095000Y-100345000D02*
X163495000Y-100345000D01*
D12*
X193715000Y-100365000D02*
X191095000Y-100365000D01*
X191095000Y-100365000D02*
X191095000Y-93945000D01*
X191095000Y-93945000D02*
X193715000Y-93945000D01*
X193715000Y-93945000D02*
X193715000Y-100365000D01*
X192405000Y-101255000D02*
X192405000Y-100365000D01*
X192405000Y-93055000D02*
X192405000Y-93945000D01*
X187285000Y-109185000D02*
X189905000Y-109185000D01*
X189905000Y-109185000D02*
X189905000Y-115605000D01*
X189905000Y-115605000D02*
X187285000Y-115605000D01*
X187285000Y-115605000D02*
X187285000Y-109185000D01*
X188595000Y-108295000D02*
X188595000Y-109185000D01*
X188595000Y-116495000D02*
X188595000Y-115605000D01*
X145450000Y-105370000D02*
X145450000Y-107990000D01*
X145450000Y-107990000D02*
X139030000Y-107990000D01*
X139030000Y-107990000D02*
X139030000Y-105370000D01*
X139030000Y-105370000D02*
X145450000Y-105370000D01*
X146340000Y-106680000D02*
X145450000Y-106680000D01*
X138140000Y-106680000D02*
X139030000Y-106680000D01*
X139030000Y-113070000D02*
X139030000Y-110450000D01*
X139030000Y-110450000D02*
X145450000Y-110450000D01*
X145450000Y-110450000D02*
X145450000Y-113070000D01*
X145450000Y-113070000D02*
X139030000Y-113070000D01*
X138140000Y-111760000D02*
X139030000Y-111760000D01*
X146340000Y-111760000D02*
X145450000Y-111760000D01*
X149185000Y-104740000D02*
X151805000Y-104740000D01*
X151805000Y-104740000D02*
X151805000Y-111160000D01*
X151805000Y-111160000D02*
X149185000Y-111160000D01*
X149185000Y-111160000D02*
X149185000Y-104740000D01*
X150495000Y-103850000D02*
X150495000Y-104740000D01*
X150495000Y-112050000D02*
X150495000Y-111160000D01*
X135890000Y-88205000D02*
X163890000Y-88205000D01*
X163890000Y-88205000D02*
X163890000Y-90865000D01*
X163890000Y-90865000D02*
X135890000Y-90865000D01*
X135890000Y-90865000D02*
X135890000Y-88205000D01*
X134620000Y-88205000D02*
X133290000Y-88205000D01*
X133290000Y-88205000D02*
X133290000Y-89535000D01*
X189455000Y-98425000D02*
G75*
G03X189455000Y-98425000I-860000J0D01*
G01*
X188595000Y-99285000D02*
X188595000Y-99965000D01*
X169485000Y-99755000D02*
X169485000Y-97095000D01*
X172085000Y-99755000D02*
X169485000Y-99755000D01*
X172085000Y-97095000D02*
X169485000Y-97095000D01*
X172085000Y-99755000D02*
X172085000Y-97095000D01*
X173355000Y-99755000D02*
X174685000Y-99755000D01*
X174685000Y-99755000D02*
X174685000Y-98425000D01*
X154365000Y-97730000D02*
X154365000Y-100390000D01*
X151765000Y-97730000D02*
X154365000Y-97730000D01*
X151765000Y-100390000D02*
X154365000Y-100390000D01*
X151765000Y-97730000D02*
X151765000Y-100390000D01*
X150495000Y-97730000D02*
X149165000Y-97730000D01*
X149165000Y-97730000D02*
X149165000Y-99060000D01*
X205800000Y-110550000D02*
X203140000Y-110550000D01*
X205800000Y-107950000D02*
X205800000Y-110550000D01*
X203140000Y-107950000D02*
X203140000Y-110550000D01*
X205800000Y-107950000D02*
X203140000Y-107950000D01*
X205800000Y-106680000D02*
X205800000Y-105350000D01*
X205800000Y-105350000D02*
X204470000Y-105350000D01*
X198120000Y-71120000D02*
X198120000Y-60960000D01*
X199390000Y-71120000D02*
X191770000Y-71120000D01*
X191770000Y-71120000D02*
X191770000Y-60960000D01*
X191770000Y-60960000D02*
X199390000Y-60960000D01*
X199390000Y-60960000D02*
X199390000Y-71120000D01*
X198120000Y-58420000D02*
X198120000Y-48260000D01*
X199390000Y-58420000D02*
X191770000Y-58420000D01*
X191770000Y-58420000D02*
X191770000Y-48260000D01*
X191770000Y-48260000D02*
X199390000Y-48260000D01*
X199390000Y-48260000D02*
X199390000Y-58420000D01*
X198120000Y-45720000D02*
X198120000Y-35560000D01*
X199390000Y-45720000D02*
X191770000Y-45720000D01*
X191770000Y-45720000D02*
X191770000Y-35560000D01*
X191770000Y-35560000D02*
X199390000Y-35560000D01*
X199390000Y-35560000D02*
X199390000Y-45720000D01*
X192509433Y-76470034D02*
G75*
G03X193445000Y-77585000I935567J-164966D01*
G01*
X193428944Y-77583737D02*
G75*
G03X193919000Y-75813000I16056J948737D01*
G01*
X198995000Y-73345000D02*
X192165000Y-73345000D01*
X198995000Y-77965000D02*
X192165000Y-77965000D01*
X198995000Y-73345000D02*
X198995000Y-75100000D01*
X198995000Y-76031000D02*
X198995000Y-77965000D01*
X192165000Y-73345000D02*
X192165000Y-75100000D01*
X192165000Y-76031000D02*
X192165000Y-77965000D01*
X193175000Y-76481000D02*
X194049000Y-77356000D01*
X193410000Y-76485000D02*
X194165000Y-77240000D01*
X193555000Y-111900000D02*
X193555000Y-109080000D01*
X193555000Y-109080000D02*
X198875000Y-109080000D01*
X198875000Y-109080000D02*
X198875000Y-111900000D01*
X198875000Y-111900000D02*
X193555000Y-111900000D01*
X193485000Y-110490000D02*
X193555000Y-110490000D01*
X198945000Y-110490000D02*
X198875000Y-110490000D01*
X194395000Y-111900000D02*
X194395000Y-109080000D01*
X193555000Y-106820000D02*
X193555000Y-104000000D01*
X193555000Y-104000000D02*
X198875000Y-104000000D01*
X198875000Y-104000000D02*
X198875000Y-106820000D01*
X198875000Y-106820000D02*
X193555000Y-106820000D01*
X193485000Y-105410000D02*
X193555000Y-105410000D01*
X198945000Y-105410000D02*
X198875000Y-105410000D01*
X194395000Y-106820000D02*
X194395000Y-104000000D01*
X197928608Y-88497665D02*
G75*
G02X198085516Y-91730000I-1078608J-1672335D01*
G01*
X195771392Y-88497665D02*
G75*
G03X195614484Y-91730000I1078608J-1672335D01*
G01*
X197929837Y-89128870D02*
G75*
G02X197930000Y-91210961I-1079837J-1041130D01*
G01*
X195770163Y-89128870D02*
G75*
G03X195770000Y-91210961I1079837J-1041130D01*
G01*
X198086000Y-91730000D02*
X197930000Y-91730000D01*
X195770000Y-91730000D02*
X195614000Y-91730000D01*
X167894278Y-82005277D02*
G75*
G02X172505580Y-82005000I2305722J-1179723D01*
G01*
X167894278Y-84364723D02*
G75*
G03X172505580Y-84365000I2305722J1179723D01*
G01*
X167894278Y-84364723D02*
G75*
G02X167894420Y-82005000I2305722J1179723D01*
G01*
X170200000Y-80635000D02*
X170200000Y-85735000D01*
X170160000Y-80635000D02*
X170160000Y-85735000D01*
X170120000Y-80636000D02*
X170120000Y-85734000D01*
X170080000Y-80637000D02*
X170080000Y-85733000D01*
X170040000Y-80639000D02*
X170040000Y-85731000D01*
X170000000Y-80642000D02*
X170000000Y-85728000D01*
X169960000Y-80646000D02*
X169960000Y-85724000D01*
X169920000Y-80650000D02*
X169920000Y-82205000D01*
X169920000Y-84165000D02*
X169920000Y-85720000D01*
X169880000Y-80654000D02*
X169880000Y-82205000D01*
X169880000Y-84165000D02*
X169880000Y-85716000D01*
X169840000Y-80660000D02*
X169840000Y-82205000D01*
X169840000Y-84165000D02*
X169840000Y-85710000D01*
X169800000Y-80666000D02*
X169800000Y-82205000D01*
X169800000Y-84165000D02*
X169800000Y-85704000D01*
X169760000Y-80672000D02*
X169760000Y-82205000D01*
X169760000Y-84165000D02*
X169760000Y-85698000D01*
X169720000Y-80679000D02*
X169720000Y-82205000D01*
X169720000Y-84165000D02*
X169720000Y-85691000D01*
X169680000Y-80687000D02*
X169680000Y-82205000D01*
X169680000Y-84165000D02*
X169680000Y-85683000D01*
X169640000Y-80696000D02*
X169640000Y-82205000D01*
X169640000Y-84165000D02*
X169640000Y-85674000D01*
X169600000Y-80705000D02*
X169600000Y-82205000D01*
X169600000Y-84165000D02*
X169600000Y-85665000D01*
X169560000Y-80715000D02*
X169560000Y-82205000D01*
X169560000Y-84165000D02*
X169560000Y-85655000D01*
X169520000Y-80725000D02*
X169520000Y-82205000D01*
X169520000Y-84165000D02*
X169520000Y-85645000D01*
X169479000Y-80737000D02*
X169479000Y-82205000D01*
X169479000Y-84165000D02*
X169479000Y-85633000D01*
X169439000Y-80749000D02*
X169439000Y-82205000D01*
X169439000Y-84165000D02*
X169439000Y-85621000D01*
X169399000Y-80761000D02*
X169399000Y-82205000D01*
X169399000Y-84165000D02*
X169399000Y-85609000D01*
X169359000Y-80775000D02*
X169359000Y-82205000D01*
X169359000Y-84165000D02*
X169359000Y-85595000D01*
X169319000Y-80789000D02*
X169319000Y-82205000D01*
X169319000Y-84165000D02*
X169319000Y-85581000D01*
X169279000Y-80803000D02*
X169279000Y-82205000D01*
X169279000Y-84165000D02*
X169279000Y-85567000D01*
X169239000Y-80819000D02*
X169239000Y-82205000D01*
X169239000Y-84165000D02*
X169239000Y-85551000D01*
X169199000Y-80835000D02*
X169199000Y-82205000D01*
X169199000Y-84165000D02*
X169199000Y-85535000D01*
X169159000Y-80852000D02*
X169159000Y-82205000D01*
X169159000Y-84165000D02*
X169159000Y-85518000D01*
X169119000Y-80870000D02*
X169119000Y-82205000D01*
X169119000Y-84165000D02*
X169119000Y-85500000D01*
X169079000Y-80889000D02*
X169079000Y-82205000D01*
X169079000Y-84165000D02*
X169079000Y-85481000D01*
X169039000Y-80909000D02*
X169039000Y-82205000D01*
X169039000Y-84165000D02*
X169039000Y-85461000D01*
X168999000Y-80929000D02*
X168999000Y-82205000D01*
X168999000Y-84165000D02*
X168999000Y-85441000D01*
X168959000Y-80951000D02*
X168959000Y-82205000D01*
X168959000Y-84165000D02*
X168959000Y-85419000D01*
X168919000Y-80973000D02*
X168919000Y-82205000D01*
X168919000Y-84165000D02*
X168919000Y-85397000D01*
X168879000Y-80996000D02*
X168879000Y-82205000D01*
X168879000Y-84165000D02*
X168879000Y-85374000D01*
X168839000Y-81020000D02*
X168839000Y-82205000D01*
X168839000Y-84165000D02*
X168839000Y-85350000D01*
X168799000Y-81045000D02*
X168799000Y-82205000D01*
X168799000Y-84165000D02*
X168799000Y-85325000D01*
X168759000Y-81072000D02*
X168759000Y-82205000D01*
X168759000Y-84165000D02*
X168759000Y-85298000D01*
X168719000Y-81099000D02*
X168719000Y-82205000D01*
X168719000Y-84165000D02*
X168719000Y-85271000D01*
X168679000Y-81127000D02*
X168679000Y-82205000D01*
X168679000Y-84165000D02*
X168679000Y-85243000D01*
X168639000Y-81157000D02*
X168639000Y-82205000D01*
X168639000Y-84165000D02*
X168639000Y-85213000D01*
X168599000Y-81188000D02*
X168599000Y-82205000D01*
X168599000Y-84165000D02*
X168599000Y-85182000D01*
X168559000Y-81220000D02*
X168559000Y-82205000D01*
X168559000Y-84165000D02*
X168559000Y-85150000D01*
X168519000Y-81253000D02*
X168519000Y-82205000D01*
X168519000Y-84165000D02*
X168519000Y-85117000D01*
X168479000Y-81288000D02*
X168479000Y-82205000D01*
X168479000Y-84165000D02*
X168479000Y-85082000D01*
X168439000Y-81324000D02*
X168439000Y-82205000D01*
X168439000Y-84165000D02*
X168439000Y-85046000D01*
X168399000Y-81362000D02*
X168399000Y-82205000D01*
X168399000Y-84165000D02*
X168399000Y-85008000D01*
X168359000Y-81402000D02*
X168359000Y-82205000D01*
X168359000Y-84165000D02*
X168359000Y-84968000D01*
X168319000Y-81443000D02*
X168319000Y-82205000D01*
X168319000Y-84165000D02*
X168319000Y-84927000D01*
X168279000Y-81486000D02*
X168279000Y-82205000D01*
X168279000Y-84165000D02*
X168279000Y-84884000D01*
X168239000Y-81531000D02*
X168239000Y-82205000D01*
X168239000Y-84165000D02*
X168239000Y-84839000D01*
X168199000Y-81579000D02*
X168199000Y-82205000D01*
X168199000Y-84165000D02*
X168199000Y-84791000D01*
X168159000Y-81629000D02*
X168159000Y-82205000D01*
X168159000Y-84165000D02*
X168159000Y-84741000D01*
X168119000Y-81681000D02*
X168119000Y-82205000D01*
X168119000Y-84165000D02*
X168119000Y-84689000D01*
X168079000Y-81737000D02*
X168079000Y-82205000D01*
X168079000Y-84165000D02*
X168079000Y-84633000D01*
X168039000Y-81795000D02*
X168039000Y-82205000D01*
X168039000Y-84165000D02*
X168039000Y-84575000D01*
X167999000Y-81858000D02*
X167999000Y-82205000D01*
X167999000Y-84165000D02*
X167999000Y-84512000D01*
X167959000Y-81924000D02*
X167959000Y-84446000D01*
X167919000Y-81996000D02*
X167919000Y-84374000D01*
X167879000Y-82073000D02*
X167879000Y-84297000D01*
X167839000Y-82157000D02*
X167839000Y-84213000D01*
X167799000Y-82251000D02*
X167799000Y-84119000D01*
X167759000Y-82356000D02*
X167759000Y-84014000D01*
X167719000Y-82478000D02*
X167719000Y-83892000D01*
X167679000Y-82626000D02*
X167679000Y-83744000D01*
X167639000Y-82831000D02*
X167639000Y-83539000D01*
X173650000Y-83185000D02*
X172450000Y-83185000D01*
X173050000Y-82535000D02*
X173050000Y-83835000D01*
X124840722Y-80554723D02*
G75*
G02X120229420Y-80555000I-2305722J1179723D01*
G01*
X124840722Y-78195277D02*
G75*
G03X120229420Y-78195000I-2305722J-1179723D01*
G01*
X124840722Y-78195277D02*
G75*
G02X124840580Y-80555000I-2305722J-1179723D01*
G01*
X122535000Y-81925000D02*
X122535000Y-76825000D01*
X122575000Y-81925000D02*
X122575000Y-76825000D01*
X122615000Y-81924000D02*
X122615000Y-76826000D01*
X122655000Y-81923000D02*
X122655000Y-76827000D01*
X122695000Y-81921000D02*
X122695000Y-76829000D01*
X122735000Y-81918000D02*
X122735000Y-76832000D01*
X122775000Y-81914000D02*
X122775000Y-76836000D01*
X122815000Y-81910000D02*
X122815000Y-80355000D01*
X122815000Y-78395000D02*
X122815000Y-76840000D01*
X122855000Y-81906000D02*
X122855000Y-80355000D01*
X122855000Y-78395000D02*
X122855000Y-76844000D01*
X122895000Y-81900000D02*
X122895000Y-80355000D01*
X122895000Y-78395000D02*
X122895000Y-76850000D01*
X122935000Y-81894000D02*
X122935000Y-80355000D01*
X122935000Y-78395000D02*
X122935000Y-76856000D01*
X122975000Y-81888000D02*
X122975000Y-80355000D01*
X122975000Y-78395000D02*
X122975000Y-76862000D01*
X123015000Y-81881000D02*
X123015000Y-80355000D01*
X123015000Y-78395000D02*
X123015000Y-76869000D01*
X123055000Y-81873000D02*
X123055000Y-80355000D01*
X123055000Y-78395000D02*
X123055000Y-76877000D01*
X123095000Y-81864000D02*
X123095000Y-80355000D01*
X123095000Y-78395000D02*
X123095000Y-76886000D01*
X123135000Y-81855000D02*
X123135000Y-80355000D01*
X123135000Y-78395000D02*
X123135000Y-76895000D01*
X123175000Y-81845000D02*
X123175000Y-80355000D01*
X123175000Y-78395000D02*
X123175000Y-76905000D01*
X123215000Y-81835000D02*
X123215000Y-80355000D01*
X123215000Y-78395000D02*
X123215000Y-76915000D01*
X123256000Y-81823000D02*
X123256000Y-80355000D01*
X123256000Y-78395000D02*
X123256000Y-76927000D01*
X123296000Y-81811000D02*
X123296000Y-80355000D01*
X123296000Y-78395000D02*
X123296000Y-76939000D01*
X123336000Y-81799000D02*
X123336000Y-80355000D01*
X123336000Y-78395000D02*
X123336000Y-76951000D01*
X123376000Y-81785000D02*
X123376000Y-80355000D01*
X123376000Y-78395000D02*
X123376000Y-76965000D01*
X123416000Y-81771000D02*
X123416000Y-80355000D01*
X123416000Y-78395000D02*
X123416000Y-76979000D01*
X123456000Y-81757000D02*
X123456000Y-80355000D01*
X123456000Y-78395000D02*
X123456000Y-76993000D01*
X123496000Y-81741000D02*
X123496000Y-80355000D01*
X123496000Y-78395000D02*
X123496000Y-77009000D01*
X123536000Y-81725000D02*
X123536000Y-80355000D01*
X123536000Y-78395000D02*
X123536000Y-77025000D01*
X123576000Y-81708000D02*
X123576000Y-80355000D01*
X123576000Y-78395000D02*
X123576000Y-77042000D01*
X123616000Y-81690000D02*
X123616000Y-80355000D01*
X123616000Y-78395000D02*
X123616000Y-77060000D01*
X123656000Y-81671000D02*
X123656000Y-80355000D01*
X123656000Y-78395000D02*
X123656000Y-77079000D01*
X123696000Y-81651000D02*
X123696000Y-80355000D01*
X123696000Y-78395000D02*
X123696000Y-77099000D01*
X123736000Y-81631000D02*
X123736000Y-80355000D01*
X123736000Y-78395000D02*
X123736000Y-77119000D01*
X123776000Y-81609000D02*
X123776000Y-80355000D01*
X123776000Y-78395000D02*
X123776000Y-77141000D01*
X123816000Y-81587000D02*
X123816000Y-80355000D01*
X123816000Y-78395000D02*
X123816000Y-77163000D01*
X123856000Y-81564000D02*
X123856000Y-80355000D01*
X123856000Y-78395000D02*
X123856000Y-77186000D01*
X123896000Y-81540000D02*
X123896000Y-80355000D01*
X123896000Y-78395000D02*
X123896000Y-77210000D01*
X123936000Y-81515000D02*
X123936000Y-80355000D01*
X123936000Y-78395000D02*
X123936000Y-77235000D01*
X123976000Y-81488000D02*
X123976000Y-80355000D01*
X123976000Y-78395000D02*
X123976000Y-77262000D01*
X124016000Y-81461000D02*
X124016000Y-80355000D01*
X124016000Y-78395000D02*
X124016000Y-77289000D01*
X124056000Y-81433000D02*
X124056000Y-80355000D01*
X124056000Y-78395000D02*
X124056000Y-77317000D01*
X124096000Y-81403000D02*
X124096000Y-80355000D01*
X124096000Y-78395000D02*
X124096000Y-77347000D01*
X124136000Y-81372000D02*
X124136000Y-80355000D01*
X124136000Y-78395000D02*
X124136000Y-77378000D01*
X124176000Y-81340000D02*
X124176000Y-80355000D01*
X124176000Y-78395000D02*
X124176000Y-77410000D01*
X124216000Y-81307000D02*
X124216000Y-80355000D01*
X124216000Y-78395000D02*
X124216000Y-77443000D01*
X124256000Y-81272000D02*
X124256000Y-80355000D01*
X124256000Y-78395000D02*
X124256000Y-77478000D01*
X124296000Y-81236000D02*
X124296000Y-80355000D01*
X124296000Y-78395000D02*
X124296000Y-77514000D01*
X124336000Y-81198000D02*
X124336000Y-80355000D01*
X124336000Y-78395000D02*
X124336000Y-77552000D01*
X124376000Y-81158000D02*
X124376000Y-80355000D01*
X124376000Y-78395000D02*
X124376000Y-77592000D01*
X124416000Y-81117000D02*
X124416000Y-80355000D01*
X124416000Y-78395000D02*
X124416000Y-77633000D01*
X124456000Y-81074000D02*
X124456000Y-80355000D01*
X124456000Y-78395000D02*
X124456000Y-77676000D01*
X124496000Y-81029000D02*
X124496000Y-80355000D01*
X124496000Y-78395000D02*
X124496000Y-77721000D01*
X124536000Y-80981000D02*
X124536000Y-80355000D01*
X124536000Y-78395000D02*
X124536000Y-77769000D01*
X124576000Y-80931000D02*
X124576000Y-80355000D01*
X124576000Y-78395000D02*
X124576000Y-77819000D01*
X124616000Y-80879000D02*
X124616000Y-80355000D01*
X124616000Y-78395000D02*
X124616000Y-77871000D01*
X124656000Y-80823000D02*
X124656000Y-80355000D01*
X124656000Y-78395000D02*
X124656000Y-77927000D01*
X124696000Y-80765000D02*
X124696000Y-80355000D01*
X124696000Y-78395000D02*
X124696000Y-77985000D01*
X124736000Y-80702000D02*
X124736000Y-80355000D01*
X124736000Y-78395000D02*
X124736000Y-78048000D01*
X124776000Y-80636000D02*
X124776000Y-78114000D01*
X124816000Y-80564000D02*
X124816000Y-78186000D01*
X124856000Y-80487000D02*
X124856000Y-78263000D01*
X124896000Y-80403000D02*
X124896000Y-78347000D01*
X124936000Y-80309000D02*
X124936000Y-78441000D01*
X124976000Y-80204000D02*
X124976000Y-78546000D01*
X125016000Y-80082000D02*
X125016000Y-78668000D01*
X125056000Y-79934000D02*
X125056000Y-78816000D01*
X125096000Y-79729000D02*
X125096000Y-79021000D01*
X119085000Y-79375000D02*
X120285000Y-79375000D01*
X119685000Y-80025000D02*
X119685000Y-78725000D01*
X195834278Y-81370277D02*
G75*
G02X200445580Y-81370000I2305722J-1179723D01*
G01*
X195834278Y-83729723D02*
G75*
G03X200445580Y-83730000I2305722J1179723D01*
G01*
X195834278Y-83729723D02*
G75*
G02X195834420Y-81370000I2305722J1179723D01*
G01*
X198140000Y-80000000D02*
X198140000Y-85100000D01*
X198100000Y-80000000D02*
X198100000Y-85100000D01*
X198060000Y-80001000D02*
X198060000Y-85099000D01*
X198020000Y-80002000D02*
X198020000Y-85098000D01*
X197980000Y-80004000D02*
X197980000Y-85096000D01*
X197940000Y-80007000D02*
X197940000Y-85093000D01*
X197900000Y-80011000D02*
X197900000Y-85089000D01*
X197860000Y-80015000D02*
X197860000Y-81570000D01*
X197860000Y-83530000D02*
X197860000Y-85085000D01*
X197820000Y-80019000D02*
X197820000Y-81570000D01*
X197820000Y-83530000D02*
X197820000Y-85081000D01*
X197780000Y-80025000D02*
X197780000Y-81570000D01*
X197780000Y-83530000D02*
X197780000Y-85075000D01*
X197740000Y-80031000D02*
X197740000Y-81570000D01*
X197740000Y-83530000D02*
X197740000Y-85069000D01*
X197700000Y-80037000D02*
X197700000Y-81570000D01*
X197700000Y-83530000D02*
X197700000Y-85063000D01*
X197660000Y-80044000D02*
X197660000Y-81570000D01*
X197660000Y-83530000D02*
X197660000Y-85056000D01*
X197620000Y-80052000D02*
X197620000Y-81570000D01*
X197620000Y-83530000D02*
X197620000Y-85048000D01*
X197580000Y-80061000D02*
X197580000Y-81570000D01*
X197580000Y-83530000D02*
X197580000Y-85039000D01*
X197540000Y-80070000D02*
X197540000Y-81570000D01*
X197540000Y-83530000D02*
X197540000Y-85030000D01*
X197500000Y-80080000D02*
X197500000Y-81570000D01*
X197500000Y-83530000D02*
X197500000Y-85020000D01*
X197460000Y-80090000D02*
X197460000Y-81570000D01*
X197460000Y-83530000D02*
X197460000Y-85010000D01*
X197419000Y-80102000D02*
X197419000Y-81570000D01*
X197419000Y-83530000D02*
X197419000Y-84998000D01*
X197379000Y-80114000D02*
X197379000Y-81570000D01*
X197379000Y-83530000D02*
X197379000Y-84986000D01*
X197339000Y-80126000D02*
X197339000Y-81570000D01*
X197339000Y-83530000D02*
X197339000Y-84974000D01*
X197299000Y-80140000D02*
X197299000Y-81570000D01*
X197299000Y-83530000D02*
X197299000Y-84960000D01*
X197259000Y-80154000D02*
X197259000Y-81570000D01*
X197259000Y-83530000D02*
X197259000Y-84946000D01*
X197219000Y-80168000D02*
X197219000Y-81570000D01*
X197219000Y-83530000D02*
X197219000Y-84932000D01*
X197179000Y-80184000D02*
X197179000Y-81570000D01*
X197179000Y-83530000D02*
X197179000Y-84916000D01*
X197139000Y-80200000D02*
X197139000Y-81570000D01*
X197139000Y-83530000D02*
X197139000Y-84900000D01*
X197099000Y-80217000D02*
X197099000Y-81570000D01*
X197099000Y-83530000D02*
X197099000Y-84883000D01*
X197059000Y-80235000D02*
X197059000Y-81570000D01*
X197059000Y-83530000D02*
X197059000Y-84865000D01*
X197019000Y-80254000D02*
X197019000Y-81570000D01*
X197019000Y-83530000D02*
X197019000Y-84846000D01*
X196979000Y-80274000D02*
X196979000Y-81570000D01*
X196979000Y-83530000D02*
X196979000Y-84826000D01*
X196939000Y-80294000D02*
X196939000Y-81570000D01*
X196939000Y-83530000D02*
X196939000Y-84806000D01*
X196899000Y-80316000D02*
X196899000Y-81570000D01*
X196899000Y-83530000D02*
X196899000Y-84784000D01*
X196859000Y-80338000D02*
X196859000Y-81570000D01*
X196859000Y-83530000D02*
X196859000Y-84762000D01*
X196819000Y-80361000D02*
X196819000Y-81570000D01*
X196819000Y-83530000D02*
X196819000Y-84739000D01*
X196779000Y-80385000D02*
X196779000Y-81570000D01*
X196779000Y-83530000D02*
X196779000Y-84715000D01*
X196739000Y-80410000D02*
X196739000Y-81570000D01*
X196739000Y-83530000D02*
X196739000Y-84690000D01*
X196699000Y-80437000D02*
X196699000Y-81570000D01*
X196699000Y-83530000D02*
X196699000Y-84663000D01*
X196659000Y-80464000D02*
X196659000Y-81570000D01*
X196659000Y-83530000D02*
X196659000Y-84636000D01*
X196619000Y-80492000D02*
X196619000Y-81570000D01*
X196619000Y-83530000D02*
X196619000Y-84608000D01*
X196579000Y-80522000D02*
X196579000Y-81570000D01*
X196579000Y-83530000D02*
X196579000Y-84578000D01*
X196539000Y-80553000D02*
X196539000Y-81570000D01*
X196539000Y-83530000D02*
X196539000Y-84547000D01*
X196499000Y-80585000D02*
X196499000Y-81570000D01*
X196499000Y-83530000D02*
X196499000Y-84515000D01*
X196459000Y-80618000D02*
X196459000Y-81570000D01*
X196459000Y-83530000D02*
X196459000Y-84482000D01*
X196419000Y-80653000D02*
X196419000Y-81570000D01*
X196419000Y-83530000D02*
X196419000Y-84447000D01*
X196379000Y-80689000D02*
X196379000Y-81570000D01*
X196379000Y-83530000D02*
X196379000Y-84411000D01*
X196339000Y-80727000D02*
X196339000Y-81570000D01*
X196339000Y-83530000D02*
X196339000Y-84373000D01*
X196299000Y-80767000D02*
X196299000Y-81570000D01*
X196299000Y-83530000D02*
X196299000Y-84333000D01*
X196259000Y-80808000D02*
X196259000Y-81570000D01*
X196259000Y-83530000D02*
X196259000Y-84292000D01*
X196219000Y-80851000D02*
X196219000Y-81570000D01*
X196219000Y-83530000D02*
X196219000Y-84249000D01*
X196179000Y-80896000D02*
X196179000Y-81570000D01*
X196179000Y-83530000D02*
X196179000Y-84204000D01*
X196139000Y-80944000D02*
X196139000Y-81570000D01*
X196139000Y-83530000D02*
X196139000Y-84156000D01*
X196099000Y-80994000D02*
X196099000Y-81570000D01*
X196099000Y-83530000D02*
X196099000Y-84106000D01*
X196059000Y-81046000D02*
X196059000Y-81570000D01*
X196059000Y-83530000D02*
X196059000Y-84054000D01*
X196019000Y-81102000D02*
X196019000Y-81570000D01*
X196019000Y-83530000D02*
X196019000Y-83998000D01*
X195979000Y-81160000D02*
X195979000Y-81570000D01*
X195979000Y-83530000D02*
X195979000Y-83940000D01*
X195939000Y-81223000D02*
X195939000Y-81570000D01*
X195939000Y-83530000D02*
X195939000Y-83877000D01*
X195899000Y-81289000D02*
X195899000Y-83811000D01*
X195859000Y-81361000D02*
X195859000Y-83739000D01*
X195819000Y-81438000D02*
X195819000Y-83662000D01*
X195779000Y-81522000D02*
X195779000Y-83578000D01*
X195739000Y-81616000D02*
X195739000Y-83484000D01*
X195699000Y-81721000D02*
X195699000Y-83379000D01*
X195659000Y-81843000D02*
X195659000Y-83257000D01*
X195619000Y-81991000D02*
X195619000Y-83109000D01*
X195579000Y-82196000D02*
X195579000Y-82904000D01*
X201590000Y-82550000D02*
X200390000Y-82550000D01*
X200990000Y-81900000D02*
X200990000Y-83200000D01*
X139515000Y-81279538D02*
G75*
G02X133965000Y-82824830I-2990000J-462D01*
G01*
X139515000Y-81280462D02*
G75*
G03X133965000Y-79735170I-2990000J462D01*
G01*
X139025000Y-81280000D02*
G75*
G03X139025000Y-81280000I-2500000J0D01*
G01*
X133965000Y-82825000D02*
X133965000Y-79735000D01*
X128945000Y-64690000D02*
X118705000Y-64690000D01*
X128945000Y-69331000D02*
X118705000Y-69331000D01*
X128945000Y-64690000D02*
X128945000Y-69331000D01*
X118705000Y-64690000D02*
X118705000Y-69331000D01*
X128945000Y-66200000D02*
X118705000Y-66200000D01*
X125675000Y-64690000D02*
X125675000Y-66200000D01*
X121974000Y-64690000D02*
X121974000Y-66200000D01*
X140295000Y-78820000D02*
X150535000Y-78820000D01*
X140295000Y-74179000D02*
X150535000Y-74179000D01*
X140295000Y-78820000D02*
X140295000Y-74179000D01*
X150535000Y-78820000D02*
X150535000Y-74179000D01*
X140295000Y-77310000D02*
X150535000Y-77310000D01*
X143565000Y-78820000D02*
X143565000Y-77310000D01*
X147266000Y-78820000D02*
X147266000Y-77310000D01*
X143820000Y-101090000D02*
X142890000Y-101090000D01*
X140660000Y-101090000D02*
X141590000Y-101090000D01*
X140660000Y-101090000D02*
X140660000Y-98930000D01*
X143820000Y-101090000D02*
X143820000Y-99630000D01*
X195685000Y-97845000D02*
X199285000Y-97845000D01*
X195646522Y-97856522D02*
G75*
G03X197485000Y-102295000I1838478J-1838478D01*
G01*
X199323478Y-97856522D02*
G75*
G02X197485000Y-102295000I-1838478J-1838478D01*
G01*
D11*
X179705000Y-100965000D02*
X167005000Y-100965000D01*
X179705000Y-111125000D02*
X179705000Y-100965000D01*
X167005000Y-111125000D02*
X179705000Y-111125000D01*
X167005000Y-111125000D02*
X167005000Y-100965000D01*
D12*
X203895000Y-95945000D02*
X201235000Y-95945000D01*
X203895000Y-90805000D02*
X203895000Y-95945000D01*
X201235000Y-90805000D02*
X201235000Y-95945000D01*
X203895000Y-90805000D02*
X201235000Y-90805000D01*
X203895000Y-89535000D02*
X203895000Y-88205000D01*
X203895000Y-88205000D02*
X202565000Y-88205000D01*
X188304170Y-88208564D02*
G75*
G02X188305000Y-91900996I-979170J-1846436D01*
G01*
X186345830Y-88208564D02*
G75*
G03X186345000Y-91900996I979170J-1846436D01*
G01*
X186345830Y-88208564D02*
G75*
G02X188305000Y-88209004I979170J-1846436D01*
G01*
X186545000Y-90055000D02*
X185275000Y-90055000D01*
X189375000Y-90055000D02*
X188105000Y-90055000D01*
X189375000Y-90015000D02*
X188105000Y-90015000D01*
X186545000Y-90015000D02*
X185275000Y-90015000D01*
X189374000Y-89975000D02*
X188105000Y-89975000D01*
X186545000Y-89975000D02*
X185276000Y-89975000D01*
X189372000Y-89935000D02*
X188105000Y-89935000D01*
X186545000Y-89935000D02*
X185278000Y-89935000D01*
X189369000Y-89895000D02*
X188105000Y-89895000D01*
X186545000Y-89895000D02*
X185281000Y-89895000D01*
X189366000Y-89855000D02*
X188105000Y-89855000D01*
X186545000Y-89855000D02*
X185284000Y-89855000D01*
X189362000Y-89815000D02*
X188105000Y-89815000D01*
X186545000Y-89815000D02*
X185288000Y-89815000D01*
X189357000Y-89775000D02*
X188105000Y-89775000D01*
X186545000Y-89775000D02*
X185293000Y-89775000D01*
X189351000Y-89735000D02*
X188105000Y-89735000D01*
X186545000Y-89735000D02*
X185299000Y-89735000D01*
X189344000Y-89695000D02*
X188105000Y-89695000D01*
X186545000Y-89695000D02*
X185306000Y-89695000D01*
X189337000Y-89655000D02*
X188105000Y-89655000D01*
X186545000Y-89655000D02*
X185313000Y-89655000D01*
X189329000Y-89615000D02*
X188105000Y-89615000D01*
X186545000Y-89615000D02*
X185321000Y-89615000D01*
X189320000Y-89575000D02*
X188105000Y-89575000D01*
X186545000Y-89575000D02*
X185330000Y-89575000D01*
X189310000Y-89535000D02*
X188105000Y-89535000D01*
X186545000Y-89535000D02*
X185340000Y-89535000D01*
X189299000Y-89495000D02*
X188105000Y-89495000D01*
X186545000Y-89495000D02*
X185351000Y-89495000D01*
X189288000Y-89455000D02*
X188105000Y-89455000D01*
X186545000Y-89455000D02*
X185362000Y-89455000D01*
X189275000Y-89415000D02*
X188105000Y-89415000D01*
X186545000Y-89415000D02*
X185375000Y-89415000D01*
X189262000Y-89375000D02*
X188105000Y-89375000D01*
X186545000Y-89375000D02*
X185388000Y-89375000D01*
X189248000Y-89334000D02*
X188105000Y-89334000D01*
X186545000Y-89334000D02*
X185402000Y-89334000D01*
X189232000Y-89294000D02*
X188105000Y-89294000D01*
X186545000Y-89294000D02*
X185418000Y-89294000D01*
X189216000Y-89254000D02*
X188105000Y-89254000D01*
X186545000Y-89254000D02*
X185434000Y-89254000D01*
X189199000Y-89214000D02*
X188105000Y-89214000D01*
X186545000Y-89214000D02*
X185451000Y-89214000D01*
X189181000Y-89174000D02*
X188105000Y-89174000D01*
X186545000Y-89174000D02*
X185469000Y-89174000D01*
X189162000Y-89134000D02*
X188105000Y-89134000D01*
X186545000Y-89134000D02*
X185488000Y-89134000D01*
X189142000Y-89094000D02*
X188105000Y-89094000D01*
X186545000Y-89094000D02*
X185508000Y-89094000D01*
X189121000Y-89054000D02*
X188105000Y-89054000D01*
X186545000Y-89054000D02*
X185529000Y-89054000D01*
X189098000Y-89014000D02*
X188105000Y-89014000D01*
X186545000Y-89014000D02*
X185552000Y-89014000D01*
X189075000Y-88974000D02*
X188105000Y-88974000D01*
X186545000Y-88974000D02*
X185575000Y-88974000D01*
X189050000Y-88934000D02*
X188105000Y-88934000D01*
X186545000Y-88934000D02*
X185600000Y-88934000D01*
X189024000Y-88894000D02*
X188105000Y-88894000D01*
X186545000Y-88894000D02*
X185626000Y-88894000D01*
X188997000Y-88854000D02*
X188105000Y-88854000D01*
X186545000Y-88854000D02*
X185653000Y-88854000D01*
X188968000Y-88814000D02*
X188105000Y-88814000D01*
X186545000Y-88814000D02*
X185682000Y-88814000D01*
X188938000Y-88774000D02*
X188105000Y-88774000D01*
X186545000Y-88774000D02*
X185712000Y-88774000D01*
X188906000Y-88734000D02*
X188105000Y-88734000D01*
X186545000Y-88734000D02*
X185744000Y-88734000D01*
X188872000Y-88694000D02*
X188105000Y-88694000D01*
X186545000Y-88694000D02*
X185778000Y-88694000D01*
X188837000Y-88654000D02*
X188105000Y-88654000D01*
X186545000Y-88654000D02*
X185813000Y-88654000D01*
X188800000Y-88614000D02*
X188105000Y-88614000D01*
X186545000Y-88614000D02*
X185850000Y-88614000D01*
X188761000Y-88574000D02*
X188105000Y-88574000D01*
X186545000Y-88574000D02*
X185889000Y-88574000D01*
X188720000Y-88534000D02*
X188105000Y-88534000D01*
X186545000Y-88534000D02*
X185930000Y-88534000D01*
X188676000Y-88494000D02*
X185974000Y-88494000D01*
X188630000Y-88454000D02*
X186020000Y-88454000D01*
X188581000Y-88414000D02*
X186069000Y-88414000D01*
X188529000Y-88374000D02*
X186121000Y-88374000D01*
X188473000Y-88334000D02*
X186177000Y-88334000D01*
X188413000Y-88294000D02*
X186237000Y-88294000D01*
X188348000Y-88254000D02*
X186302000Y-88254000D01*
X188277000Y-88214000D02*
X186373000Y-88214000D01*
X188199000Y-88174000D02*
X186451000Y-88174000D01*
X188111000Y-88134000D02*
X186539000Y-88134000D01*
X188011000Y-88094000D02*
X186639000Y-88094000D01*
X187892000Y-88054000D02*
X186758000Y-88054000D01*
X187740000Y-88014000D02*
X186910000Y-88014000D01*
X187490000Y-87974000D02*
X187160000Y-87974000D01*
X187325000Y-92505000D02*
X187325000Y-91605000D01*
X187775000Y-92055000D02*
X186875000Y-92055000D01*
D11*
X185801000Y-79756000D02*
X185801000Y-76327000D01*
X176149000Y-79756000D02*
X176149000Y-76327000D01*
X186309000Y-80899000D02*
X175641000Y-80899000D01*
X182753000Y-79883000D02*
X182753000Y-81153000D01*
X179197000Y-79883000D02*
X179197000Y-81153000D01*
X175641000Y-79756000D02*
X186309000Y-79756000D01*
X186309000Y-76327000D02*
X175641000Y-76327000D01*
X175641000Y-81153000D02*
X175641000Y-76327000D01*
X186309000Y-81153000D02*
X186309000Y-76327000D01*
X186309000Y-81153000D02*
X175641000Y-81153000D01*
D12*
X193096436Y-83529170D02*
G75*
G02X189404004Y-83530000I-1846436J979170D01*
G01*
X193096436Y-81570830D02*
G75*
G03X189404004Y-81570000I-1846436J-979170D01*
G01*
X193096436Y-81570830D02*
G75*
G02X193095996Y-83530000I-1846436J-979170D01*
G01*
X191250000Y-81770000D02*
X191250000Y-80500000D01*
X191250000Y-84600000D02*
X191250000Y-83330000D01*
X191290000Y-84600000D02*
X191290000Y-83330000D01*
X191290000Y-81770000D02*
X191290000Y-80500000D01*
X191330000Y-84599000D02*
X191330000Y-83330000D01*
X191330000Y-81770000D02*
X191330000Y-80501000D01*
X191370000Y-84597000D02*
X191370000Y-83330000D01*
X191370000Y-81770000D02*
X191370000Y-80503000D01*
X191410000Y-84594000D02*
X191410000Y-83330000D01*
X191410000Y-81770000D02*
X191410000Y-80506000D01*
X191450000Y-84591000D02*
X191450000Y-83330000D01*
X191450000Y-81770000D02*
X191450000Y-80509000D01*
X191490000Y-84587000D02*
X191490000Y-83330000D01*
X191490000Y-81770000D02*
X191490000Y-80513000D01*
X191530000Y-84582000D02*
X191530000Y-83330000D01*
X191530000Y-81770000D02*
X191530000Y-80518000D01*
X191570000Y-84576000D02*
X191570000Y-83330000D01*
X191570000Y-81770000D02*
X191570000Y-80524000D01*
X191610000Y-84569000D02*
X191610000Y-83330000D01*
X191610000Y-81770000D02*
X191610000Y-80531000D01*
X191650000Y-84562000D02*
X191650000Y-83330000D01*
X191650000Y-81770000D02*
X191650000Y-80538000D01*
X191690000Y-84554000D02*
X191690000Y-83330000D01*
X191690000Y-81770000D02*
X191690000Y-80546000D01*
X191730000Y-84545000D02*
X191730000Y-83330000D01*
X191730000Y-81770000D02*
X191730000Y-80555000D01*
X191770000Y-84535000D02*
X191770000Y-83330000D01*
X191770000Y-81770000D02*
X191770000Y-80565000D01*
X191810000Y-84524000D02*
X191810000Y-83330000D01*
X191810000Y-81770000D02*
X191810000Y-80576000D01*
X191850000Y-84513000D02*
X191850000Y-83330000D01*
X191850000Y-81770000D02*
X191850000Y-80587000D01*
X191890000Y-84500000D02*
X191890000Y-83330000D01*
X191890000Y-81770000D02*
X191890000Y-80600000D01*
X191930000Y-84487000D02*
X191930000Y-83330000D01*
X191930000Y-81770000D02*
X191930000Y-80613000D01*
X191971000Y-84473000D02*
X191971000Y-83330000D01*
X191971000Y-81770000D02*
X191971000Y-80627000D01*
X192011000Y-84457000D02*
X192011000Y-83330000D01*
X192011000Y-81770000D02*
X192011000Y-80643000D01*
X192051000Y-84441000D02*
X192051000Y-83330000D01*
X192051000Y-81770000D02*
X192051000Y-80659000D01*
X192091000Y-84424000D02*
X192091000Y-83330000D01*
X192091000Y-81770000D02*
X192091000Y-80676000D01*
X192131000Y-84406000D02*
X192131000Y-83330000D01*
X192131000Y-81770000D02*
X192131000Y-80694000D01*
X192171000Y-84387000D02*
X192171000Y-83330000D01*
X192171000Y-81770000D02*
X192171000Y-80713000D01*
X192211000Y-84367000D02*
X192211000Y-83330000D01*
X192211000Y-81770000D02*
X192211000Y-80733000D01*
X192251000Y-84346000D02*
X192251000Y-83330000D01*
X192251000Y-81770000D02*
X192251000Y-80754000D01*
X192291000Y-84323000D02*
X192291000Y-83330000D01*
X192291000Y-81770000D02*
X192291000Y-80777000D01*
X192331000Y-84300000D02*
X192331000Y-83330000D01*
X192331000Y-81770000D02*
X192331000Y-80800000D01*
X192371000Y-84275000D02*
X192371000Y-83330000D01*
X192371000Y-81770000D02*
X192371000Y-80825000D01*
X192411000Y-84249000D02*
X192411000Y-83330000D01*
X192411000Y-81770000D02*
X192411000Y-80851000D01*
X192451000Y-84222000D02*
X192451000Y-83330000D01*
X192451000Y-81770000D02*
X192451000Y-80878000D01*
X192491000Y-84193000D02*
X192491000Y-83330000D01*
X192491000Y-81770000D02*
X192491000Y-80907000D01*
X192531000Y-84163000D02*
X192531000Y-83330000D01*
X192531000Y-81770000D02*
X192531000Y-80937000D01*
X192571000Y-84131000D02*
X192571000Y-83330000D01*
X192571000Y-81770000D02*
X192571000Y-80969000D01*
X192611000Y-84097000D02*
X192611000Y-83330000D01*
X192611000Y-81770000D02*
X192611000Y-81003000D01*
X192651000Y-84062000D02*
X192651000Y-83330000D01*
X192651000Y-81770000D02*
X192651000Y-81038000D01*
X192691000Y-84025000D02*
X192691000Y-83330000D01*
X192691000Y-81770000D02*
X192691000Y-81075000D01*
X192731000Y-83986000D02*
X192731000Y-83330000D01*
X192731000Y-81770000D02*
X192731000Y-81114000D01*
X192771000Y-83945000D02*
X192771000Y-83330000D01*
X192771000Y-81770000D02*
X192771000Y-81155000D01*
X192811000Y-83901000D02*
X192811000Y-81199000D01*
X192851000Y-83855000D02*
X192851000Y-81245000D01*
X192891000Y-83806000D02*
X192891000Y-81294000D01*
X192931000Y-83754000D02*
X192931000Y-81346000D01*
X192971000Y-83698000D02*
X192971000Y-81402000D01*
X193011000Y-83638000D02*
X193011000Y-81462000D01*
X193051000Y-83573000D02*
X193051000Y-81527000D01*
X193091000Y-83502000D02*
X193091000Y-81598000D01*
X193131000Y-83424000D02*
X193131000Y-81676000D01*
X193171000Y-83336000D02*
X193171000Y-81764000D01*
X193211000Y-83236000D02*
X193211000Y-81864000D01*
X193251000Y-83117000D02*
X193251000Y-81983000D01*
X193291000Y-82965000D02*
X193291000Y-82135000D01*
X193331000Y-82715000D02*
X193331000Y-82385000D01*
X188800000Y-82550000D02*
X189700000Y-82550000D01*
X189250000Y-83000000D02*
X189250000Y-82100000D01*
D11*
X183323333Y-57488571D02*
X183656666Y-57488571D01*
X183656666Y-58012380D02*
X183656666Y-57012380D01*
X183180476Y-57012380D01*
X182275714Y-58012380D02*
X182847142Y-58012380D01*
X182561428Y-58012380D02*
X182561428Y-57012380D01*
X182656666Y-57155238D01*
X182751904Y-57250476D01*
X182847142Y-57298095D01*
X185753333Y-115657380D02*
X185753333Y-116371666D01*
X185800952Y-116514523D01*
X185896190Y-116609761D01*
X186039047Y-116657380D01*
X186134285Y-116657380D01*
X185372380Y-115657380D02*
X184705714Y-115657380D01*
X185134285Y-116657380D01*
X181736904Y-106767380D02*
X181736904Y-107576904D01*
X181689285Y-107672142D01*
X181641666Y-107719761D01*
X181546428Y-107767380D01*
X181355952Y-107767380D01*
X181260714Y-107719761D01*
X181213095Y-107672142D01*
X181165476Y-107576904D01*
X181165476Y-106767380D01*
X180784523Y-106767380D02*
X180117857Y-106767380D01*
X180546428Y-107767380D01*
X174897380Y-109212142D02*
X174421190Y-108878809D01*
X174897380Y-108640714D02*
X173897380Y-108640714D01*
X173897380Y-109021666D01*
X173945000Y-109116904D01*
X173992619Y-109164523D01*
X174087857Y-109212142D01*
X174230714Y-109212142D01*
X174325952Y-109164523D01*
X174373571Y-109116904D01*
X174421190Y-109021666D01*
X174421190Y-108640714D01*
X174897380Y-110164523D02*
X174897380Y-109593095D01*
X174897380Y-109878809D02*
X173897380Y-109878809D01*
X174040238Y-109783571D01*
X174135476Y-109688333D01*
X174183095Y-109593095D01*
X173897380Y-110497857D02*
X173897380Y-111164523D01*
X174897380Y-110735952D01*
X184422380Y-107942142D02*
X183946190Y-107608809D01*
X184422380Y-107370714D02*
X183422380Y-107370714D01*
X183422380Y-107751666D01*
X183470000Y-107846904D01*
X183517619Y-107894523D01*
X183612857Y-107942142D01*
X183755714Y-107942142D01*
X183850952Y-107894523D01*
X183898571Y-107846904D01*
X183946190Y-107751666D01*
X183946190Y-107370714D01*
X184422380Y-108894523D02*
X184422380Y-108323095D01*
X184422380Y-108608809D02*
X183422380Y-108608809D01*
X183565238Y-108513571D01*
X183660476Y-108418333D01*
X183708095Y-108323095D01*
X183422380Y-109799285D02*
X183422380Y-109323095D01*
X183898571Y-109275476D01*
X183850952Y-109323095D01*
X183803333Y-109418333D01*
X183803333Y-109656428D01*
X183850952Y-109751666D01*
X183898571Y-109799285D01*
X183993809Y-109846904D01*
X184231904Y-109846904D01*
X184327142Y-109799285D01*
X184374761Y-109751666D01*
X184422380Y-109656428D01*
X184422380Y-109418333D01*
X184374761Y-109323095D01*
X184327142Y-109275476D01*
X172992380Y-109212142D02*
X172516190Y-108878809D01*
X172992380Y-108640714D02*
X171992380Y-108640714D01*
X171992380Y-109021666D01*
X172040000Y-109116904D01*
X172087619Y-109164523D01*
X172182857Y-109212142D01*
X172325714Y-109212142D01*
X172420952Y-109164523D01*
X172468571Y-109116904D01*
X172516190Y-109021666D01*
X172516190Y-108640714D01*
X172992380Y-110164523D02*
X172992380Y-109593095D01*
X172992380Y-109878809D02*
X171992380Y-109878809D01*
X172135238Y-109783571D01*
X172230476Y-109688333D01*
X172278095Y-109593095D01*
X172325714Y-111021666D02*
X172992380Y-111021666D01*
X171944761Y-110783571D02*
X172659047Y-110545476D01*
X172659047Y-111164523D01*
X186417619Y-104782857D02*
X186893809Y-105116190D01*
X186417619Y-105354285D02*
X187417619Y-105354285D01*
X187417619Y-104973333D01*
X187370000Y-104878095D01*
X187322380Y-104830476D01*
X187227142Y-104782857D01*
X187084285Y-104782857D01*
X186989047Y-104830476D01*
X186941428Y-104878095D01*
X186893809Y-104973333D01*
X186893809Y-105354285D01*
X186417619Y-103830476D02*
X186417619Y-104401904D01*
X186417619Y-104116190D02*
X187417619Y-104116190D01*
X187274761Y-104211428D01*
X187179523Y-104306666D01*
X187131904Y-104401904D01*
X187417619Y-103497142D02*
X187417619Y-102878095D01*
X187036666Y-103211428D01*
X187036666Y-103068571D01*
X186989047Y-102973333D01*
X186941428Y-102925714D01*
X186846190Y-102878095D01*
X186608095Y-102878095D01*
X186512857Y-102925714D01*
X186465238Y-102973333D01*
X186417619Y-103068571D01*
X186417619Y-103354285D01*
X186465238Y-103449523D01*
X186512857Y-103497142D01*
X187322380Y-98882142D02*
X186846190Y-98548809D01*
X187322380Y-98310714D02*
X186322380Y-98310714D01*
X186322380Y-98691666D01*
X186370000Y-98786904D01*
X186417619Y-98834523D01*
X186512857Y-98882142D01*
X186655714Y-98882142D01*
X186750952Y-98834523D01*
X186798571Y-98786904D01*
X186846190Y-98691666D01*
X186846190Y-98310714D01*
X187322380Y-99834523D02*
X187322380Y-99263095D01*
X187322380Y-99548809D02*
X186322380Y-99548809D01*
X186465238Y-99453571D01*
X186560476Y-99358333D01*
X186608095Y-99263095D01*
X186417619Y-100215476D02*
X186370000Y-100263095D01*
X186322380Y-100358333D01*
X186322380Y-100596428D01*
X186370000Y-100691666D01*
X186417619Y-100739285D01*
X186512857Y-100786904D01*
X186608095Y-100786904D01*
X186750952Y-100739285D01*
X187322380Y-100167857D01*
X187322380Y-100786904D01*
X159948333Y-113377380D02*
X159948333Y-114091666D01*
X159995952Y-114234523D01*
X160091190Y-114329761D01*
X160234047Y-114377380D01*
X160329285Y-114377380D01*
X158995952Y-113377380D02*
X159472142Y-113377380D01*
X159519761Y-113853571D01*
X159472142Y-113805952D01*
X159376904Y-113758333D01*
X159138809Y-113758333D01*
X159043571Y-113805952D01*
X158995952Y-113853571D01*
X158948333Y-113948809D01*
X158948333Y-114186904D01*
X158995952Y-114282142D01*
X159043571Y-114329761D01*
X159138809Y-114377380D01*
X159376904Y-114377380D01*
X159472142Y-114329761D01*
X159519761Y-114282142D01*
X162726666Y-108287142D02*
X162774285Y-108334761D01*
X162917142Y-108382380D01*
X163012380Y-108382380D01*
X163155238Y-108334761D01*
X163250476Y-108239523D01*
X163298095Y-108144285D01*
X163345714Y-107953809D01*
X163345714Y-107810952D01*
X163298095Y-107620476D01*
X163250476Y-107525238D01*
X163155238Y-107430000D01*
X163012380Y-107382380D01*
X162917142Y-107382380D01*
X162774285Y-107430000D01*
X162726666Y-107477619D01*
X162393333Y-107382380D02*
X161774285Y-107382380D01*
X162107619Y-107763333D01*
X161964761Y-107763333D01*
X161869523Y-107810952D01*
X161821904Y-107858571D01*
X161774285Y-107953809D01*
X161774285Y-108191904D01*
X161821904Y-108287142D01*
X161869523Y-108334761D01*
X161964761Y-108382380D01*
X162250476Y-108382380D01*
X162345714Y-108334761D01*
X162393333Y-108287142D01*
X177542142Y-98258333D02*
X177589761Y-98210714D01*
X177637380Y-98067857D01*
X177637380Y-97972619D01*
X177589761Y-97829761D01*
X177494523Y-97734523D01*
X177399285Y-97686904D01*
X177208809Y-97639285D01*
X177065952Y-97639285D01*
X176875476Y-97686904D01*
X176780238Y-97734523D01*
X176685000Y-97829761D01*
X176637380Y-97972619D01*
X176637380Y-98067857D01*
X176685000Y-98210714D01*
X176732619Y-98258333D01*
X176637380Y-99163095D02*
X176637380Y-98686904D01*
X177113571Y-98639285D01*
X177065952Y-98686904D01*
X177018333Y-98782142D01*
X177018333Y-99020238D01*
X177065952Y-99115476D01*
X177113571Y-99163095D01*
X177208809Y-99210714D01*
X177446904Y-99210714D01*
X177542142Y-99163095D01*
X177589761Y-99115476D01*
X177637380Y-99020238D01*
X177637380Y-98782142D01*
X177589761Y-98686904D01*
X177542142Y-98639285D01*
X156207380Y-106672142D02*
X155731190Y-106338809D01*
X156207380Y-106100714D02*
X155207380Y-106100714D01*
X155207380Y-106481666D01*
X155255000Y-106576904D01*
X155302619Y-106624523D01*
X155397857Y-106672142D01*
X155540714Y-106672142D01*
X155635952Y-106624523D01*
X155683571Y-106576904D01*
X155731190Y-106481666D01*
X155731190Y-106100714D01*
X156207380Y-107624523D02*
X156207380Y-107053095D01*
X156207380Y-107338809D02*
X155207380Y-107338809D01*
X155350238Y-107243571D01*
X155445476Y-107148333D01*
X155493095Y-107053095D01*
X155207380Y-108243571D02*
X155207380Y-108338809D01*
X155255000Y-108434047D01*
X155302619Y-108481666D01*
X155397857Y-108529285D01*
X155588333Y-108576904D01*
X155826428Y-108576904D01*
X156016904Y-108529285D01*
X156112142Y-108481666D01*
X156159761Y-108434047D01*
X156207380Y-108338809D01*
X156207380Y-108243571D01*
X156159761Y-108148333D01*
X156112142Y-108100714D01*
X156016904Y-108053095D01*
X155826428Y-108005476D01*
X155588333Y-108005476D01*
X155397857Y-108053095D01*
X155302619Y-108100714D01*
X155255000Y-108148333D01*
X155207380Y-108243571D01*
X156207380Y-102703333D02*
X155731190Y-102370000D01*
X156207380Y-102131904D02*
X155207380Y-102131904D01*
X155207380Y-102512857D01*
X155255000Y-102608095D01*
X155302619Y-102655714D01*
X155397857Y-102703333D01*
X155540714Y-102703333D01*
X155635952Y-102655714D01*
X155683571Y-102608095D01*
X155731190Y-102512857D01*
X155731190Y-102131904D01*
X156207380Y-103179523D02*
X156207380Y-103370000D01*
X156159761Y-103465238D01*
X156112142Y-103512857D01*
X155969285Y-103608095D01*
X155778809Y-103655714D01*
X155397857Y-103655714D01*
X155302619Y-103608095D01*
X155255000Y-103560476D01*
X155207380Y-103465238D01*
X155207380Y-103274761D01*
X155255000Y-103179523D01*
X155302619Y-103131904D01*
X155397857Y-103084285D01*
X155635952Y-103084285D01*
X155731190Y-103131904D01*
X155778809Y-103179523D01*
X155826428Y-103274761D01*
X155826428Y-103465238D01*
X155778809Y-103560476D01*
X155731190Y-103608095D01*
X155635952Y-103655714D01*
X160781904Y-98822380D02*
X160781904Y-99631904D01*
X160734285Y-99727142D01*
X160686666Y-99774761D01*
X160591428Y-99822380D01*
X160400952Y-99822380D01*
X160305714Y-99774761D01*
X160258095Y-99727142D01*
X160210476Y-99631904D01*
X160210476Y-98822380D01*
X159258095Y-98822380D02*
X159734285Y-98822380D01*
X159781904Y-99298571D01*
X159734285Y-99250952D01*
X159639047Y-99203333D01*
X159400952Y-99203333D01*
X159305714Y-99250952D01*
X159258095Y-99298571D01*
X159210476Y-99393809D01*
X159210476Y-99631904D01*
X159258095Y-99727142D01*
X159305714Y-99774761D01*
X159400952Y-99822380D01*
X159639047Y-99822380D01*
X159734285Y-99774761D01*
X159781904Y-99727142D01*
X195167380Y-96988333D02*
X194691190Y-96655000D01*
X195167380Y-96416904D02*
X194167380Y-96416904D01*
X194167380Y-96797857D01*
X194215000Y-96893095D01*
X194262619Y-96940714D01*
X194357857Y-96988333D01*
X194500714Y-96988333D01*
X194595952Y-96940714D01*
X194643571Y-96893095D01*
X194691190Y-96797857D01*
X194691190Y-96416904D01*
X195167380Y-97940714D02*
X195167380Y-97369285D01*
X195167380Y-97655000D02*
X194167380Y-97655000D01*
X194310238Y-97559761D01*
X194405476Y-97464523D01*
X194453095Y-97369285D01*
X186737380Y-112228333D02*
X186261190Y-111895000D01*
X186737380Y-111656904D02*
X185737380Y-111656904D01*
X185737380Y-112037857D01*
X185785000Y-112133095D01*
X185832619Y-112180714D01*
X185927857Y-112228333D01*
X186070714Y-112228333D01*
X186165952Y-112180714D01*
X186213571Y-112133095D01*
X186261190Y-112037857D01*
X186261190Y-111656904D01*
X185832619Y-112609285D02*
X185785000Y-112656904D01*
X185737380Y-112752142D01*
X185737380Y-112990238D01*
X185785000Y-113085476D01*
X185832619Y-113133095D01*
X185927857Y-113180714D01*
X186023095Y-113180714D01*
X186165952Y-113133095D01*
X186737380Y-112561666D01*
X186737380Y-113180714D01*
X142406666Y-104822380D02*
X142740000Y-104346190D01*
X142978095Y-104822380D02*
X142978095Y-103822380D01*
X142597142Y-103822380D01*
X142501904Y-103870000D01*
X142454285Y-103917619D01*
X142406666Y-104012857D01*
X142406666Y-104155714D01*
X142454285Y-104250952D01*
X142501904Y-104298571D01*
X142597142Y-104346190D01*
X142978095Y-104346190D01*
X141501904Y-103822380D02*
X141978095Y-103822380D01*
X142025714Y-104298571D01*
X141978095Y-104250952D01*
X141882857Y-104203333D01*
X141644761Y-104203333D01*
X141549523Y-104250952D01*
X141501904Y-104298571D01*
X141454285Y-104393809D01*
X141454285Y-104631904D01*
X141501904Y-104727142D01*
X141549523Y-104774761D01*
X141644761Y-104822380D01*
X141882857Y-104822380D01*
X141978095Y-104774761D01*
X142025714Y-104727142D01*
X142406666Y-114522380D02*
X142740000Y-114046190D01*
X142978095Y-114522380D02*
X142978095Y-113522380D01*
X142597142Y-113522380D01*
X142501904Y-113570000D01*
X142454285Y-113617619D01*
X142406666Y-113712857D01*
X142406666Y-113855714D01*
X142454285Y-113950952D01*
X142501904Y-113998571D01*
X142597142Y-114046190D01*
X142978095Y-114046190D01*
X141549523Y-113522380D02*
X141740000Y-113522380D01*
X141835238Y-113570000D01*
X141882857Y-113617619D01*
X141978095Y-113760476D01*
X142025714Y-113950952D01*
X142025714Y-114331904D01*
X141978095Y-114427142D01*
X141930476Y-114474761D01*
X141835238Y-114522380D01*
X141644761Y-114522380D01*
X141549523Y-114474761D01*
X141501904Y-114427142D01*
X141454285Y-114331904D01*
X141454285Y-114093809D01*
X141501904Y-113998571D01*
X141549523Y-113950952D01*
X141644761Y-113903333D01*
X141835238Y-113903333D01*
X141930476Y-113950952D01*
X141978095Y-113998571D01*
X142025714Y-114093809D01*
X148637380Y-107783333D02*
X148161190Y-107450000D01*
X148637380Y-107211904D02*
X147637380Y-107211904D01*
X147637380Y-107592857D01*
X147685000Y-107688095D01*
X147732619Y-107735714D01*
X147827857Y-107783333D01*
X147970714Y-107783333D01*
X148065952Y-107735714D01*
X148113571Y-107688095D01*
X148161190Y-107592857D01*
X148161190Y-107211904D01*
X147637380Y-108116666D02*
X147637380Y-108735714D01*
X148018333Y-108402380D01*
X148018333Y-108545238D01*
X148065952Y-108640476D01*
X148113571Y-108688095D01*
X148208809Y-108735714D01*
X148446904Y-108735714D01*
X148542142Y-108688095D01*
X148589761Y-108640476D01*
X148637380Y-108545238D01*
X148637380Y-108259523D01*
X148589761Y-108164285D01*
X148542142Y-108116666D01*
X131742380Y-89201666D02*
X132456666Y-89201666D01*
X132599523Y-89154047D01*
X132694761Y-89058809D01*
X132742380Y-88915952D01*
X132742380Y-88820714D01*
X132075714Y-90106428D02*
X132742380Y-90106428D01*
X131694761Y-89868333D02*
X132409047Y-89630238D01*
X132409047Y-90249285D01*
X187377857Y-100147380D02*
X187711190Y-99671190D01*
X187949285Y-100147380D02*
X187949285Y-99147380D01*
X187568333Y-99147380D01*
X187473095Y-99195000D01*
X187425476Y-99242619D01*
X187377857Y-99337857D01*
X187377857Y-99480714D01*
X187425476Y-99575952D01*
X187473095Y-99623571D01*
X187568333Y-99671190D01*
X187949285Y-99671190D01*
X186425476Y-100147380D02*
X186996904Y-100147380D01*
X186711190Y-100147380D02*
X186711190Y-99147380D01*
X186806428Y-99290238D01*
X186901666Y-99385476D01*
X186996904Y-99433095D01*
X185473095Y-100147380D02*
X186044523Y-100147380D01*
X185758809Y-100147380D02*
X185758809Y-99147380D01*
X185854047Y-99290238D01*
X185949285Y-99385476D01*
X186044523Y-99433095D01*
X175137380Y-97591666D02*
X175851666Y-97591666D01*
X175994523Y-97544047D01*
X176089761Y-97448809D01*
X176137380Y-97305952D01*
X176137380Y-97210714D01*
X176137380Y-98067857D02*
X175137380Y-98067857D01*
X175137380Y-98448809D01*
X175185000Y-98544047D01*
X175232619Y-98591666D01*
X175327857Y-98639285D01*
X175470714Y-98639285D01*
X175565952Y-98591666D01*
X175613571Y-98544047D01*
X175661190Y-98448809D01*
X175661190Y-98067857D01*
X175137380Y-98972619D02*
X175137380Y-99591666D01*
X175518333Y-99258333D01*
X175518333Y-99401190D01*
X175565952Y-99496428D01*
X175613571Y-99544047D01*
X175708809Y-99591666D01*
X175946904Y-99591666D01*
X176042142Y-99544047D01*
X176089761Y-99496428D01*
X176137380Y-99401190D01*
X176137380Y-99115476D01*
X176089761Y-99020238D01*
X176042142Y-98972619D01*
X147617380Y-98226666D02*
X148331666Y-98226666D01*
X148474523Y-98179047D01*
X148569761Y-98083809D01*
X148617380Y-97940952D01*
X148617380Y-97845714D01*
X148617380Y-98702857D02*
X147617380Y-98702857D01*
X147617380Y-99083809D01*
X147665000Y-99179047D01*
X147712619Y-99226666D01*
X147807857Y-99274285D01*
X147950714Y-99274285D01*
X148045952Y-99226666D01*
X148093571Y-99179047D01*
X148141190Y-99083809D01*
X148141190Y-98702857D01*
X147712619Y-99655238D02*
X147665000Y-99702857D01*
X147617380Y-99798095D01*
X147617380Y-100036190D01*
X147665000Y-100131428D01*
X147712619Y-100179047D01*
X147807857Y-100226666D01*
X147903095Y-100226666D01*
X148045952Y-100179047D01*
X148617380Y-99607619D01*
X148617380Y-100226666D01*
X205303333Y-103802380D02*
X205303333Y-104516666D01*
X205350952Y-104659523D01*
X205446190Y-104754761D01*
X205589047Y-104802380D01*
X205684285Y-104802380D01*
X204827142Y-104802380D02*
X204827142Y-103802380D01*
X204446190Y-103802380D01*
X204350952Y-103850000D01*
X204303333Y-103897619D01*
X204255714Y-103992857D01*
X204255714Y-104135714D01*
X204303333Y-104230952D01*
X204350952Y-104278571D01*
X204446190Y-104326190D01*
X204827142Y-104326190D01*
X203303333Y-104802380D02*
X203874761Y-104802380D01*
X203589047Y-104802380D02*
X203589047Y-103802380D01*
X203684285Y-103945238D01*
X203779523Y-104040476D01*
X203874761Y-104088095D01*
X189952380Y-65706666D02*
X190666666Y-65706666D01*
X190809523Y-65659047D01*
X190904761Y-65563809D01*
X190952380Y-65420952D01*
X190952380Y-65325714D01*
X190952380Y-66706666D02*
X190952380Y-66135238D01*
X190952380Y-66420952D02*
X189952380Y-66420952D01*
X190095238Y-66325714D01*
X190190476Y-66230476D01*
X190238095Y-66135238D01*
X189952380Y-53006666D02*
X190666666Y-53006666D01*
X190809523Y-52959047D01*
X190904761Y-52863809D01*
X190952380Y-52720952D01*
X190952380Y-52625714D01*
X189952380Y-53911428D02*
X189952380Y-53720952D01*
X190000000Y-53625714D01*
X190047619Y-53578095D01*
X190190476Y-53482857D01*
X190380952Y-53435238D01*
X190761904Y-53435238D01*
X190857142Y-53482857D01*
X190904761Y-53530476D01*
X190952380Y-53625714D01*
X190952380Y-53816190D01*
X190904761Y-53911428D01*
X190857142Y-53959047D01*
X190761904Y-54006666D01*
X190523809Y-54006666D01*
X190428571Y-53959047D01*
X190380952Y-53911428D01*
X190333333Y-53816190D01*
X190333333Y-53625714D01*
X190380952Y-53530476D01*
X190428571Y-53482857D01*
X190523809Y-53435238D01*
X189952380Y-40306666D02*
X190666666Y-40306666D01*
X190809523Y-40259047D01*
X190904761Y-40163809D01*
X190952380Y-40020952D01*
X190952380Y-39925714D01*
X189952380Y-40687619D02*
X189952380Y-41306666D01*
X190333333Y-40973333D01*
X190333333Y-41116190D01*
X190380952Y-41211428D01*
X190428571Y-41259047D01*
X190523809Y-41306666D01*
X190761904Y-41306666D01*
X190857142Y-41259047D01*
X190904761Y-41211428D01*
X190952380Y-41116190D01*
X190952380Y-40830476D01*
X190904761Y-40735238D01*
X190857142Y-40687619D01*
X195746666Y-72607380D02*
X196080000Y-72131190D01*
X196318095Y-72607380D02*
X196318095Y-71607380D01*
X195937142Y-71607380D01*
X195841904Y-71655000D01*
X195794285Y-71702619D01*
X195746666Y-71797857D01*
X195746666Y-71940714D01*
X195794285Y-72035952D01*
X195841904Y-72083571D01*
X195937142Y-72131190D01*
X196318095Y-72131190D01*
X194889523Y-71940714D02*
X194889523Y-72607380D01*
X195127619Y-71559761D02*
X195365714Y-72274047D01*
X194746666Y-72274047D01*
X196953095Y-113352380D02*
X196953095Y-112352380D01*
X196715000Y-112352380D01*
X196572142Y-112400000D01*
X196476904Y-112495238D01*
X196429285Y-112590476D01*
X196381666Y-112780952D01*
X196381666Y-112923809D01*
X196429285Y-113114285D01*
X196476904Y-113209523D01*
X196572142Y-113304761D01*
X196715000Y-113352380D01*
X196953095Y-113352380D01*
X196000714Y-112447619D02*
X195953095Y-112400000D01*
X195857857Y-112352380D01*
X195619761Y-112352380D01*
X195524523Y-112400000D01*
X195476904Y-112447619D01*
X195429285Y-112542857D01*
X195429285Y-112638095D01*
X195476904Y-112780952D01*
X196048333Y-113352380D01*
X195429285Y-113352380D01*
X196953095Y-108272380D02*
X196953095Y-107272380D01*
X196715000Y-107272380D01*
X196572142Y-107320000D01*
X196476904Y-107415238D01*
X196429285Y-107510476D01*
X196381666Y-107700952D01*
X196381666Y-107843809D01*
X196429285Y-108034285D01*
X196476904Y-108129523D01*
X196572142Y-108224761D01*
X196715000Y-108272380D01*
X196953095Y-108272380D01*
X195429285Y-108272380D02*
X196000714Y-108272380D01*
X195715000Y-108272380D02*
X195715000Y-107272380D01*
X195810238Y-107415238D01*
X195905476Y-107510476D01*
X196000714Y-107558095D01*
X194762380Y-89431904D02*
X193762380Y-89431904D01*
X193762380Y-89670000D01*
X193810000Y-89812857D01*
X193905238Y-89908095D01*
X194000476Y-89955714D01*
X194190952Y-90003333D01*
X194333809Y-90003333D01*
X194524285Y-89955714D01*
X194619523Y-89908095D01*
X194714761Y-89812857D01*
X194762380Y-89670000D01*
X194762380Y-89431904D01*
X193762380Y-90336666D02*
X193762380Y-91003333D01*
X194762380Y-90574761D01*
X170366666Y-79732142D02*
X170414285Y-79779761D01*
X170557142Y-79827380D01*
X170652380Y-79827380D01*
X170795238Y-79779761D01*
X170890476Y-79684523D01*
X170938095Y-79589285D01*
X170985714Y-79398809D01*
X170985714Y-79255952D01*
X170938095Y-79065476D01*
X170890476Y-78970238D01*
X170795238Y-78875000D01*
X170652380Y-78827380D01*
X170557142Y-78827380D01*
X170414285Y-78875000D01*
X170366666Y-78922619D01*
X169509523Y-79160714D02*
X169509523Y-79827380D01*
X169747619Y-78779761D02*
X169985714Y-79494047D01*
X169366666Y-79494047D01*
X122701666Y-83542142D02*
X122749285Y-83589761D01*
X122892142Y-83637380D01*
X122987380Y-83637380D01*
X123130238Y-83589761D01*
X123225476Y-83494523D01*
X123273095Y-83399285D01*
X123320714Y-83208809D01*
X123320714Y-83065952D01*
X123273095Y-82875476D01*
X123225476Y-82780238D01*
X123130238Y-82685000D01*
X122987380Y-82637380D01*
X122892142Y-82637380D01*
X122749285Y-82685000D01*
X122701666Y-82732619D01*
X122368333Y-82637380D02*
X121701666Y-82637380D01*
X122130238Y-83637380D01*
X198306666Y-79097142D02*
X198354285Y-79144761D01*
X198497142Y-79192380D01*
X198592380Y-79192380D01*
X198735238Y-79144761D01*
X198830476Y-79049523D01*
X198878095Y-78954285D01*
X198925714Y-78763809D01*
X198925714Y-78620952D01*
X198878095Y-78430476D01*
X198830476Y-78335238D01*
X198735238Y-78240000D01*
X198592380Y-78192380D01*
X198497142Y-78192380D01*
X198354285Y-78240000D01*
X198306666Y-78287619D01*
X197925714Y-78287619D02*
X197878095Y-78240000D01*
X197782857Y-78192380D01*
X197544761Y-78192380D01*
X197449523Y-78240000D01*
X197401904Y-78287619D01*
X197354285Y-78382857D01*
X197354285Y-78478095D01*
X197401904Y-78620952D01*
X197973333Y-79192380D01*
X197354285Y-79192380D01*
X139334523Y-77922380D02*
X139334523Y-76922380D01*
X139096428Y-76922380D01*
X138953571Y-76970000D01*
X138858333Y-77065238D01*
X138810714Y-77160476D01*
X138763095Y-77350952D01*
X138763095Y-77493809D01*
X138810714Y-77684285D01*
X138858333Y-77779523D01*
X138953571Y-77874761D01*
X139096428Y-77922380D01*
X139334523Y-77922380D01*
X138429761Y-76922380D02*
X137810714Y-76922380D01*
X138144047Y-77303333D01*
X138001190Y-77303333D01*
X137905952Y-77350952D01*
X137858333Y-77398571D01*
X137810714Y-77493809D01*
X137810714Y-77731904D01*
X137858333Y-77827142D01*
X137905952Y-77874761D01*
X138001190Y-77922380D01*
X138286904Y-77922380D01*
X138382142Y-77874761D01*
X138429761Y-77827142D01*
X137191666Y-76922380D02*
X137096428Y-76922380D01*
X137001190Y-76970000D01*
X136953571Y-77017619D01*
X136905952Y-77112857D01*
X136858333Y-77303333D01*
X136858333Y-77541428D01*
X136905952Y-77731904D01*
X136953571Y-77827142D01*
X137001190Y-77874761D01*
X137096428Y-77922380D01*
X137191666Y-77922380D01*
X137286904Y-77874761D01*
X137334523Y-77827142D01*
X137382142Y-77731904D01*
X137429761Y-77541428D01*
X137429761Y-77303333D01*
X137382142Y-77112857D01*
X137334523Y-77017619D01*
X137286904Y-76970000D01*
X137191666Y-76922380D01*
X136429761Y-77541428D02*
X135667857Y-77541428D01*
X135191666Y-77922380D02*
X135191666Y-76922380D01*
X134953571Y-76922380D01*
X134810714Y-76970000D01*
X134715476Y-77065238D01*
X134667857Y-77160476D01*
X134620238Y-77350952D01*
X134620238Y-77493809D01*
X134667857Y-77684285D01*
X134715476Y-77779523D01*
X134810714Y-77874761D01*
X134953571Y-77922380D01*
X135191666Y-77922380D01*
X133667857Y-77922380D02*
X134239285Y-77922380D01*
X133953571Y-77922380D02*
X133953571Y-76922380D01*
X134048809Y-77065238D01*
X134144047Y-77160476D01*
X134239285Y-77208095D01*
X124586904Y-63142380D02*
X124586904Y-63951904D01*
X124539285Y-64047142D01*
X124491666Y-64094761D01*
X124396428Y-64142380D01*
X124205952Y-64142380D01*
X124110714Y-64094761D01*
X124063095Y-64047142D01*
X124015476Y-63951904D01*
X124015476Y-63142380D01*
X123110714Y-63142380D02*
X123301190Y-63142380D01*
X123396428Y-63190000D01*
X123444047Y-63237619D01*
X123539285Y-63380476D01*
X123586904Y-63570952D01*
X123586904Y-63951904D01*
X123539285Y-64047142D01*
X123491666Y-64094761D01*
X123396428Y-64142380D01*
X123205952Y-64142380D01*
X123110714Y-64094761D01*
X123063095Y-64047142D01*
X123015476Y-63951904D01*
X123015476Y-63713809D01*
X123063095Y-63618571D01*
X123110714Y-63570952D01*
X123205952Y-63523333D01*
X123396428Y-63523333D01*
X123491666Y-63570952D01*
X123539285Y-63618571D01*
X123586904Y-63713809D01*
X145510238Y-80367619D02*
X145605476Y-80320000D01*
X145700714Y-80224761D01*
X145843571Y-80081904D01*
X145938809Y-80034285D01*
X146034047Y-80034285D01*
X145986428Y-80272380D02*
X146081666Y-80224761D01*
X146176904Y-80129523D01*
X146224523Y-79939047D01*
X146224523Y-79605714D01*
X146176904Y-79415238D01*
X146081666Y-79320000D01*
X145986428Y-79272380D01*
X145795952Y-79272380D01*
X145700714Y-79320000D01*
X145605476Y-79415238D01*
X145557857Y-79605714D01*
X145557857Y-79939047D01*
X145605476Y-80129523D01*
X145700714Y-80224761D01*
X145795952Y-80272380D01*
X145986428Y-80272380D01*
X145176904Y-79367619D02*
X145129285Y-79320000D01*
X145034047Y-79272380D01*
X144795952Y-79272380D01*
X144700714Y-79320000D01*
X144653095Y-79367619D01*
X144605476Y-79462857D01*
X144605476Y-79558095D01*
X144653095Y-79700952D01*
X145224523Y-80272380D01*
X144605476Y-80272380D01*
X140287619Y-100234761D02*
X140240000Y-100139523D01*
X140144761Y-100044285D01*
X140001904Y-99901428D01*
X139954285Y-99806190D01*
X139954285Y-99710952D01*
X140192380Y-99758571D02*
X140144761Y-99663333D01*
X140049523Y-99568095D01*
X139859047Y-99520476D01*
X139525714Y-99520476D01*
X139335238Y-99568095D01*
X139240000Y-99663333D01*
X139192380Y-99758571D01*
X139192380Y-99949047D01*
X139240000Y-100044285D01*
X139335238Y-100139523D01*
X139525714Y-100187142D01*
X139859047Y-100187142D01*
X140049523Y-100139523D01*
X140144761Y-100044285D01*
X140192380Y-99949047D01*
X140192380Y-99758571D01*
X140192380Y-101139523D02*
X140192380Y-100568095D01*
X140192380Y-100853809D02*
X139192380Y-100853809D01*
X139335238Y-100758571D01*
X139430476Y-100663333D01*
X139478095Y-100568095D01*
X198246904Y-102707380D02*
X198246904Y-103516904D01*
X198199285Y-103612142D01*
X198151666Y-103659761D01*
X198056428Y-103707380D01*
X197865952Y-103707380D01*
X197770714Y-103659761D01*
X197723095Y-103612142D01*
X197675476Y-103516904D01*
X197675476Y-102707380D01*
X196675476Y-103707380D02*
X197246904Y-103707380D01*
X196961190Y-103707380D02*
X196961190Y-102707380D01*
X197056428Y-102850238D01*
X197151666Y-102945476D01*
X197246904Y-102993095D01*
X181697380Y-105283095D02*
X182506904Y-105283095D01*
X182602142Y-105330714D01*
X182649761Y-105378333D01*
X182697380Y-105473571D01*
X182697380Y-105664047D01*
X182649761Y-105759285D01*
X182602142Y-105806904D01*
X182506904Y-105854523D01*
X181697380Y-105854523D01*
X181792619Y-106283095D02*
X181745000Y-106330714D01*
X181697380Y-106425952D01*
X181697380Y-106664047D01*
X181745000Y-106759285D01*
X181792619Y-106806904D01*
X181887857Y-106854523D01*
X181983095Y-106854523D01*
X182125952Y-106806904D01*
X182697380Y-106235476D01*
X182697380Y-106854523D01*
X202898333Y-86657380D02*
X202898333Y-87371666D01*
X202945952Y-87514523D01*
X203041190Y-87609761D01*
X203184047Y-87657380D01*
X203279285Y-87657380D01*
X202469761Y-86752619D02*
X202422142Y-86705000D01*
X202326904Y-86657380D01*
X202088809Y-86657380D01*
X201993571Y-86705000D01*
X201945952Y-86752619D01*
X201898333Y-86847857D01*
X201898333Y-86943095D01*
X201945952Y-87085952D01*
X202517380Y-87657380D01*
X201898333Y-87657380D01*
X190992142Y-89888333D02*
X191039761Y-89840714D01*
X191087380Y-89697857D01*
X191087380Y-89602619D01*
X191039761Y-89459761D01*
X190944523Y-89364523D01*
X190849285Y-89316904D01*
X190658809Y-89269285D01*
X190515952Y-89269285D01*
X190325476Y-89316904D01*
X190230238Y-89364523D01*
X190135000Y-89459761D01*
X190087380Y-89602619D01*
X190087380Y-89697857D01*
X190135000Y-89840714D01*
X190182619Y-89888333D01*
X190087380Y-90745476D02*
X190087380Y-90555000D01*
X190135000Y-90459761D01*
X190182619Y-90412142D01*
X190325476Y-90316904D01*
X190515952Y-90269285D01*
X190896904Y-90269285D01*
X190992142Y-90316904D01*
X191039761Y-90364523D01*
X191087380Y-90459761D01*
X191087380Y-90650238D01*
X191039761Y-90745476D01*
X190992142Y-90793095D01*
X190896904Y-90840714D01*
X190658809Y-90840714D01*
X190563571Y-90793095D01*
X190515952Y-90745476D01*
X190468333Y-90650238D01*
X190468333Y-90459761D01*
X190515952Y-90364523D01*
X190563571Y-90316904D01*
X190658809Y-90269285D01*
X181736904Y-81875380D02*
X181736904Y-82684904D01*
X181689285Y-82780142D01*
X181641666Y-82827761D01*
X181546428Y-82875380D01*
X181355952Y-82875380D01*
X181260714Y-82827761D01*
X181213095Y-82780142D01*
X181165476Y-82684904D01*
X181165476Y-81875380D01*
X180784523Y-81875380D02*
X180165476Y-81875380D01*
X180498809Y-82256333D01*
X180355952Y-82256333D01*
X180260714Y-82303952D01*
X180213095Y-82351571D01*
X180165476Y-82446809D01*
X180165476Y-82684904D01*
X180213095Y-82780142D01*
X180260714Y-82827761D01*
X180355952Y-82875380D01*
X180641666Y-82875380D01*
X180736904Y-82827761D01*
X180784523Y-82780142D01*
X191416666Y-86217142D02*
X191464285Y-86264761D01*
X191607142Y-86312380D01*
X191702380Y-86312380D01*
X191845238Y-86264761D01*
X191940476Y-86169523D01*
X191988095Y-86074285D01*
X192035714Y-85883809D01*
X192035714Y-85740952D01*
X191988095Y-85550476D01*
X191940476Y-85455238D01*
X191845238Y-85360000D01*
X191702380Y-85312380D01*
X191607142Y-85312380D01*
X191464285Y-85360000D01*
X191416666Y-85407619D01*
X190464285Y-86312380D02*
X191035714Y-86312380D01*
X190750000Y-86312380D02*
X190750000Y-85312380D01*
X190845238Y-85455238D01*
X190940476Y-85550476D01*
X191035714Y-85598095D01*
M02*
