G04 #@! TF.GenerationSoftware,KiCad,Pcbnew,(5.1.4)-1*
G04 #@! TF.CreationDate,2019-10-14T12:16:32+11:00*
G04 #@! TF.ProjectId,FoxCam,466f7843-616d-42e6-9b69-6361645f7063,rev?*
G04 #@! TF.SameCoordinates,Original*
G04 #@! TF.FileFunction,Legend,Top*
G04 #@! TF.FilePolarity,Positive*
%FSLAX46Y46*%
G04 Gerber Fmt 4.6, Leading zero omitted, Abs format (unit mm)*
G04 Created by KiCad (PCBNEW (5.1.4)-1) date 2019-10-14 12:16:32*
%MOMM*%
%LPD*%
G04 APERTURE LIST*
%ADD10C,0.120000*%
%ADD11C,0.150000*%
G04 APERTURE END LIST*
D10*
X175295000Y-100360000D02*
X175295000Y-99660000D01*
X176495000Y-99660000D02*
X176495000Y-100360000D01*
X162595000Y-77510000D02*
X162595000Y-74890000D01*
X162595000Y-74890000D02*
X156175000Y-74890000D01*
X156175000Y-74890000D02*
X156175000Y-77510000D01*
X156175000Y-77510000D02*
X162595000Y-77510000D01*
X163485000Y-76200000D02*
X162595000Y-76200000D01*
X155285000Y-76200000D02*
X156175000Y-76200000D01*
X156175000Y-81875000D02*
X156175000Y-84495000D01*
X156175000Y-84495000D02*
X162595000Y-84495000D01*
X162595000Y-84495000D02*
X162595000Y-81875000D01*
X162595000Y-81875000D02*
X156175000Y-81875000D01*
X155285000Y-83185000D02*
X156175000Y-83185000D01*
X163485000Y-83185000D02*
X162595000Y-83185000D01*
X177765000Y-81875000D02*
X177765000Y-84495000D01*
X177765000Y-84495000D02*
X184185000Y-84495000D01*
X184185000Y-84495000D02*
X184185000Y-81875000D01*
X184185000Y-81875000D02*
X177765000Y-81875000D01*
X176875000Y-83185000D02*
X177765000Y-83185000D01*
X185075000Y-83185000D02*
X184185000Y-83185000D01*
X127670000Y-92115000D02*
X127670000Y-89495000D01*
X127670000Y-89495000D02*
X121250000Y-89495000D01*
X121250000Y-89495000D02*
X121250000Y-92115000D01*
X121250000Y-92115000D02*
X127670000Y-92115000D01*
X128560000Y-90805000D02*
X127670000Y-90805000D01*
X120360000Y-90805000D02*
X121250000Y-90805000D01*
X121250000Y-101560000D02*
X121250000Y-104180000D01*
X121250000Y-104180000D02*
X127670000Y-104180000D01*
X127670000Y-104180000D02*
X127670000Y-101560000D01*
X127670000Y-101560000D02*
X121250000Y-101560000D01*
X120360000Y-102870000D02*
X121250000Y-102870000D01*
X128560000Y-102870000D02*
X127670000Y-102870000D01*
X120615000Y-74255000D02*
X120615000Y-76875000D01*
X120615000Y-76875000D02*
X127035000Y-76875000D01*
X127035000Y-76875000D02*
X127035000Y-74255000D01*
X127035000Y-74255000D02*
X120615000Y-74255000D01*
X119725000Y-75565000D02*
X120615000Y-75565000D01*
X127925000Y-75565000D02*
X127035000Y-75565000D01*
X121250000Y-95210000D02*
X121250000Y-97830000D01*
X121250000Y-97830000D02*
X127670000Y-97830000D01*
X127670000Y-97830000D02*
X127670000Y-95210000D01*
X127670000Y-95210000D02*
X121250000Y-95210000D01*
X120360000Y-96520000D02*
X121250000Y-96520000D01*
X128560000Y-96520000D02*
X127670000Y-96520000D01*
X120615000Y-52030000D02*
X120615000Y-54650000D01*
X120615000Y-54650000D02*
X127035000Y-54650000D01*
X127035000Y-54650000D02*
X127035000Y-52030000D01*
X127035000Y-52030000D02*
X120615000Y-52030000D01*
X119725000Y-53340000D02*
X120615000Y-53340000D01*
X127925000Y-53340000D02*
X127035000Y-53340000D01*
X120615000Y-59015000D02*
X120615000Y-61635000D01*
X120615000Y-61635000D02*
X127035000Y-61635000D01*
X127035000Y-61635000D02*
X127035000Y-59015000D01*
X127035000Y-59015000D02*
X120615000Y-59015000D01*
X119725000Y-60325000D02*
X120615000Y-60325000D01*
X127925000Y-60325000D02*
X127035000Y-60325000D01*
X120615000Y-45045000D02*
X120615000Y-47665000D01*
X120615000Y-47665000D02*
X127035000Y-47665000D01*
X127035000Y-47665000D02*
X127035000Y-45045000D01*
X127035000Y-45045000D02*
X120615000Y-45045000D01*
X119725000Y-46355000D02*
X120615000Y-46355000D01*
X127925000Y-46355000D02*
X127035000Y-46355000D01*
X174025000Y-90845000D02*
X174025000Y-88225000D01*
X174025000Y-88225000D02*
X167605000Y-88225000D01*
X167605000Y-88225000D02*
X167605000Y-90845000D01*
X167605000Y-90845000D02*
X174025000Y-90845000D01*
X174915000Y-89535000D02*
X174025000Y-89535000D01*
X166715000Y-89535000D02*
X167605000Y-89535000D01*
X120615000Y-38060000D02*
X120615000Y-40680000D01*
X120615000Y-40680000D02*
X127035000Y-40680000D01*
X127035000Y-40680000D02*
X127035000Y-38060000D01*
X127035000Y-38060000D02*
X120615000Y-38060000D01*
X119725000Y-39370000D02*
X120615000Y-39370000D01*
X127925000Y-39370000D02*
X127035000Y-39370000D01*
D11*
X160020000Y-117475000D02*
G75*
G03X160020000Y-117475000I-1270000J0D01*
G01*
X160020000Y-94615000D02*
G75*
G03X160020000Y-94615000I-1270000J0D01*
G01*
X167640000Y-114935000D02*
X149860000Y-114935000D01*
X167640000Y-97155000D02*
X167640000Y-114935000D01*
X149860000Y-97155000D02*
X167640000Y-97155000D01*
X149860000Y-114935000D02*
X149860000Y-97155000D01*
X166155309Y-106045000D02*
G75*
G03X166155309Y-106045000I-7405309J0D01*
G01*
X184150000Y-113665000D02*
G75*
G03X184150000Y-113665000I-1270000J0D01*
G01*
X184150000Y-98425000D02*
G75*
G03X184150000Y-98425000I-1270000J0D01*
G01*
X176530000Y-100965000D02*
X185420000Y-100965000D01*
X176530000Y-111125000D02*
X176530000Y-100965000D01*
X185420000Y-111125000D02*
X176530000Y-111125000D01*
X132080000Y-118745000D02*
X132080000Y-117475000D01*
X185420000Y-118745000D02*
X132080000Y-118745000D01*
X185420000Y-93345000D02*
X185420000Y-118745000D01*
X185420000Y-93345000D02*
X132080000Y-93345000D01*
X132080000Y-94615000D02*
X132080000Y-93345000D01*
X132080000Y-117475000D02*
X132080000Y-94615000D01*
D10*
X179890000Y-31749538D02*
G75*
G03X185440000Y-33294830I2990000J-462D01*
G01*
X179890000Y-31750462D02*
G75*
G02X185440000Y-30205170I2990000J462D01*
G01*
X185380000Y-31750000D02*
G75*
G03X185380000Y-31750000I-2500000J0D01*
G01*
X185440000Y-33295000D02*
X185440000Y-30205000D01*
X171000000Y-31749538D02*
G75*
G03X176550000Y-33294830I2990000J-462D01*
G01*
X171000000Y-31750462D02*
G75*
G02X176550000Y-30205170I2990000J462D01*
G01*
X176490000Y-31750000D02*
G75*
G03X176490000Y-31750000I-2500000J0D01*
G01*
X176550000Y-33295000D02*
X176550000Y-30205000D01*
X152585000Y-31749538D02*
G75*
G03X158135000Y-33294830I2990000J-462D01*
G01*
X152585000Y-31750462D02*
G75*
G02X158135000Y-30205170I2990000J462D01*
G01*
X158075000Y-31750000D02*
G75*
G03X158075000Y-31750000I-2500000J0D01*
G01*
X158135000Y-33295000D02*
X158135000Y-30205000D01*
X161475000Y-31749538D02*
G75*
G03X167025000Y-33294830I2990000J-462D01*
G01*
X161475000Y-31750462D02*
G75*
G02X167025000Y-30205170I2990000J462D01*
G01*
X166965000Y-31750000D02*
G75*
G03X166965000Y-31750000I-2500000J0D01*
G01*
X167025000Y-33295000D02*
X167025000Y-30205000D01*
X143060000Y-31749538D02*
G75*
G03X148610000Y-33294830I2990000J-462D01*
G01*
X143060000Y-31750462D02*
G75*
G02X148610000Y-30205170I2990000J462D01*
G01*
X148550000Y-31750000D02*
G75*
G03X148550000Y-31750000I-2500000J0D01*
G01*
X148610000Y-33295000D02*
X148610000Y-30205000D01*
X132900000Y-31749538D02*
G75*
G03X138450000Y-33294830I2990000J-462D01*
G01*
X132900000Y-31750462D02*
G75*
G02X138450000Y-30205170I2990000J462D01*
G01*
X138390000Y-31750000D02*
G75*
G03X138390000Y-31750000I-2500000J0D01*
G01*
X138450000Y-33295000D02*
X138450000Y-30205000D01*
X179890000Y-41274538D02*
G75*
G03X185440000Y-42819830I2990000J-462D01*
G01*
X179890000Y-41275462D02*
G75*
G02X185440000Y-39730170I2990000J462D01*
G01*
X185380000Y-41275000D02*
G75*
G03X185380000Y-41275000I-2500000J0D01*
G01*
X185440000Y-42820000D02*
X185440000Y-39730000D01*
X171000000Y-41274538D02*
G75*
G03X176550000Y-42819830I2990000J-462D01*
G01*
X171000000Y-41275462D02*
G75*
G02X176550000Y-39730170I2990000J462D01*
G01*
X176490000Y-41275000D02*
G75*
G03X176490000Y-41275000I-2500000J0D01*
G01*
X176550000Y-42820000D02*
X176550000Y-39730000D01*
X161475000Y-41274538D02*
G75*
G03X167025000Y-42819830I2990000J-462D01*
G01*
X161475000Y-41275462D02*
G75*
G02X167025000Y-39730170I2990000J462D01*
G01*
X166965000Y-41275000D02*
G75*
G03X166965000Y-41275000I-2500000J0D01*
G01*
X167025000Y-42820000D02*
X167025000Y-39730000D01*
X152585000Y-41274538D02*
G75*
G03X158135000Y-42819830I2990000J-462D01*
G01*
X152585000Y-41275462D02*
G75*
G02X158135000Y-39730170I2990000J462D01*
G01*
X158075000Y-41275000D02*
G75*
G03X158075000Y-41275000I-2500000J0D01*
G01*
X158135000Y-42820000D02*
X158135000Y-39730000D01*
X143060000Y-41274538D02*
G75*
G03X148610000Y-42819830I2990000J-462D01*
G01*
X143060000Y-41275462D02*
G75*
G02X148610000Y-39730170I2990000J462D01*
G01*
X148550000Y-41275000D02*
G75*
G03X148550000Y-41275000I-2500000J0D01*
G01*
X148610000Y-42820000D02*
X148610000Y-39730000D01*
X132900000Y-41274538D02*
G75*
G03X138450000Y-42819830I2990000J-462D01*
G01*
X132900000Y-41275462D02*
G75*
G02X138450000Y-39730170I2990000J462D01*
G01*
X138390000Y-41275000D02*
G75*
G03X138390000Y-41275000I-2500000J0D01*
G01*
X138450000Y-42820000D02*
X138450000Y-39730000D01*
X179890000Y-60324538D02*
G75*
G03X185440000Y-61869830I2990000J-462D01*
G01*
X179890000Y-60325462D02*
G75*
G02X185440000Y-58780170I2990000J462D01*
G01*
X185380000Y-60325000D02*
G75*
G03X185380000Y-60325000I-2500000J0D01*
G01*
X185440000Y-61870000D02*
X185440000Y-58780000D01*
X171000000Y-60324538D02*
G75*
G03X176550000Y-61869830I2990000J-462D01*
G01*
X171000000Y-60325462D02*
G75*
G02X176550000Y-58780170I2990000J462D01*
G01*
X176490000Y-60325000D02*
G75*
G03X176490000Y-60325000I-2500000J0D01*
G01*
X176550000Y-61870000D02*
X176550000Y-58780000D01*
X161475000Y-60324538D02*
G75*
G03X167025000Y-61869830I2990000J-462D01*
G01*
X161475000Y-60325462D02*
G75*
G02X167025000Y-58780170I2990000J462D01*
G01*
X166965000Y-60325000D02*
G75*
G03X166965000Y-60325000I-2500000J0D01*
G01*
X167025000Y-61870000D02*
X167025000Y-58780000D01*
X151950000Y-60324538D02*
G75*
G03X157500000Y-61869830I2990000J-462D01*
G01*
X151950000Y-60325462D02*
G75*
G02X157500000Y-58780170I2990000J462D01*
G01*
X157440000Y-60325000D02*
G75*
G03X157440000Y-60325000I-2500000J0D01*
G01*
X157500000Y-61870000D02*
X157500000Y-58780000D01*
X143060000Y-60324538D02*
G75*
G03X148610000Y-61869830I2990000J-462D01*
G01*
X143060000Y-60325462D02*
G75*
G02X148610000Y-58780170I2990000J462D01*
G01*
X148550000Y-60325000D02*
G75*
G03X148550000Y-60325000I-2500000J0D01*
G01*
X148610000Y-61870000D02*
X148610000Y-58780000D01*
X132900000Y-60324538D02*
G75*
G03X138450000Y-61869830I2990000J-462D01*
G01*
X132900000Y-60325462D02*
G75*
G02X138450000Y-58780170I2990000J462D01*
G01*
X138390000Y-60325000D02*
G75*
G03X138390000Y-60325000I-2500000J0D01*
G01*
X138450000Y-61870000D02*
X138450000Y-58780000D01*
X179890000Y-50799538D02*
G75*
G03X185440000Y-52344830I2990000J-462D01*
G01*
X179890000Y-50800462D02*
G75*
G02X185440000Y-49255170I2990000J462D01*
G01*
X185380000Y-50800000D02*
G75*
G03X185380000Y-50800000I-2500000J0D01*
G01*
X185440000Y-52345000D02*
X185440000Y-49255000D01*
X171000000Y-50799538D02*
G75*
G03X176550000Y-52344830I2990000J-462D01*
G01*
X171000000Y-50800462D02*
G75*
G02X176550000Y-49255170I2990000J462D01*
G01*
X176490000Y-50800000D02*
G75*
G03X176490000Y-50800000I-2500000J0D01*
G01*
X176550000Y-52345000D02*
X176550000Y-49255000D01*
X161475000Y-50799538D02*
G75*
G03X167025000Y-52344830I2990000J-462D01*
G01*
X161475000Y-50800462D02*
G75*
G02X167025000Y-49255170I2990000J462D01*
G01*
X166965000Y-50800000D02*
G75*
G03X166965000Y-50800000I-2500000J0D01*
G01*
X167025000Y-52345000D02*
X167025000Y-49255000D01*
X151950000Y-50799538D02*
G75*
G03X157500000Y-52344830I2990000J-462D01*
G01*
X151950000Y-50800462D02*
G75*
G02X157500000Y-49255170I2990000J462D01*
G01*
X157440000Y-50800000D02*
G75*
G03X157440000Y-50800000I-2500000J0D01*
G01*
X157500000Y-52345000D02*
X157500000Y-49255000D01*
X143060000Y-50799538D02*
G75*
G03X148610000Y-52344830I2990000J-462D01*
G01*
X143060000Y-50800462D02*
G75*
G02X148610000Y-49255170I2990000J462D01*
G01*
X148550000Y-50800000D02*
G75*
G03X148550000Y-50800000I-2500000J0D01*
G01*
X148610000Y-52345000D02*
X148610000Y-49255000D01*
X132900000Y-50799538D02*
G75*
G03X138450000Y-52344830I2990000J-462D01*
G01*
X132900000Y-50800462D02*
G75*
G02X138450000Y-49255170I2990000J462D01*
G01*
X138390000Y-50800000D02*
G75*
G03X138390000Y-50800000I-2500000J0D01*
G01*
X138450000Y-52345000D02*
X138450000Y-49255000D01*
X155525000Y-67355000D02*
X155525000Y-71075000D01*
X155525000Y-71075000D02*
X163245000Y-71075000D01*
X163245000Y-71075000D02*
X163245000Y-67355000D01*
X163245000Y-67355000D02*
X155525000Y-67355000D01*
X154415000Y-69215000D02*
X155525000Y-69215000D01*
X164355000Y-69215000D02*
X163245000Y-69215000D01*
X156725000Y-67355000D02*
X156725000Y-71075000D01*
X128320000Y-85045000D02*
X128320000Y-81325000D01*
X128320000Y-81325000D02*
X120600000Y-81325000D01*
X120600000Y-81325000D02*
X120600000Y-85045000D01*
X120600000Y-85045000D02*
X128320000Y-85045000D01*
X129430000Y-83185000D02*
X128320000Y-83185000D01*
X119490000Y-83185000D02*
X120600000Y-83185000D01*
X127120000Y-85045000D02*
X127120000Y-81325000D01*
X174575000Y-67355000D02*
X174575000Y-71075000D01*
X174575000Y-71075000D02*
X182295000Y-71075000D01*
X182295000Y-71075000D02*
X182295000Y-67355000D01*
X182295000Y-67355000D02*
X174575000Y-67355000D01*
X173465000Y-69215000D02*
X174575000Y-69215000D01*
X183405000Y-69215000D02*
X182295000Y-69215000D01*
X175775000Y-67355000D02*
X175775000Y-71075000D01*
X145090000Y-84330000D02*
X144160000Y-84330000D01*
X141930000Y-84330000D02*
X142860000Y-84330000D01*
X141930000Y-84330000D02*
X141930000Y-86490000D01*
X145090000Y-84330000D02*
X145090000Y-85790000D01*
X144830000Y-71075000D02*
X144830000Y-67355000D01*
X144830000Y-67355000D02*
X137110000Y-67355000D01*
X137110000Y-67355000D02*
X137110000Y-71075000D01*
X137110000Y-71075000D02*
X144830000Y-71075000D01*
X145940000Y-69215000D02*
X144830000Y-69215000D01*
X136000000Y-69215000D02*
X137110000Y-69215000D01*
X143630000Y-71075000D02*
X143630000Y-67355000D01*
X136835000Y-74805000D02*
X135905000Y-74805000D01*
X133675000Y-74805000D02*
X134605000Y-74805000D01*
X133675000Y-74805000D02*
X133675000Y-76965000D01*
X136835000Y-74805000D02*
X136835000Y-76265000D01*
D11*
X175002142Y-100176666D02*
X175049761Y-100224285D01*
X175097380Y-100367142D01*
X175097380Y-100462380D01*
X175049761Y-100605238D01*
X174954523Y-100700476D01*
X174859285Y-100748095D01*
X174668809Y-100795714D01*
X174525952Y-100795714D01*
X174335476Y-100748095D01*
X174240238Y-100700476D01*
X174145000Y-100605238D01*
X174097380Y-100462380D01*
X174097380Y-100367142D01*
X174145000Y-100224285D01*
X174192619Y-100176666D01*
X174525952Y-99605238D02*
X174478333Y-99700476D01*
X174430714Y-99748095D01*
X174335476Y-99795714D01*
X174287857Y-99795714D01*
X174192619Y-99748095D01*
X174145000Y-99700476D01*
X174097380Y-99605238D01*
X174097380Y-99414761D01*
X174145000Y-99319523D01*
X174192619Y-99271904D01*
X174287857Y-99224285D01*
X174335476Y-99224285D01*
X174430714Y-99271904D01*
X174478333Y-99319523D01*
X174525952Y-99414761D01*
X174525952Y-99605238D01*
X174573571Y-99700476D01*
X174621190Y-99748095D01*
X174716428Y-99795714D01*
X174906904Y-99795714D01*
X175002142Y-99748095D01*
X175049761Y-99700476D01*
X175097380Y-99605238D01*
X175097380Y-99414761D01*
X175049761Y-99319523D01*
X175002142Y-99271904D01*
X174906904Y-99224285D01*
X174716428Y-99224285D01*
X174621190Y-99271904D01*
X174573571Y-99319523D01*
X174525952Y-99414761D01*
X159218333Y-78962380D02*
X158885000Y-78486190D01*
X158646904Y-78962380D02*
X158646904Y-77962380D01*
X159027857Y-77962380D01*
X159123095Y-78010000D01*
X159170714Y-78057619D01*
X159218333Y-78152857D01*
X159218333Y-78295714D01*
X159170714Y-78390952D01*
X159123095Y-78438571D01*
X159027857Y-78486190D01*
X158646904Y-78486190D01*
X159551666Y-77962380D02*
X160218333Y-77962380D01*
X159789761Y-78962380D01*
X159218333Y-81327380D02*
X158885000Y-80851190D01*
X158646904Y-81327380D02*
X158646904Y-80327380D01*
X159027857Y-80327380D01*
X159123095Y-80375000D01*
X159170714Y-80422619D01*
X159218333Y-80517857D01*
X159218333Y-80660714D01*
X159170714Y-80755952D01*
X159123095Y-80803571D01*
X159027857Y-80851190D01*
X158646904Y-80851190D01*
X159789761Y-80755952D02*
X159694523Y-80708333D01*
X159646904Y-80660714D01*
X159599285Y-80565476D01*
X159599285Y-80517857D01*
X159646904Y-80422619D01*
X159694523Y-80375000D01*
X159789761Y-80327380D01*
X159980238Y-80327380D01*
X160075476Y-80375000D01*
X160123095Y-80422619D01*
X160170714Y-80517857D01*
X160170714Y-80565476D01*
X160123095Y-80660714D01*
X160075476Y-80708333D01*
X159980238Y-80755952D01*
X159789761Y-80755952D01*
X159694523Y-80803571D01*
X159646904Y-80851190D01*
X159599285Y-80946428D01*
X159599285Y-81136904D01*
X159646904Y-81232142D01*
X159694523Y-81279761D01*
X159789761Y-81327380D01*
X159980238Y-81327380D01*
X160075476Y-81279761D01*
X160123095Y-81232142D01*
X160170714Y-81136904D01*
X160170714Y-80946428D01*
X160123095Y-80851190D01*
X160075476Y-80803571D01*
X159980238Y-80755952D01*
X180332142Y-81327380D02*
X179998809Y-80851190D01*
X179760714Y-81327380D02*
X179760714Y-80327380D01*
X180141666Y-80327380D01*
X180236904Y-80375000D01*
X180284523Y-80422619D01*
X180332142Y-80517857D01*
X180332142Y-80660714D01*
X180284523Y-80755952D01*
X180236904Y-80803571D01*
X180141666Y-80851190D01*
X179760714Y-80851190D01*
X181284523Y-81327380D02*
X180713095Y-81327380D01*
X180998809Y-81327380D02*
X180998809Y-80327380D01*
X180903571Y-80470238D01*
X180808333Y-80565476D01*
X180713095Y-80613095D01*
X182141666Y-80327380D02*
X181951190Y-80327380D01*
X181855952Y-80375000D01*
X181808333Y-80422619D01*
X181713095Y-80565476D01*
X181665476Y-80755952D01*
X181665476Y-81136904D01*
X181713095Y-81232142D01*
X181760714Y-81279761D01*
X181855952Y-81327380D01*
X182046428Y-81327380D01*
X182141666Y-81279761D01*
X182189285Y-81232142D01*
X182236904Y-81136904D01*
X182236904Y-80898809D01*
X182189285Y-80803571D01*
X182141666Y-80755952D01*
X182046428Y-80708333D01*
X181855952Y-80708333D01*
X181760714Y-80755952D01*
X181713095Y-80803571D01*
X181665476Y-80898809D01*
X123817142Y-93567380D02*
X123483809Y-93091190D01*
X123245714Y-93567380D02*
X123245714Y-92567380D01*
X123626666Y-92567380D01*
X123721904Y-92615000D01*
X123769523Y-92662619D01*
X123817142Y-92757857D01*
X123817142Y-92900714D01*
X123769523Y-92995952D01*
X123721904Y-93043571D01*
X123626666Y-93091190D01*
X123245714Y-93091190D01*
X124769523Y-93567380D02*
X124198095Y-93567380D01*
X124483809Y-93567380D02*
X124483809Y-92567380D01*
X124388571Y-92710238D01*
X124293333Y-92805476D01*
X124198095Y-92853095D01*
X125340952Y-92995952D02*
X125245714Y-92948333D01*
X125198095Y-92900714D01*
X125150476Y-92805476D01*
X125150476Y-92757857D01*
X125198095Y-92662619D01*
X125245714Y-92615000D01*
X125340952Y-92567380D01*
X125531428Y-92567380D01*
X125626666Y-92615000D01*
X125674285Y-92662619D01*
X125721904Y-92757857D01*
X125721904Y-92805476D01*
X125674285Y-92900714D01*
X125626666Y-92948333D01*
X125531428Y-92995952D01*
X125340952Y-92995952D01*
X125245714Y-93043571D01*
X125198095Y-93091190D01*
X125150476Y-93186428D01*
X125150476Y-93376904D01*
X125198095Y-93472142D01*
X125245714Y-93519761D01*
X125340952Y-93567380D01*
X125531428Y-93567380D01*
X125626666Y-93519761D01*
X125674285Y-93472142D01*
X125721904Y-93376904D01*
X125721904Y-93186428D01*
X125674285Y-93091190D01*
X125626666Y-93043571D01*
X125531428Y-92995952D01*
X123817142Y-101012380D02*
X123483809Y-100536190D01*
X123245714Y-101012380D02*
X123245714Y-100012380D01*
X123626666Y-100012380D01*
X123721904Y-100060000D01*
X123769523Y-100107619D01*
X123817142Y-100202857D01*
X123817142Y-100345714D01*
X123769523Y-100440952D01*
X123721904Y-100488571D01*
X123626666Y-100536190D01*
X123245714Y-100536190D01*
X124769523Y-101012380D02*
X124198095Y-101012380D01*
X124483809Y-101012380D02*
X124483809Y-100012380D01*
X124388571Y-100155238D01*
X124293333Y-100250476D01*
X124198095Y-100298095D01*
X125245714Y-101012380D02*
X125436190Y-101012380D01*
X125531428Y-100964761D01*
X125579047Y-100917142D01*
X125674285Y-100774285D01*
X125721904Y-100583809D01*
X125721904Y-100202857D01*
X125674285Y-100107619D01*
X125626666Y-100060000D01*
X125531428Y-100012380D01*
X125340952Y-100012380D01*
X125245714Y-100060000D01*
X125198095Y-100107619D01*
X125150476Y-100202857D01*
X125150476Y-100440952D01*
X125198095Y-100536190D01*
X125245714Y-100583809D01*
X125340952Y-100631428D01*
X125531428Y-100631428D01*
X125626666Y-100583809D01*
X125674285Y-100536190D01*
X125721904Y-100440952D01*
X123182142Y-73707380D02*
X122848809Y-73231190D01*
X122610714Y-73707380D02*
X122610714Y-72707380D01*
X122991666Y-72707380D01*
X123086904Y-72755000D01*
X123134523Y-72802619D01*
X123182142Y-72897857D01*
X123182142Y-73040714D01*
X123134523Y-73135952D01*
X123086904Y-73183571D01*
X122991666Y-73231190D01*
X122610714Y-73231190D01*
X123563095Y-72802619D02*
X123610714Y-72755000D01*
X123705952Y-72707380D01*
X123944047Y-72707380D01*
X124039285Y-72755000D01*
X124086904Y-72802619D01*
X124134523Y-72897857D01*
X124134523Y-72993095D01*
X124086904Y-73135952D01*
X123515476Y-73707380D01*
X124134523Y-73707380D01*
X124753571Y-72707380D02*
X124848809Y-72707380D01*
X124944047Y-72755000D01*
X124991666Y-72802619D01*
X125039285Y-72897857D01*
X125086904Y-73088333D01*
X125086904Y-73326428D01*
X125039285Y-73516904D01*
X124991666Y-73612142D01*
X124944047Y-73659761D01*
X124848809Y-73707380D01*
X124753571Y-73707380D01*
X124658333Y-73659761D01*
X124610714Y-73612142D01*
X124563095Y-73516904D01*
X124515476Y-73326428D01*
X124515476Y-73088333D01*
X124563095Y-72897857D01*
X124610714Y-72802619D01*
X124658333Y-72755000D01*
X124753571Y-72707380D01*
X123817142Y-94662380D02*
X123483809Y-94186190D01*
X123245714Y-94662380D02*
X123245714Y-93662380D01*
X123626666Y-93662380D01*
X123721904Y-93710000D01*
X123769523Y-93757619D01*
X123817142Y-93852857D01*
X123817142Y-93995714D01*
X123769523Y-94090952D01*
X123721904Y-94138571D01*
X123626666Y-94186190D01*
X123245714Y-94186190D01*
X124198095Y-93757619D02*
X124245714Y-93710000D01*
X124340952Y-93662380D01*
X124579047Y-93662380D01*
X124674285Y-93710000D01*
X124721904Y-93757619D01*
X124769523Y-93852857D01*
X124769523Y-93948095D01*
X124721904Y-94090952D01*
X124150476Y-94662380D01*
X124769523Y-94662380D01*
X125150476Y-93757619D02*
X125198095Y-93710000D01*
X125293333Y-93662380D01*
X125531428Y-93662380D01*
X125626666Y-93710000D01*
X125674285Y-93757619D01*
X125721904Y-93852857D01*
X125721904Y-93948095D01*
X125674285Y-94090952D01*
X125102857Y-94662380D01*
X125721904Y-94662380D01*
X123182142Y-51482380D02*
X122848809Y-51006190D01*
X122610714Y-51482380D02*
X122610714Y-50482380D01*
X122991666Y-50482380D01*
X123086904Y-50530000D01*
X123134523Y-50577619D01*
X123182142Y-50672857D01*
X123182142Y-50815714D01*
X123134523Y-50910952D01*
X123086904Y-50958571D01*
X122991666Y-51006190D01*
X122610714Y-51006190D01*
X123563095Y-50577619D02*
X123610714Y-50530000D01*
X123705952Y-50482380D01*
X123944047Y-50482380D01*
X124039285Y-50530000D01*
X124086904Y-50577619D01*
X124134523Y-50672857D01*
X124134523Y-50768095D01*
X124086904Y-50910952D01*
X123515476Y-51482380D01*
X124134523Y-51482380D01*
X125086904Y-51482380D02*
X124515476Y-51482380D01*
X124801190Y-51482380D02*
X124801190Y-50482380D01*
X124705952Y-50625238D01*
X124610714Y-50720476D01*
X124515476Y-50768095D01*
X123182142Y-58467380D02*
X122848809Y-57991190D01*
X122610714Y-58467380D02*
X122610714Y-57467380D01*
X122991666Y-57467380D01*
X123086904Y-57515000D01*
X123134523Y-57562619D01*
X123182142Y-57657857D01*
X123182142Y-57800714D01*
X123134523Y-57895952D01*
X123086904Y-57943571D01*
X122991666Y-57991190D01*
X122610714Y-57991190D01*
X123563095Y-57562619D02*
X123610714Y-57515000D01*
X123705952Y-57467380D01*
X123944047Y-57467380D01*
X124039285Y-57515000D01*
X124086904Y-57562619D01*
X124134523Y-57657857D01*
X124134523Y-57753095D01*
X124086904Y-57895952D01*
X123515476Y-58467380D01*
X124134523Y-58467380D01*
X124467857Y-57467380D02*
X125086904Y-57467380D01*
X124753571Y-57848333D01*
X124896428Y-57848333D01*
X124991666Y-57895952D01*
X125039285Y-57943571D01*
X125086904Y-58038809D01*
X125086904Y-58276904D01*
X125039285Y-58372142D01*
X124991666Y-58419761D01*
X124896428Y-58467380D01*
X124610714Y-58467380D01*
X124515476Y-58419761D01*
X124467857Y-58372142D01*
X123182142Y-44497380D02*
X122848809Y-44021190D01*
X122610714Y-44497380D02*
X122610714Y-43497380D01*
X122991666Y-43497380D01*
X123086904Y-43545000D01*
X123134523Y-43592619D01*
X123182142Y-43687857D01*
X123182142Y-43830714D01*
X123134523Y-43925952D01*
X123086904Y-43973571D01*
X122991666Y-44021190D01*
X122610714Y-44021190D01*
X123563095Y-43592619D02*
X123610714Y-43545000D01*
X123705952Y-43497380D01*
X123944047Y-43497380D01*
X124039285Y-43545000D01*
X124086904Y-43592619D01*
X124134523Y-43687857D01*
X124134523Y-43783095D01*
X124086904Y-43925952D01*
X123515476Y-44497380D01*
X124134523Y-44497380D01*
X124991666Y-43830714D02*
X124991666Y-44497380D01*
X124753571Y-43449761D02*
X124515476Y-44164047D01*
X125134523Y-44164047D01*
X170172142Y-92297380D02*
X169838809Y-91821190D01*
X169600714Y-92297380D02*
X169600714Y-91297380D01*
X169981666Y-91297380D01*
X170076904Y-91345000D01*
X170124523Y-91392619D01*
X170172142Y-91487857D01*
X170172142Y-91630714D01*
X170124523Y-91725952D01*
X170076904Y-91773571D01*
X169981666Y-91821190D01*
X169600714Y-91821190D01*
X170553095Y-91392619D02*
X170600714Y-91345000D01*
X170695952Y-91297380D01*
X170934047Y-91297380D01*
X171029285Y-91345000D01*
X171076904Y-91392619D01*
X171124523Y-91487857D01*
X171124523Y-91583095D01*
X171076904Y-91725952D01*
X170505476Y-92297380D01*
X171124523Y-92297380D01*
X172029285Y-91297380D02*
X171553095Y-91297380D01*
X171505476Y-91773571D01*
X171553095Y-91725952D01*
X171648333Y-91678333D01*
X171886428Y-91678333D01*
X171981666Y-91725952D01*
X172029285Y-91773571D01*
X172076904Y-91868809D01*
X172076904Y-92106904D01*
X172029285Y-92202142D01*
X171981666Y-92249761D01*
X171886428Y-92297380D01*
X171648333Y-92297380D01*
X171553095Y-92249761D01*
X171505476Y-92202142D01*
X123182142Y-37512380D02*
X122848809Y-37036190D01*
X122610714Y-37512380D02*
X122610714Y-36512380D01*
X122991666Y-36512380D01*
X123086904Y-36560000D01*
X123134523Y-36607619D01*
X123182142Y-36702857D01*
X123182142Y-36845714D01*
X123134523Y-36940952D01*
X123086904Y-36988571D01*
X122991666Y-37036190D01*
X122610714Y-37036190D01*
X123563095Y-36607619D02*
X123610714Y-36560000D01*
X123705952Y-36512380D01*
X123944047Y-36512380D01*
X124039285Y-36560000D01*
X124086904Y-36607619D01*
X124134523Y-36702857D01*
X124134523Y-36798095D01*
X124086904Y-36940952D01*
X123515476Y-37512380D01*
X124134523Y-37512380D01*
X124991666Y-36512380D02*
X124801190Y-36512380D01*
X124705952Y-36560000D01*
X124658333Y-36607619D01*
X124563095Y-36750476D01*
X124515476Y-36940952D01*
X124515476Y-37321904D01*
X124563095Y-37417142D01*
X124610714Y-37464761D01*
X124705952Y-37512380D01*
X124896428Y-37512380D01*
X124991666Y-37464761D01*
X125039285Y-37417142D01*
X125086904Y-37321904D01*
X125086904Y-37083809D01*
X125039285Y-36988571D01*
X124991666Y-36940952D01*
X124896428Y-36893333D01*
X124705952Y-36893333D01*
X124610714Y-36940952D01*
X124563095Y-36988571D01*
X124515476Y-37083809D01*
X130262380Y-106806904D02*
X131071904Y-106806904D01*
X131167142Y-106759285D01*
X131214761Y-106711666D01*
X131262380Y-106616428D01*
X131262380Y-106425952D01*
X131214761Y-106330714D01*
X131167142Y-106283095D01*
X131071904Y-106235476D01*
X130262380Y-106235476D01*
X130595714Y-105330714D02*
X131262380Y-105330714D01*
X130214761Y-105568809D02*
X130929047Y-105806904D01*
X130929047Y-105187857D01*
X181665714Y-36162380D02*
X181665714Y-35162380D01*
X181903809Y-35162380D01*
X182046666Y-35210000D01*
X182141904Y-35305238D01*
X182189523Y-35400476D01*
X182237142Y-35590952D01*
X182237142Y-35733809D01*
X182189523Y-35924285D01*
X182141904Y-36019523D01*
X182046666Y-36114761D01*
X181903809Y-36162380D01*
X181665714Y-36162380D01*
X182570476Y-35162380D02*
X183189523Y-35162380D01*
X182856190Y-35543333D01*
X182999047Y-35543333D01*
X183094285Y-35590952D01*
X183141904Y-35638571D01*
X183189523Y-35733809D01*
X183189523Y-35971904D01*
X183141904Y-36067142D01*
X183094285Y-36114761D01*
X182999047Y-36162380D01*
X182713333Y-36162380D01*
X182618095Y-36114761D01*
X182570476Y-36067142D01*
X183808571Y-35162380D02*
X183903809Y-35162380D01*
X183999047Y-35210000D01*
X184046666Y-35257619D01*
X184094285Y-35352857D01*
X184141904Y-35543333D01*
X184141904Y-35781428D01*
X184094285Y-35971904D01*
X184046666Y-36067142D01*
X183999047Y-36114761D01*
X183903809Y-36162380D01*
X183808571Y-36162380D01*
X183713333Y-36114761D01*
X183665714Y-36067142D01*
X183618095Y-35971904D01*
X183570476Y-35781428D01*
X183570476Y-35543333D01*
X183618095Y-35352857D01*
X183665714Y-35257619D01*
X183713333Y-35210000D01*
X183808571Y-35162380D01*
X172775714Y-36162380D02*
X172775714Y-35162380D01*
X173013809Y-35162380D01*
X173156666Y-35210000D01*
X173251904Y-35305238D01*
X173299523Y-35400476D01*
X173347142Y-35590952D01*
X173347142Y-35733809D01*
X173299523Y-35924285D01*
X173251904Y-36019523D01*
X173156666Y-36114761D01*
X173013809Y-36162380D01*
X172775714Y-36162380D01*
X173728095Y-35257619D02*
X173775714Y-35210000D01*
X173870952Y-35162380D01*
X174109047Y-35162380D01*
X174204285Y-35210000D01*
X174251904Y-35257619D01*
X174299523Y-35352857D01*
X174299523Y-35448095D01*
X174251904Y-35590952D01*
X173680476Y-36162380D01*
X174299523Y-36162380D01*
X174775714Y-36162380D02*
X174966190Y-36162380D01*
X175061428Y-36114761D01*
X175109047Y-36067142D01*
X175204285Y-35924285D01*
X175251904Y-35733809D01*
X175251904Y-35352857D01*
X175204285Y-35257619D01*
X175156666Y-35210000D01*
X175061428Y-35162380D01*
X174870952Y-35162380D01*
X174775714Y-35210000D01*
X174728095Y-35257619D01*
X174680476Y-35352857D01*
X174680476Y-35590952D01*
X174728095Y-35686190D01*
X174775714Y-35733809D01*
X174870952Y-35781428D01*
X175061428Y-35781428D01*
X175156666Y-35733809D01*
X175204285Y-35686190D01*
X175251904Y-35590952D01*
X154360714Y-36162380D02*
X154360714Y-35162380D01*
X154598809Y-35162380D01*
X154741666Y-35210000D01*
X154836904Y-35305238D01*
X154884523Y-35400476D01*
X154932142Y-35590952D01*
X154932142Y-35733809D01*
X154884523Y-35924285D01*
X154836904Y-36019523D01*
X154741666Y-36114761D01*
X154598809Y-36162380D01*
X154360714Y-36162380D01*
X155313095Y-35257619D02*
X155360714Y-35210000D01*
X155455952Y-35162380D01*
X155694047Y-35162380D01*
X155789285Y-35210000D01*
X155836904Y-35257619D01*
X155884523Y-35352857D01*
X155884523Y-35448095D01*
X155836904Y-35590952D01*
X155265476Y-36162380D01*
X155884523Y-36162380D01*
X156455952Y-35590952D02*
X156360714Y-35543333D01*
X156313095Y-35495714D01*
X156265476Y-35400476D01*
X156265476Y-35352857D01*
X156313095Y-35257619D01*
X156360714Y-35210000D01*
X156455952Y-35162380D01*
X156646428Y-35162380D01*
X156741666Y-35210000D01*
X156789285Y-35257619D01*
X156836904Y-35352857D01*
X156836904Y-35400476D01*
X156789285Y-35495714D01*
X156741666Y-35543333D01*
X156646428Y-35590952D01*
X156455952Y-35590952D01*
X156360714Y-35638571D01*
X156313095Y-35686190D01*
X156265476Y-35781428D01*
X156265476Y-35971904D01*
X156313095Y-36067142D01*
X156360714Y-36114761D01*
X156455952Y-36162380D01*
X156646428Y-36162380D01*
X156741666Y-36114761D01*
X156789285Y-36067142D01*
X156836904Y-35971904D01*
X156836904Y-35781428D01*
X156789285Y-35686190D01*
X156741666Y-35638571D01*
X156646428Y-35590952D01*
X162536428Y-36162380D02*
X162536428Y-35162380D01*
X162774523Y-35162380D01*
X162917380Y-35210000D01*
X163012619Y-35305238D01*
X163060238Y-35400476D01*
X163107857Y-35590952D01*
X163107857Y-35733809D01*
X163060238Y-35924285D01*
X163012619Y-36019523D01*
X162917380Y-36114761D01*
X162774523Y-36162380D01*
X162536428Y-36162380D01*
X163488809Y-35257619D02*
X163536428Y-35210000D01*
X163631666Y-35162380D01*
X163869761Y-35162380D01*
X163965000Y-35210000D01*
X164012619Y-35257619D01*
X164060238Y-35352857D01*
X164060238Y-35448095D01*
X164012619Y-35590952D01*
X163441190Y-36162380D01*
X164060238Y-36162380D01*
X164393571Y-35162380D02*
X165060238Y-35162380D01*
X164631666Y-36162380D01*
X165441190Y-36067142D02*
X165488809Y-36114761D01*
X165441190Y-36162380D01*
X165393571Y-36114761D01*
X165441190Y-36067142D01*
X165441190Y-36162380D01*
X166441190Y-36162380D02*
X165869761Y-36162380D01*
X166155476Y-36162380D02*
X166155476Y-35162380D01*
X166060238Y-35305238D01*
X165965000Y-35400476D01*
X165869761Y-35448095D01*
X144835714Y-36162380D02*
X144835714Y-35162380D01*
X145073809Y-35162380D01*
X145216666Y-35210000D01*
X145311904Y-35305238D01*
X145359523Y-35400476D01*
X145407142Y-35590952D01*
X145407142Y-35733809D01*
X145359523Y-35924285D01*
X145311904Y-36019523D01*
X145216666Y-36114761D01*
X145073809Y-36162380D01*
X144835714Y-36162380D01*
X145788095Y-35257619D02*
X145835714Y-35210000D01*
X145930952Y-35162380D01*
X146169047Y-35162380D01*
X146264285Y-35210000D01*
X146311904Y-35257619D01*
X146359523Y-35352857D01*
X146359523Y-35448095D01*
X146311904Y-35590952D01*
X145740476Y-36162380D01*
X146359523Y-36162380D01*
X146692857Y-35162380D02*
X147359523Y-35162380D01*
X146930952Y-36162380D01*
X134675714Y-36162380D02*
X134675714Y-35162380D01*
X134913809Y-35162380D01*
X135056666Y-35210000D01*
X135151904Y-35305238D01*
X135199523Y-35400476D01*
X135247142Y-35590952D01*
X135247142Y-35733809D01*
X135199523Y-35924285D01*
X135151904Y-36019523D01*
X135056666Y-36114761D01*
X134913809Y-36162380D01*
X134675714Y-36162380D01*
X135628095Y-35257619D02*
X135675714Y-35210000D01*
X135770952Y-35162380D01*
X136009047Y-35162380D01*
X136104285Y-35210000D01*
X136151904Y-35257619D01*
X136199523Y-35352857D01*
X136199523Y-35448095D01*
X136151904Y-35590952D01*
X135580476Y-36162380D01*
X136199523Y-36162380D01*
X137056666Y-35162380D02*
X136866190Y-35162380D01*
X136770952Y-35210000D01*
X136723333Y-35257619D01*
X136628095Y-35400476D01*
X136580476Y-35590952D01*
X136580476Y-35971904D01*
X136628095Y-36067142D01*
X136675714Y-36114761D01*
X136770952Y-36162380D01*
X136961428Y-36162380D01*
X137056666Y-36114761D01*
X137104285Y-36067142D01*
X137151904Y-35971904D01*
X137151904Y-35733809D01*
X137104285Y-35638571D01*
X137056666Y-35590952D01*
X136961428Y-35543333D01*
X136770952Y-35543333D01*
X136675714Y-35590952D01*
X136628095Y-35638571D01*
X136580476Y-35733809D01*
X181665714Y-45687380D02*
X181665714Y-44687380D01*
X181903809Y-44687380D01*
X182046666Y-44735000D01*
X182141904Y-44830238D01*
X182189523Y-44925476D01*
X182237142Y-45115952D01*
X182237142Y-45258809D01*
X182189523Y-45449285D01*
X182141904Y-45544523D01*
X182046666Y-45639761D01*
X181903809Y-45687380D01*
X181665714Y-45687380D01*
X182618095Y-44782619D02*
X182665714Y-44735000D01*
X182760952Y-44687380D01*
X182999047Y-44687380D01*
X183094285Y-44735000D01*
X183141904Y-44782619D01*
X183189523Y-44877857D01*
X183189523Y-44973095D01*
X183141904Y-45115952D01*
X182570476Y-45687380D01*
X183189523Y-45687380D01*
X184094285Y-44687380D02*
X183618095Y-44687380D01*
X183570476Y-45163571D01*
X183618095Y-45115952D01*
X183713333Y-45068333D01*
X183951428Y-45068333D01*
X184046666Y-45115952D01*
X184094285Y-45163571D01*
X184141904Y-45258809D01*
X184141904Y-45496904D01*
X184094285Y-45592142D01*
X184046666Y-45639761D01*
X183951428Y-45687380D01*
X183713333Y-45687380D01*
X183618095Y-45639761D01*
X183570476Y-45592142D01*
X172775714Y-45687380D02*
X172775714Y-44687380D01*
X173013809Y-44687380D01*
X173156666Y-44735000D01*
X173251904Y-44830238D01*
X173299523Y-44925476D01*
X173347142Y-45115952D01*
X173347142Y-45258809D01*
X173299523Y-45449285D01*
X173251904Y-45544523D01*
X173156666Y-45639761D01*
X173013809Y-45687380D01*
X172775714Y-45687380D01*
X173728095Y-44782619D02*
X173775714Y-44735000D01*
X173870952Y-44687380D01*
X174109047Y-44687380D01*
X174204285Y-44735000D01*
X174251904Y-44782619D01*
X174299523Y-44877857D01*
X174299523Y-44973095D01*
X174251904Y-45115952D01*
X173680476Y-45687380D01*
X174299523Y-45687380D01*
X175156666Y-45020714D02*
X175156666Y-45687380D01*
X174918571Y-44639761D02*
X174680476Y-45354047D01*
X175299523Y-45354047D01*
X163250714Y-45687380D02*
X163250714Y-44687380D01*
X163488809Y-44687380D01*
X163631666Y-44735000D01*
X163726904Y-44830238D01*
X163774523Y-44925476D01*
X163822142Y-45115952D01*
X163822142Y-45258809D01*
X163774523Y-45449285D01*
X163726904Y-45544523D01*
X163631666Y-45639761D01*
X163488809Y-45687380D01*
X163250714Y-45687380D01*
X164203095Y-44782619D02*
X164250714Y-44735000D01*
X164345952Y-44687380D01*
X164584047Y-44687380D01*
X164679285Y-44735000D01*
X164726904Y-44782619D01*
X164774523Y-44877857D01*
X164774523Y-44973095D01*
X164726904Y-45115952D01*
X164155476Y-45687380D01*
X164774523Y-45687380D01*
X165107857Y-44687380D02*
X165726904Y-44687380D01*
X165393571Y-45068333D01*
X165536428Y-45068333D01*
X165631666Y-45115952D01*
X165679285Y-45163571D01*
X165726904Y-45258809D01*
X165726904Y-45496904D01*
X165679285Y-45592142D01*
X165631666Y-45639761D01*
X165536428Y-45687380D01*
X165250714Y-45687380D01*
X165155476Y-45639761D01*
X165107857Y-45592142D01*
X154360714Y-45687380D02*
X154360714Y-44687380D01*
X154598809Y-44687380D01*
X154741666Y-44735000D01*
X154836904Y-44830238D01*
X154884523Y-44925476D01*
X154932142Y-45115952D01*
X154932142Y-45258809D01*
X154884523Y-45449285D01*
X154836904Y-45544523D01*
X154741666Y-45639761D01*
X154598809Y-45687380D01*
X154360714Y-45687380D01*
X155313095Y-44782619D02*
X155360714Y-44735000D01*
X155455952Y-44687380D01*
X155694047Y-44687380D01*
X155789285Y-44735000D01*
X155836904Y-44782619D01*
X155884523Y-44877857D01*
X155884523Y-44973095D01*
X155836904Y-45115952D01*
X155265476Y-45687380D01*
X155884523Y-45687380D01*
X156265476Y-44782619D02*
X156313095Y-44735000D01*
X156408333Y-44687380D01*
X156646428Y-44687380D01*
X156741666Y-44735000D01*
X156789285Y-44782619D01*
X156836904Y-44877857D01*
X156836904Y-44973095D01*
X156789285Y-45115952D01*
X156217857Y-45687380D01*
X156836904Y-45687380D01*
X144835714Y-45687380D02*
X144835714Y-44687380D01*
X145073809Y-44687380D01*
X145216666Y-44735000D01*
X145311904Y-44830238D01*
X145359523Y-44925476D01*
X145407142Y-45115952D01*
X145407142Y-45258809D01*
X145359523Y-45449285D01*
X145311904Y-45544523D01*
X145216666Y-45639761D01*
X145073809Y-45687380D01*
X144835714Y-45687380D01*
X145788095Y-44782619D02*
X145835714Y-44735000D01*
X145930952Y-44687380D01*
X146169047Y-44687380D01*
X146264285Y-44735000D01*
X146311904Y-44782619D01*
X146359523Y-44877857D01*
X146359523Y-44973095D01*
X146311904Y-45115952D01*
X145740476Y-45687380D01*
X146359523Y-45687380D01*
X147311904Y-45687380D02*
X146740476Y-45687380D01*
X147026190Y-45687380D02*
X147026190Y-44687380D01*
X146930952Y-44830238D01*
X146835714Y-44925476D01*
X146740476Y-44973095D01*
X134675714Y-45687380D02*
X134675714Y-44687380D01*
X134913809Y-44687380D01*
X135056666Y-44735000D01*
X135151904Y-44830238D01*
X135199523Y-44925476D01*
X135247142Y-45115952D01*
X135247142Y-45258809D01*
X135199523Y-45449285D01*
X135151904Y-45544523D01*
X135056666Y-45639761D01*
X134913809Y-45687380D01*
X134675714Y-45687380D01*
X135628095Y-44782619D02*
X135675714Y-44735000D01*
X135770952Y-44687380D01*
X136009047Y-44687380D01*
X136104285Y-44735000D01*
X136151904Y-44782619D01*
X136199523Y-44877857D01*
X136199523Y-44973095D01*
X136151904Y-45115952D01*
X135580476Y-45687380D01*
X136199523Y-45687380D01*
X136818571Y-44687380D02*
X136913809Y-44687380D01*
X137009047Y-44735000D01*
X137056666Y-44782619D01*
X137104285Y-44877857D01*
X137151904Y-45068333D01*
X137151904Y-45306428D01*
X137104285Y-45496904D01*
X137056666Y-45592142D01*
X137009047Y-45639761D01*
X136913809Y-45687380D01*
X136818571Y-45687380D01*
X136723333Y-45639761D01*
X136675714Y-45592142D01*
X136628095Y-45496904D01*
X136580476Y-45306428D01*
X136580476Y-45068333D01*
X136628095Y-44877857D01*
X136675714Y-44782619D01*
X136723333Y-44735000D01*
X136818571Y-44687380D01*
X181665714Y-64737380D02*
X181665714Y-63737380D01*
X181903809Y-63737380D01*
X182046666Y-63785000D01*
X182141904Y-63880238D01*
X182189523Y-63975476D01*
X182237142Y-64165952D01*
X182237142Y-64308809D01*
X182189523Y-64499285D01*
X182141904Y-64594523D01*
X182046666Y-64689761D01*
X181903809Y-64737380D01*
X181665714Y-64737380D01*
X183189523Y-64737380D02*
X182618095Y-64737380D01*
X182903809Y-64737380D02*
X182903809Y-63737380D01*
X182808571Y-63880238D01*
X182713333Y-63975476D01*
X182618095Y-64023095D01*
X183665714Y-64737380D02*
X183856190Y-64737380D01*
X183951428Y-64689761D01*
X183999047Y-64642142D01*
X184094285Y-64499285D01*
X184141904Y-64308809D01*
X184141904Y-63927857D01*
X184094285Y-63832619D01*
X184046666Y-63785000D01*
X183951428Y-63737380D01*
X183760952Y-63737380D01*
X183665714Y-63785000D01*
X183618095Y-63832619D01*
X183570476Y-63927857D01*
X183570476Y-64165952D01*
X183618095Y-64261190D01*
X183665714Y-64308809D01*
X183760952Y-64356428D01*
X183951428Y-64356428D01*
X184046666Y-64308809D01*
X184094285Y-64261190D01*
X184141904Y-64165952D01*
X172775714Y-64737380D02*
X172775714Y-63737380D01*
X173013809Y-63737380D01*
X173156666Y-63785000D01*
X173251904Y-63880238D01*
X173299523Y-63975476D01*
X173347142Y-64165952D01*
X173347142Y-64308809D01*
X173299523Y-64499285D01*
X173251904Y-64594523D01*
X173156666Y-64689761D01*
X173013809Y-64737380D01*
X172775714Y-64737380D01*
X174299523Y-64737380D02*
X173728095Y-64737380D01*
X174013809Y-64737380D02*
X174013809Y-63737380D01*
X173918571Y-63880238D01*
X173823333Y-63975476D01*
X173728095Y-64023095D01*
X174870952Y-64165952D02*
X174775714Y-64118333D01*
X174728095Y-64070714D01*
X174680476Y-63975476D01*
X174680476Y-63927857D01*
X174728095Y-63832619D01*
X174775714Y-63785000D01*
X174870952Y-63737380D01*
X175061428Y-63737380D01*
X175156666Y-63785000D01*
X175204285Y-63832619D01*
X175251904Y-63927857D01*
X175251904Y-63975476D01*
X175204285Y-64070714D01*
X175156666Y-64118333D01*
X175061428Y-64165952D01*
X174870952Y-64165952D01*
X174775714Y-64213571D01*
X174728095Y-64261190D01*
X174680476Y-64356428D01*
X174680476Y-64546904D01*
X174728095Y-64642142D01*
X174775714Y-64689761D01*
X174870952Y-64737380D01*
X175061428Y-64737380D01*
X175156666Y-64689761D01*
X175204285Y-64642142D01*
X175251904Y-64546904D01*
X175251904Y-64356428D01*
X175204285Y-64261190D01*
X175156666Y-64213571D01*
X175061428Y-64165952D01*
X163250714Y-64737380D02*
X163250714Y-63737380D01*
X163488809Y-63737380D01*
X163631666Y-63785000D01*
X163726904Y-63880238D01*
X163774523Y-63975476D01*
X163822142Y-64165952D01*
X163822142Y-64308809D01*
X163774523Y-64499285D01*
X163726904Y-64594523D01*
X163631666Y-64689761D01*
X163488809Y-64737380D01*
X163250714Y-64737380D01*
X164774523Y-64737380D02*
X164203095Y-64737380D01*
X164488809Y-64737380D02*
X164488809Y-63737380D01*
X164393571Y-63880238D01*
X164298333Y-63975476D01*
X164203095Y-64023095D01*
X165107857Y-63737380D02*
X165774523Y-63737380D01*
X165345952Y-64737380D01*
X153725714Y-64737380D02*
X153725714Y-63737380D01*
X153963809Y-63737380D01*
X154106666Y-63785000D01*
X154201904Y-63880238D01*
X154249523Y-63975476D01*
X154297142Y-64165952D01*
X154297142Y-64308809D01*
X154249523Y-64499285D01*
X154201904Y-64594523D01*
X154106666Y-64689761D01*
X153963809Y-64737380D01*
X153725714Y-64737380D01*
X155249523Y-64737380D02*
X154678095Y-64737380D01*
X154963809Y-64737380D02*
X154963809Y-63737380D01*
X154868571Y-63880238D01*
X154773333Y-63975476D01*
X154678095Y-64023095D01*
X156106666Y-63737380D02*
X155916190Y-63737380D01*
X155820952Y-63785000D01*
X155773333Y-63832619D01*
X155678095Y-63975476D01*
X155630476Y-64165952D01*
X155630476Y-64546904D01*
X155678095Y-64642142D01*
X155725714Y-64689761D01*
X155820952Y-64737380D01*
X156011428Y-64737380D01*
X156106666Y-64689761D01*
X156154285Y-64642142D01*
X156201904Y-64546904D01*
X156201904Y-64308809D01*
X156154285Y-64213571D01*
X156106666Y-64165952D01*
X156011428Y-64118333D01*
X155820952Y-64118333D01*
X155725714Y-64165952D01*
X155678095Y-64213571D01*
X155630476Y-64308809D01*
X144835714Y-64737380D02*
X144835714Y-63737380D01*
X145073809Y-63737380D01*
X145216666Y-63785000D01*
X145311904Y-63880238D01*
X145359523Y-63975476D01*
X145407142Y-64165952D01*
X145407142Y-64308809D01*
X145359523Y-64499285D01*
X145311904Y-64594523D01*
X145216666Y-64689761D01*
X145073809Y-64737380D01*
X144835714Y-64737380D01*
X146359523Y-64737380D02*
X145788095Y-64737380D01*
X146073809Y-64737380D02*
X146073809Y-63737380D01*
X145978571Y-63880238D01*
X145883333Y-63975476D01*
X145788095Y-64023095D01*
X147264285Y-63737380D02*
X146788095Y-63737380D01*
X146740476Y-64213571D01*
X146788095Y-64165952D01*
X146883333Y-64118333D01*
X147121428Y-64118333D01*
X147216666Y-64165952D01*
X147264285Y-64213571D01*
X147311904Y-64308809D01*
X147311904Y-64546904D01*
X147264285Y-64642142D01*
X147216666Y-64689761D01*
X147121428Y-64737380D01*
X146883333Y-64737380D01*
X146788095Y-64689761D01*
X146740476Y-64642142D01*
X134675714Y-64737380D02*
X134675714Y-63737380D01*
X134913809Y-63737380D01*
X135056666Y-63785000D01*
X135151904Y-63880238D01*
X135199523Y-63975476D01*
X135247142Y-64165952D01*
X135247142Y-64308809D01*
X135199523Y-64499285D01*
X135151904Y-64594523D01*
X135056666Y-64689761D01*
X134913809Y-64737380D01*
X134675714Y-64737380D01*
X136199523Y-64737380D02*
X135628095Y-64737380D01*
X135913809Y-64737380D02*
X135913809Y-63737380D01*
X135818571Y-63880238D01*
X135723333Y-63975476D01*
X135628095Y-64023095D01*
X137056666Y-64070714D02*
X137056666Y-64737380D01*
X136818571Y-63689761D02*
X136580476Y-64404047D01*
X137199523Y-64404047D01*
X181665714Y-55212380D02*
X181665714Y-54212380D01*
X181903809Y-54212380D01*
X182046666Y-54260000D01*
X182141904Y-54355238D01*
X182189523Y-54450476D01*
X182237142Y-54640952D01*
X182237142Y-54783809D01*
X182189523Y-54974285D01*
X182141904Y-55069523D01*
X182046666Y-55164761D01*
X181903809Y-55212380D01*
X181665714Y-55212380D01*
X183189523Y-55212380D02*
X182618095Y-55212380D01*
X182903809Y-55212380D02*
X182903809Y-54212380D01*
X182808571Y-54355238D01*
X182713333Y-54450476D01*
X182618095Y-54498095D01*
X183522857Y-54212380D02*
X184141904Y-54212380D01*
X183808571Y-54593333D01*
X183951428Y-54593333D01*
X184046666Y-54640952D01*
X184094285Y-54688571D01*
X184141904Y-54783809D01*
X184141904Y-55021904D01*
X184094285Y-55117142D01*
X184046666Y-55164761D01*
X183951428Y-55212380D01*
X183665714Y-55212380D01*
X183570476Y-55164761D01*
X183522857Y-55117142D01*
X172775714Y-55212380D02*
X172775714Y-54212380D01*
X173013809Y-54212380D01*
X173156666Y-54260000D01*
X173251904Y-54355238D01*
X173299523Y-54450476D01*
X173347142Y-54640952D01*
X173347142Y-54783809D01*
X173299523Y-54974285D01*
X173251904Y-55069523D01*
X173156666Y-55164761D01*
X173013809Y-55212380D01*
X172775714Y-55212380D01*
X174299523Y-55212380D02*
X173728095Y-55212380D01*
X174013809Y-55212380D02*
X174013809Y-54212380D01*
X173918571Y-54355238D01*
X173823333Y-54450476D01*
X173728095Y-54498095D01*
X174680476Y-54307619D02*
X174728095Y-54260000D01*
X174823333Y-54212380D01*
X175061428Y-54212380D01*
X175156666Y-54260000D01*
X175204285Y-54307619D01*
X175251904Y-54402857D01*
X175251904Y-54498095D01*
X175204285Y-54640952D01*
X174632857Y-55212380D01*
X175251904Y-55212380D01*
X163250714Y-55212380D02*
X163250714Y-54212380D01*
X163488809Y-54212380D01*
X163631666Y-54260000D01*
X163726904Y-54355238D01*
X163774523Y-54450476D01*
X163822142Y-54640952D01*
X163822142Y-54783809D01*
X163774523Y-54974285D01*
X163726904Y-55069523D01*
X163631666Y-55164761D01*
X163488809Y-55212380D01*
X163250714Y-55212380D01*
X164774523Y-55212380D02*
X164203095Y-55212380D01*
X164488809Y-55212380D02*
X164488809Y-54212380D01*
X164393571Y-54355238D01*
X164298333Y-54450476D01*
X164203095Y-54498095D01*
X165726904Y-55212380D02*
X165155476Y-55212380D01*
X165441190Y-55212380D02*
X165441190Y-54212380D01*
X165345952Y-54355238D01*
X165250714Y-54450476D01*
X165155476Y-54498095D01*
X153725714Y-55212380D02*
X153725714Y-54212380D01*
X153963809Y-54212380D01*
X154106666Y-54260000D01*
X154201904Y-54355238D01*
X154249523Y-54450476D01*
X154297142Y-54640952D01*
X154297142Y-54783809D01*
X154249523Y-54974285D01*
X154201904Y-55069523D01*
X154106666Y-55164761D01*
X153963809Y-55212380D01*
X153725714Y-55212380D01*
X155249523Y-55212380D02*
X154678095Y-55212380D01*
X154963809Y-55212380D02*
X154963809Y-54212380D01*
X154868571Y-54355238D01*
X154773333Y-54450476D01*
X154678095Y-54498095D01*
X155868571Y-54212380D02*
X155963809Y-54212380D01*
X156059047Y-54260000D01*
X156106666Y-54307619D01*
X156154285Y-54402857D01*
X156201904Y-54593333D01*
X156201904Y-54831428D01*
X156154285Y-55021904D01*
X156106666Y-55117142D01*
X156059047Y-55164761D01*
X155963809Y-55212380D01*
X155868571Y-55212380D01*
X155773333Y-55164761D01*
X155725714Y-55117142D01*
X155678095Y-55021904D01*
X155630476Y-54831428D01*
X155630476Y-54593333D01*
X155678095Y-54402857D01*
X155725714Y-54307619D01*
X155773333Y-54260000D01*
X155868571Y-54212380D01*
X145311904Y-55212380D02*
X145311904Y-54212380D01*
X145550000Y-54212380D01*
X145692857Y-54260000D01*
X145788095Y-54355238D01*
X145835714Y-54450476D01*
X145883333Y-54640952D01*
X145883333Y-54783809D01*
X145835714Y-54974285D01*
X145788095Y-55069523D01*
X145692857Y-55164761D01*
X145550000Y-55212380D01*
X145311904Y-55212380D01*
X146359523Y-55212380D02*
X146550000Y-55212380D01*
X146645238Y-55164761D01*
X146692857Y-55117142D01*
X146788095Y-54974285D01*
X146835714Y-54783809D01*
X146835714Y-54402857D01*
X146788095Y-54307619D01*
X146740476Y-54260000D01*
X146645238Y-54212380D01*
X146454761Y-54212380D01*
X146359523Y-54260000D01*
X146311904Y-54307619D01*
X146264285Y-54402857D01*
X146264285Y-54640952D01*
X146311904Y-54736190D01*
X146359523Y-54783809D01*
X146454761Y-54831428D01*
X146645238Y-54831428D01*
X146740476Y-54783809D01*
X146788095Y-54736190D01*
X146835714Y-54640952D01*
X135151904Y-55212380D02*
X135151904Y-54212380D01*
X135390000Y-54212380D01*
X135532857Y-54260000D01*
X135628095Y-54355238D01*
X135675714Y-54450476D01*
X135723333Y-54640952D01*
X135723333Y-54783809D01*
X135675714Y-54974285D01*
X135628095Y-55069523D01*
X135532857Y-55164761D01*
X135390000Y-55212380D01*
X135151904Y-55212380D01*
X136294761Y-54640952D02*
X136199523Y-54593333D01*
X136151904Y-54545714D01*
X136104285Y-54450476D01*
X136104285Y-54402857D01*
X136151904Y-54307619D01*
X136199523Y-54260000D01*
X136294761Y-54212380D01*
X136485238Y-54212380D01*
X136580476Y-54260000D01*
X136628095Y-54307619D01*
X136675714Y-54402857D01*
X136675714Y-54450476D01*
X136628095Y-54545714D01*
X136580476Y-54593333D01*
X136485238Y-54640952D01*
X136294761Y-54640952D01*
X136199523Y-54688571D01*
X136151904Y-54736190D01*
X136104285Y-54831428D01*
X136104285Y-55021904D01*
X136151904Y-55117142D01*
X136199523Y-55164761D01*
X136294761Y-55212380D01*
X136485238Y-55212380D01*
X136580476Y-55164761D01*
X136628095Y-55117142D01*
X136675714Y-55021904D01*
X136675714Y-54831428D01*
X136628095Y-54736190D01*
X136580476Y-54688571D01*
X136485238Y-54640952D01*
X158646904Y-66807380D02*
X158646904Y-65807380D01*
X158885000Y-65807380D01*
X159027857Y-65855000D01*
X159123095Y-65950238D01*
X159170714Y-66045476D01*
X159218333Y-66235952D01*
X159218333Y-66378809D01*
X159170714Y-66569285D01*
X159123095Y-66664523D01*
X159027857Y-66759761D01*
X158885000Y-66807380D01*
X158646904Y-66807380D01*
X160075476Y-66140714D02*
X160075476Y-66807380D01*
X159837380Y-65759761D02*
X159599285Y-66474047D01*
X160218333Y-66474047D01*
X123721904Y-86497380D02*
X123721904Y-85497380D01*
X123960000Y-85497380D01*
X124102857Y-85545000D01*
X124198095Y-85640238D01*
X124245714Y-85735476D01*
X124293333Y-85925952D01*
X124293333Y-86068809D01*
X124245714Y-86259285D01*
X124198095Y-86354523D01*
X124102857Y-86449761D01*
X123960000Y-86497380D01*
X123721904Y-86497380D01*
X125150476Y-85497380D02*
X124960000Y-85497380D01*
X124864761Y-85545000D01*
X124817142Y-85592619D01*
X124721904Y-85735476D01*
X124674285Y-85925952D01*
X124674285Y-86306904D01*
X124721904Y-86402142D01*
X124769523Y-86449761D01*
X124864761Y-86497380D01*
X125055238Y-86497380D01*
X125150476Y-86449761D01*
X125198095Y-86402142D01*
X125245714Y-86306904D01*
X125245714Y-86068809D01*
X125198095Y-85973571D01*
X125150476Y-85925952D01*
X125055238Y-85878333D01*
X124864761Y-85878333D01*
X124769523Y-85925952D01*
X124721904Y-85973571D01*
X124674285Y-86068809D01*
X177696904Y-66807380D02*
X177696904Y-65807380D01*
X177935000Y-65807380D01*
X178077857Y-65855000D01*
X178173095Y-65950238D01*
X178220714Y-66045476D01*
X178268333Y-66235952D01*
X178268333Y-66378809D01*
X178220714Y-66569285D01*
X178173095Y-66664523D01*
X178077857Y-66759761D01*
X177935000Y-66807380D01*
X177696904Y-66807380D01*
X178601666Y-65807380D02*
X179220714Y-65807380D01*
X178887380Y-66188333D01*
X179030238Y-66188333D01*
X179125476Y-66235952D01*
X179173095Y-66283571D01*
X179220714Y-66378809D01*
X179220714Y-66616904D01*
X179173095Y-66712142D01*
X179125476Y-66759761D01*
X179030238Y-66807380D01*
X178744523Y-66807380D01*
X178649285Y-66759761D01*
X178601666Y-66712142D01*
X141557619Y-85185238D02*
X141510000Y-85280476D01*
X141414761Y-85375714D01*
X141271904Y-85518571D01*
X141224285Y-85613809D01*
X141224285Y-85709047D01*
X141462380Y-85661428D02*
X141414761Y-85756666D01*
X141319523Y-85851904D01*
X141129047Y-85899523D01*
X140795714Y-85899523D01*
X140605238Y-85851904D01*
X140510000Y-85756666D01*
X140462380Y-85661428D01*
X140462380Y-85470952D01*
X140510000Y-85375714D01*
X140605238Y-85280476D01*
X140795714Y-85232857D01*
X141129047Y-85232857D01*
X141319523Y-85280476D01*
X141414761Y-85375714D01*
X141462380Y-85470952D01*
X141462380Y-85661428D01*
X140795714Y-84375714D02*
X141462380Y-84375714D01*
X140414761Y-84613809D02*
X141129047Y-84851904D01*
X141129047Y-84232857D01*
X140231904Y-72527380D02*
X140231904Y-71527380D01*
X140470000Y-71527380D01*
X140612857Y-71575000D01*
X140708095Y-71670238D01*
X140755714Y-71765476D01*
X140803333Y-71955952D01*
X140803333Y-72098809D01*
X140755714Y-72289285D01*
X140708095Y-72384523D01*
X140612857Y-72479761D01*
X140470000Y-72527380D01*
X140231904Y-72527380D01*
X141708095Y-71527380D02*
X141231904Y-71527380D01*
X141184285Y-72003571D01*
X141231904Y-71955952D01*
X141327142Y-71908333D01*
X141565238Y-71908333D01*
X141660476Y-71955952D01*
X141708095Y-72003571D01*
X141755714Y-72098809D01*
X141755714Y-72336904D01*
X141708095Y-72432142D01*
X141660476Y-72479761D01*
X141565238Y-72527380D01*
X141327142Y-72527380D01*
X141231904Y-72479761D01*
X141184285Y-72432142D01*
X133302619Y-75660238D02*
X133255000Y-75755476D01*
X133159761Y-75850714D01*
X133016904Y-75993571D01*
X132969285Y-76088809D01*
X132969285Y-76184047D01*
X133207380Y-76136428D02*
X133159761Y-76231666D01*
X133064523Y-76326904D01*
X132874047Y-76374523D01*
X132540714Y-76374523D01*
X132350238Y-76326904D01*
X132255000Y-76231666D01*
X132207380Y-76136428D01*
X132207380Y-75945952D01*
X132255000Y-75850714D01*
X132350238Y-75755476D01*
X132540714Y-75707857D01*
X132874047Y-75707857D01*
X133064523Y-75755476D01*
X133159761Y-75850714D01*
X133207380Y-75945952D01*
X133207380Y-76136428D01*
X132207380Y-75374523D02*
X132207380Y-74755476D01*
X132588333Y-75088809D01*
X132588333Y-74945952D01*
X132635952Y-74850714D01*
X132683571Y-74803095D01*
X132778809Y-74755476D01*
X133016904Y-74755476D01*
X133112142Y-74803095D01*
X133159761Y-74850714D01*
X133207380Y-74945952D01*
X133207380Y-75231666D01*
X133159761Y-75326904D01*
X133112142Y-75374523D01*
M02*
